{
.appVersion = "3151";
.formatVersion = 3;
axes = (
{
name = Weight;
tag = wght;
}
);
customParameters = (
{
name = panose;
value = (
0,
0,
0,
0,
0,
0,
0,
0,
0,
0
);
},
{
name = fsType;
value = (
);
},
{
name = "Write lastChange";
value = 0;
},
{
name = "Use Typo Metrics";
value = 1;
},
{
name = "Use Line Breaks";
value = 1;
},
{
name = "Enforce Compatibility Check";
value = 1;
},
{
name = vendorID;
value = TBLD;
}
);
date = "2023-12-10 12:24:40 +0000";
familyName = Wittgenstein;
featurePrefixes = (
{
automatic = 1;
code = "languagesystem DFLT dflt;
languagesystem DFLT MAH;

languagesystem latn dflt;
languagesystem latn AZE;
languagesystem latn CRT;
languagesystem latn KAZ;
languagesystem latn TAT;
languagesystem latn TRK;
languagesystem latn ROM;
languagesystem latn MOL;
languagesystem latn CAT;
languagesystem latn NLD;
";
name = Languagesystems;
}
);
features = (
{
automatic = 1;
code = "feature locl;
feature subs;
feature sinf;
feature sups;
feature numr;
feature dnom;
feature frac;
feature ordn;
feature tnum;
feature case;
feature zero;
";
tag = aalt;
},
{
automatic = 1;
code = "lookup ccmp_Other_1 {
	@CombiningTopAccents = [acutecomb brevecomb caroncomb circumflexcomb commaturnedabovecomb dieresiscomb dotaccentcomb gravecomb hungarumlautcomb macroncomb ringcomb tildecomb];
	@CombiningNonTopAccents = [cedillacomb ogonekcomb];
	sub [i j]' @CombiningTopAccents by [idotless jdotless];
	sub [i j]' @CombiningNonTopAccents @CombiningTopAccents by [idotless jdotless];
} ccmp_Other_1;
";
tag = ccmp;
},
{
automatic = 1;
code = "lookup locl_noScript_0 {
	language MAH;
	sub commaaccentcomb by commaaccentcomb.loclMAH;
} locl_noScript_0;

lookup locl_latn_0 {
	script latn;
	language AZE;
	sub i by idotaccent;
	language CRT;
	sub i by idotaccent;
	language KAZ;
	sub i by idotaccent;
	language TAT;
	sub i by idotaccent;
	language TRK;
	sub i by idotaccent;
} locl_latn_0;

lookup locl_latn_1 {
	script latn;
	language ROM;
	sub Scedilla by Scommaaccent;

glyphs = (
{
glyphname = A;
layers = (
{
anchors = (
{
name = top;
pos = (393,664);
}
);
layerId = m01;
shapes = (
{
closed = 1;
nodes = (
(493,20,l),
(493,0,l),
(777,0,l),
(777,19,l),
(666,56,l),
(689,33,l),
(442,720,l),
(343,700,l),
(93,33,l),
(116,56,l),
(8,20,l),
(8,0,l),
(248,0,l),
(248,19,l),
(137,56,l),
(148,33,l),
(232,258,l),
(208,241,l),
(531,241,l),
(507,258,l),
(590,33,l),
(601,56,l)
);
},
{
closed = 1;
nodes = (
(376,643,l),
(364,643,l),
(504,264,l),
(516,281,l),
(223,281,l),
(235,264,l)
);
}
);
width = 785;
},
{
anchors = (
{
name = top;
pos = (398,700);
}
);
layerId = m002;
shapes = (
{
closed = 1;
nodes = (
(467,18,l),
(467,0,l),
(803,0,l),
(803,17,l),
(687,55,l),
(716,27,l),
(469,717,l),
(319,700,l),
(66,27,l),
(95,55,l),
(-18,18,l),
(-18,0,l),
(214,0,l),
(214,17,l),
(117,56,l),
(130,27,l),
(218,260,l),
(188,239,l),
(511,239,l),
(481,260,l),
(568,27,l),
(581,55,l)
);
},
{
closed = 1;
nodes = (
(358,634,l),
(342,634,l),
(481,262,l),
(495,283,l),
(204,283,l),
(218,262,l)
);
}
);
width = 785;
},
{
anchors = (
{
name = top;
pos = (398,671);
}
);
associatedMasterId = m01;
layerId = "77F1F182-FFCF-4508-A517-31895B1E2DC0";
name = "1. Jan. 24, 22:37";
shapes = (
{
closed = 1;
nodes = (
(683,50,l),
(442,720,l),
(343,700,l),
(584,50,l)
);
},
{
closed = 1;
nodes = (
(248,0,l),
(248,19,l),
(154,50,l),
(99,50,l),
(8,20,l),
(8,0,l)
);
},
{
closed = 1;
nodes = (
(154,50,l),
(398,700,l),
(343,700,l),
(99,50,l)
);
},
{
closed = 1;
nodes = (
(540,241,l),
(540,281,l),
(194,281,l),
(194,241,l)
);
},
{
closed = 1;
nodes = (
(777,0,l),
(777,19,l),
(683,50,l),
(584,50,l),
(493,20,l),
(493,0,l)
);
}
);
width = 785;
},
{
anchors = (
{
name = top;
pos = (398,700);
}
);
associatedMasterId = m002;
layerId = "0C6DC8E4-96D4-4A15-A204-3E4317D0BCB9";
name = "1. Jan. 24, 22:39";
shapes = (
{
closed = 1;
nodes = (
(708,48,l),
(469,717,l),
(319,698,l),
(560,48,l)
);
},
{
closed = 1;
nodes = (
(214,0,l),
(214,17,l),
(138,48,l),
(74,48,l),
(-18,18,l),
(-18,0,l)
);
},
{
closed = 1;
nodes = (
(138,48,l),
(383,700,l),
(319,700,l),
(74,48,l)
);
},
{
closed = 1;
nodes = (
(586,239,l),
(586,283,l),
(188,283,l),
(188,239,l)
);
},
{
closed = 1;
nodes = (
(803,0,l),
(803,17,l),
(708,48,l),
(560,48,l),
(467,18,l),
(467,0,l)
);
}
);
width = 785;
}
);
unicode = 65;
},
{
glyphname = AE;
layers = (
{
layerId = m01;
shapes = (
{
closed = 1;
nodes = (
(894,0,l),
(929,197,l),
(910,204,l),
(821,34,l),
(847,50,l),
(525,50,l),
(543,32,l),
(543,359,l),
(525,341,l),
(737,341,l),
(712,359,l),
(750,245,l),
(769,245,l),
(769,475,l),
(749,475,l),
(712,363,l),
(737,381,l),
(525,381,l),
(543,363,l),
(543,668,l),
(525,650,l),
(852,650,l),
(829,667,l),
(870,520,l),
(891,520,l),
(891,700,l),
(448,700,l),
(448,698,l),
(95,34,l),
(120,56,l),
(12,20,l),
(12,0,l),
(252,0,l),
(252,19,l),
(141,56,l),
(150,34,l),
(251,227,l),
(225,211,l),
(466,211,l),
(448,229,l),
(448,0,l)
);
},
{
closed = 1;
nodes = (
(466,251,l),
(246,251,l),
(256,235,l),
(456,614,l),
(448,616,l),
(448,233,l)
);
}
);
width = 941;
},
{
layerId = m002;
shapes = (
{
closed = 1;
nodes = (
(945,-2,l),
(980,193,l),
(939,216,l),
(843,32,l),
(875,52,l),
(603,52,l),
(625,30,l),
(625,361,l),
(603,339,l),
(756,339,l),
(733,359,l),
(772,243,l),
(811,243,l),
(811,477,l),
(771,477,l),
(732,360,l),
(761,383,l),
(603,383,l),
(625,361,l),
(625,670,l),
(603,648,l),
(877,648,l),
(849,670,l),
(891,518,l),
(943,518,l),
(943,702,l),
(478,702,l),
(478,693,l),
(93,29,l),
(125,55,l),
(12,18,l),
(12,0,l),
(251,0,l),
(251,17,l),
(152,56,l),
(162,29,l),
(277,228,l),
(244,209,l),
(500,209,l),
(478,231,l),
(478,-2,l)
);
},
{
closed = 1;
nodes = (
(500,253,l),
(270,253,l),
(281,234,l),
(489,593,l),
(478,596,l),
(478,231,l)
);
}
);
width = 992;
},
{
associatedMasterId = m01;
layerId = "65F6BFA4-FC38-41E6-9ED1-2CEBC3AB3BF6";
name = "2. Jan. 24, 00:57";
shapes = (
{
closed = 1;
nodes = (
(894,0,l),
(929,197,l),
(910,204,l),
(829,50,l),
(543,50,l),
(543,341,l),
(719,341,l),
(719,339,l),
(750,245,l),
(769,245,l),
(769,475,l),
(749,475,l),
(719,384,l),
(719,381,l),
(543,381,l),
(543,650,l),
(834,650,l),
(870,520,l),
(891,520,l),
(891,700,l),
(448,700,l),
(448,0,l)
);
},
{
closed = 1;
nodes = (
(252,0,l),
(252,19,l),
(158,50,l),
(103,50,l),
(12,20,l),
(12,0,l)
);
},
{
closed = 1;
nodes = (
(514,211,l),
(514,251,l),
(218,251,l),
(218,211,l)
);
},
{
closed = 1;
nodes = (
(158,50,l),
(502,700,l),
(449,700,l),
(103,50,l)
);
}
);
width = 941;
},
{
associatedMasterId = m002;
layerId = "05F64633-F8B9-49AA-A239-CE28D3B83EAF";
name = "2. Jan. 24, 00:57";
shapes = (
{
closed = 1;
nodes = (
(945,-2,l),
(980,193,l),
(939,216,l),
(853,52,l),
(625,52,l),
(625,339,l),
(739,339,l),
(740,338,l),
(772,243,l),
(811,243,l),
(811,477,l),
(771,477,l),
(739,381,l),
(739,383,l),
(625,383,l),
(625,648,l),
(855,648,l),
(891,518,l),
(943,518,l),
(943,702,l),
(478,702,l),
(478,-2,l)
);
},
{
closed = 1;
nodes = (
(251,0,l),
(251,17,l),
(173,48,l),
(104,48,l),
(12,18,l),
(12,0,l)
);
},
{
closed = 1;
nodes = (
(596,209,l),
(596,253,l),
(248,253,l),
(248,209,l)
);
},
{
closed = 1;
nodes = (
(173,48,l),
(552,702,l),
(483,702,l),
(104,48,l)
);
}
);
width = 992;
}
);
unicode = 198;
},
{
glyphname = B;
layers = (
{
anchors = (
{
name = top;
pos = (306,700);
}
);
layerId = m01;
shapes = (
{
closed = 1;
nodes = (
(324,0,ls),
(495,0,o),
(602,79,o),
(602,205,cs),
(602,291,o),
(541,352,o),
(440,372,c),
(442,363,l),
(516,396,o),
(562,459,o),
(562,537,cs),
(562,632,o),
(476,700,o),
(354,700,cs),
(34,700,l),
(34,680,l),
(142,644,l),
(125,668,l),
(125,32,l),
(142,56,l),
(34,20,l),
(34,0,l)
);
},
{
closed = 1;
nodes = (
(220,359,l),
(202,341,l),
(324,341,ls),
(427,341,o),
(492,278,o),
(492,177,cs),
(492,99,o),
(439,50,o),
(354,50,cs),
(202,50,l),
(220,32,l)
);
},
{
closed = 1;
nodes = (
(220,668,l),
(202,650,l),
(324,650,ls),
(399,650,o),
(452,590,o),
(452,505,cs),
(452,432,o),
(411,381,o),
(354,381,cs),
(202,381,l),
(220,363,l)
);
}
);
width = 660;
},
{
anchors = (
{
name = top;
pos = (278,700);
}
);
layerId = m002;
shapes = (
{
closed = 1;
nodes = (
(296,0,ls),
(479,0,o),
(608,85,o),
(608,205,cs),
(608,287,o),
(539,349,o),
(433,374,c),
(436,363,l),
(517,394,o),
(568,458,o),
(568,537,cs),
(568,632,o),
(477,700,o),
(348,700,cs),
(-12,700,l),
(-12,684,l),
(100,640,l),
(79,670,l),
(79,30,l),
(100,60,l),
(-12,16,l),
(-12,0,l)
);
},
{
closed = 1;
nodes = (
(226,361,l),
(204,339,l),
(304,339,ls),
(387,339,o),
(446,272,o),
(446,177,cs),
(446,104,o),
(401,52,o),
(338,52,cs),
(204,52,l),
(226,30,l)
);
},
{
closed = 1;
nodes = (
(226,670,l),
(204,648,l),
(306,648,ls),
(365,648,o),
(406,589,o),
(406,505,cs),
(406,434,o),
(377,383,o),
(337,383,cs),
(204,383,l),
(226,361,l)
);
}
);
width = 640;
},
{
anchors = (
{
name = top;
pos = (298,700);
}
);
associatedMasterId = m002;
layerId = "ECCDD1BF-F6F1-45A5-98B2-73912FFA1DFF";
name = "1. Jan. 24, 22:47";
shapes = (
{
closed = 1;
nodes = (
(499,0,o),
(628,85,o),
(628,205,cs),
(628,309,o),
(516,383,o),
(357,383,c),
(324,339,l),
(407,339,o),
(466,272,o),
(466,177,cs),
(466,104,o),
(421,52,o),
(358,52,c),
(316,0,l)
);
},
{
closed = 1;
nodes = (
(316,0,l),
(358,52,l),
(99,52,l),
(8,16,l),
(8,0,l)
);
},
{
closed = 1;
nodes = (
(246,52,l),
(246,648,l),
(99,648,l),
(99,52,l)
);
},
{
closed = 1;
nodes = (
(324,339,l),
(357,383,l),
(164,383,l),
(164,339,l)
);
},
{
closed = 1;
nodes = (
(326,648,l),
(368,700,l),
(8,700,l),
(8,684,l),
(99,648,l)
);
},
{
closed = 1;
nodes = (
(479,339,o),
(588,421,o),
(588,537,cs),
(588,632,o),
(497,700,o),
(368,700,c),
(326,648,l),
(385,648,o),
(426,589,o),
(426,505,cs),
(426,434,o),
(397,383,o),
(357,383,c),
(324,339,l)
);
}
);
width = 660;
},
{
anchors = (
{
name = top;
pos = (306,700);
}
);
associatedMasterId = m01;
layerId = "4784B320-B7C0-473D-AF98-435A13D7944F";
name = "1. Jan. 24, 22:48";
shapes = (
{
closed = 1;
nodes = (
(495,0,o),
(602,79,o),
(602,205,cs),
(602,313,o),
(506,381,o),
(354,381,c),
(324,341,l),
(427,341,o),
(492,278,o),
(492,177,cs),
(492,99,o),
(439,50,o),
(354,50,c),
(324,0,l)
);
},
{
closed = 1;
nodes = (
(324,0,l),
(354,50,l),
(125,50,l),
(34,20,l),
(34,0,l)
);
},
{
closed = 1;
nodes = (
(220,50,l),
(220,650,l),
(125,650,l),
(125,50,l)
);
},
{
closed = 1;
nodes = (
(324,341,l),
(354,381,l),
(190,381,l),
(190,341,l)
);
},
{
closed = 1;
nodes = (
(324,650,l),
(354,700,l),
(34,700,l),
(34,680,l),
(125,650,l)
);
},
{
closed = 1;
nodes = (
(463,341,o),
(562,422,o),
(562,537,cs),
(562,632,o),
(476,700,o),
(354,700,c),
(324,650,l),
(399,650,o),
(452,590,o),
(452,505,cs),
(452,432,o),
(411,381,o),
(354,381,c),
(324,341,l)
);
}
);
width = 660;
}
);
unicode = 66;
},
{
glyphname = C;
layers = (
{
anchors = (
{
name = ced;
pos = (395,0);
},
{
name = top;
pos = (367,700);
}
);
layerId = m01;
shapes = (
{
closed = 1;
nodes = (
(453,-15,o),
(552,13,o),
(624,52,c),
(624,200,l),
(586,200,l),
(586,97,o),
(512,24,o),
(407,24,cs),
(257,24,o),
(151,186,o),
(151,415,cs),
(151,568,o),
(240,676,o),
(367,676,cs),
(477,676,o),
(586,582,o),
(586,500,c),
(624,500,l),
(624,648,l),
(552,687,o),
(454,715,o),
(387,715,cs),
(185,713,o),
(42,561,o),
(42,347,cs),
(42,135,o),
(185,-15,o),
(387,-15,cs)
);
}
);
width = 700;
},
{
anchors = (
{
name = ced;
pos = (395,0);
},
{
name = top;
pos = (378,700);
}
);
layerId = m002;
shapes = (
{
closed = 1;
nodes = (
(470,-17,o),
(578,14,o),
(650,58,c),
(650,202,l),
(580,202,l),
(581,99,o),
(509,26,o),
(406,26,cs),
(272,26,o),
(177,187,o),
(177,415,cs),
(177,567,o),
(256,674,o),
(367,674,cs),
(494,674,o),
(582,601,o),
(580,498,c),
(650,498,l),
(650,642,l),
(578,686,o),
(469,717,o),
(387,717,cs),
(170,717,o),
(16,564,o),
(16,347,cs),
(16,134,o),
(170,-17,o),
(388,-17,cs)
);
}
);
width = 690;
},
{
anchors = (
{
name = ced;
pos = (395,0);
},
{
name = top;
pos = (367,700);
}
);
associatedMasterId = m01;
layerId = "25A143D6-1FAB-478C-920D-4B3D556C234A";
name = "1. Jan. 24, 22:49";
shapes = (
{
closed = 1;
nodes = (
(407,24,l),
(257,24,o),
(151,186,o),
(151,415,cs),
(151,568,o),
(240,676,o),
(367,676,c),
(387,715,l),
(185,713,o),
(42,561,o),
(42,347,cs),
(42,135,o),
(185,-15,o),
(387,-15,c)
);
},
{
closed = 1;
nodes = (
(453,-15,o),
(552,13,o),
(624,52,c),
(624,200,l),
(586,200,l),
(586,97,o),
(512,24,o),
(407,24,c),
(387,-15,l)
);
},
{
closed = 1;
nodes = (
(624,500,l),
(624,648,l),
(552,687,o),
(454,715,o),
(387,715,c),
(367,676,l),
(477,676,o),
(586,582,o),
(586,500,c)
);
}
);
width = 700;
},
{
anchors = (
{
name = top;
pos = (378,700);
}
);
associatedMasterId = m002;
layerId = "452625C8-4D36-4218-B2D1-BBFFD2C082A9";
name = "1. Jan. 24, 22:49";
shapes = (
{
closed = 1;
nodes = (
(406,26,l),
(272,26,o),
(177,187,o),
(177,415,cs),
(177,567,o),
(256,674,o),
(367,674,c),
(387,717,l),
(170,717,o),
(16,564,o),
(16,347,cs),
(16,134,o),
(170,-17,o),
(388,-17,c)
);
},
{
closed = 1;
nodes = (
(470,-17,o),
(578,14,o),
(650,58,c),
(650,202,l),
(580,202,l),
(581,99,o),
(509,26,o),
(406,26,c),
(388,-17,l)
);
},
{
closed = 1;
nodes = (
(650,498,l),
(650,642,l),
(578,686,o),
(469,717,o),
(387,717,c),
(367,674,l),
(494,674,o),
(582,601,o),
(580,498,c)
);
}
);
width = 700;
}
);
unicode = 67;
},
{
glyphname = D;
layers = (
{
anchors = (
{
name = top;
pos = (334,700);
}
);
layerId = m01;
shapes = (
{
closed = 1;
nodes = (
(560,0,o),
(700,160,o),
(700,385,cs),
(700,569,o),
(572,700,o),
(392,700,cs),
(32,700,l),
(32,680,l),
(140,644,l),
(123,668,l),
(123,32,l),
(140,56,l),
(32,20,l),
(32,0,l),
(362,0,ls)
);
},
{
closed = 1;
nodes = (
(218,668,l),
(200,650,l),
(362,650,ls),
(496,650,o),
(590,523,o),
(590,344,cs),
(590,172,o),
(508,50,o),
(392,50,cs),
(200,50,l),
(218,32,l)
);
}
);
width = 754;
},
{
anchors = (
{
name = top;
pos = (324,700);
}
);
layerId = m002;
shapes = (
{
closed = 1;
nodes = (
(563,0,o),
(716,160,o),
(716,385,cs),
(716,569,o),
(577,700,o),
(380,700,cs),
(-4,700,l),
(-4,684,l),
(108,645,l),
(87,674,l),
(87,26,l),
(108,55,l),
(-4,18,l),
(-4,0,l),
(347,0,ls)
);
},
{
closed = 1;
nodes = (
(234,674,l),
(212,652,l),
(348,652,ls),
(469,652,o),
(554,524,o),
(554,344,cs),
(554,171,o),
(481,48,o),
(379,48,cs),
(212,48,l),
(234,26,l)
);
}
);
width = 754;
},
{
anchors = (
{
name = top;
pos = (334,700);
}
);
associatedMasterId = m01;
layerId = "D0A44D90-46C3-4D09-9D47-6B4D893B9BFC";
name = "1. Jan. 24, 22:50";
shapes = (
{
closed = 1;
nodes = (
(560,0,o),
(700,160,o),
(700,385,cs),
(700,569,o),
(572,700,o),
(392,700,c),
(362,650,l),
(496,650,o),
(590,523,o),
(590,344,cs),
(590,172,o),
(508,50,o),
(392,50,c),
(362,0,l)
);
},
{
closed = 1;
nodes = (
(362,0,l),
(392,50,l),
(123,50,l),
(32,20,l),
(32,0,l)
);
},
{
closed = 1;
nodes = (
(218,50,l),
(218,650,l),
(123,650,l),
(123,50,l)
);
},
{
closed = 1;
nodes = (
(362,650,l),
(392,700,l),
(32,700,l),
(32,680,l),
(123,650,l)
);
}
);
width = 754;
},
{
associatedMasterId = m002;
layerId = "AA07CD4A-0EBF-4A18-B22B-63F2153B8549";
name = "1. Jan. 24, 22:52";
shapes = (
{
closed = 1;
nodes = (
(573,0,o),
(726,160,o),
(726,385,cs),
(726,569,o),
(587,700,o),
(390,700,c),
(358,652,l),
(479,652,o),
(564,524,o),
(564,344,cs),
(564,171,o),
(491,48,o),
(389,48,c),
(357,0,l)
);
},
{
closed = 1;
nodes = (
(357,0,l),
(389,48,l),
(97,48,l),
(6,18,l),
(6,0,l)
);
},
{
closed = 1;
nodes = (
(244,48,l),
(244,652,l),
(97,652,l),
(97,48,l)
);
},
{
closed = 1;
nodes = (
(358,652,l),
(390,700,l),
(6,700,l),
(6,684,l),
(97,652,l)
);
}
);
width = 754;
}
);
unicode = 68;
},
{
glyphname = Eth;
layers = (
{
layerId = m01;
shapes = (
{
closed = 1;
nodes = (
(560,0,o),
(700,160,o),
(700,385,cs),
(700,569,o),
(572,700,o),
(392,700,c),
(362,650,l),
(496,650,o),
(590,523,o),
(590,344,cs),
(590,172,o),
(508,50,o),
(392,50,c),
(362,0,l)
);
},
{
closed = 1;
nodes = (
(362,0,l),
(392,50,l),
(123,50,l),
(32,20,l),
(32,0,l)
);
},
{
closed = 1;
nodes = (
(218,50,l),
(218,650,l),
(123,650,l),
(123,50,l)
);
},
{
closed = 1;
nodes = (
(352,337,l),
(352,379,l),
(32,379,l),
(32,337,l)
);
},
{
closed = 1;
nodes = (
(362,650,l),
(392,700,l),
(32,700,l),
(32,680,l),
(123,650,l)
);
}
);
width = 754;
},
{
layerId = m002;
shapes = (
{
closed = 1;
nodes = (
(563,-14,o),
(726,148,o),
(726,385,cs),
(726,580,o),
(573,712,o),
(370,701,c),
(337,646,l),
(462,665,o),
(564,542,o),
(564,344,cs),
(564,154,o),
(476,36,o),
(371,54,c),
(338,-1,l)
);
},
{
closed = 1;
nodes = (
(384,-2,l),
(416,52,l),
(115,52,l),
(6,16,l),
(6,-2,l)
);
},
{
closed = 1;
nodes = (
(244,48,l),
(244,652,l),
(97,652,l),
(97,48,l)
);
},
{
closed = 1;
nodes = (
(378,335,l),
(378,381,l),
(6,381,l),
(6,335,l)
);
},
{
closed = 1;
nodes = (
(384,648,l),
(416,702,l),
(6,702,l),
(6,684,l),
(115,648,l)
);
}
);
width = 754;
}
);
unicode = 208;
},
{
glyphname = E;
layers = (
{
anchors = (
{
name = top;
pos = (334,700);
}
);
layerId = m01;
shapes = (
{
closed = 1;
nodes = (
(32,20,l),
(32,0,l),
(569,0,l),
(604,197,l),
(585,204,l),
(496,34,l),
(522,50,l),
(200,50,l),
(218,32,l),
(218,359,l),
(200,341,l),
(412,341,l),
(388,358,l),
(425,245,l),
(444,245,l),
(444,475,l),
(424,475,l),
(389,364,l),
(412,381,l),
(200,381,l),
(218,363,l),
(218,668,l),
(200,650,l),
(527,650,l),
(504,667,l),
(545,520,l),
(566,520,l),
(566,700,l),
(32,700,l),
(32,680,l),
(140,644,l),
(123,668,l),
(123,32,l),
(140,56,l)
);
}
);
width = 649;
},
{
anchors = (
{
name = top;
pos = (338,700);
}
);
layerId = m002;
shapes = (
{
closed = 1;
nodes = (
(-4,16,l),
(-4,0,l),
(584,0,l),
(619,193,l),
(592,205,l),
(500,28,l),
(532,48,l),
(212,48,l),
(234,26,l),
(234,364,l),
(212,342,l),
(400,342,l),
(369,363,l),
(421,243,l),
(450,243,l),
(450,477,l),
(420,477,l),
(369,360,l),
(400,381,l),
(212,381,l),
(234,359,l),
(234,674,l),
(212,652,l),
(535,652,l),
(507,674,l),
(550,518,l),
(582,518,l),
(582,700,l),
(-4,700,l),
(-4,684,l),
(108,645,l),
(87,674,l),
(87,26,l),
(108,55,l)
);
}
);
width = 649;
},
{
anchors = (
{
name = top;
pos = (348,700);
}
);
associatedMasterId = m002;
layerId = "2F8E16AC-49A0-4B37-BFFF-B29A9F69B122";
name = "2. Jan. 24, 00:41";
shapes = (
{
closed = 1;
nodes = (
(244,48,l),
(244,652,l),
(97,652,l),
(97,48,l)
);
},
{
closed = 1;
nodes = (
(530,0,l),
(530,48,l),
(97,48,l),
(6,16,l),
(6,0,l)
);
},
{
closed = 1;
nodes = (
(594,0,l),
(629,193,l),
(602,205,l),
(520,48,l),
(478,0,l)
);
},
{
closed = 1;
nodes = (
(460,342,l),
(460,381,l),
(162,381,l),
(162,342,l)
);
},
{
closed = 1;
nodes = (
(460,243,l),
(460,477,l),
(430,477,l),
(388,381,l),
(388,342,l),
(431,243,l)
);
},
{
closed = 1;
nodes = (
(535,652,l),
(535,700,l),
(6,700,l),
(6,684,l),
(97,652,l)
);
},
{
closed = 1;
nodes = (
(592,518,l),
(592,700,l),
(483,700,l),
(523,652,l),
(560,518,l)
);
}
);
width = 649;
},
{
anchors = (
{
name = top;
pos = (334,700);
}
);
associatedMasterId = m01;
layerId = "FEC74467-989F-442E-8B17-9EE45420A350";
name = "2. Jan. 24, 00:41";
shapes = (
{
closed = 1;
nodes = (
(218,50,l),
(218,650,l),
(123,650,l),
(123,50,l)
);
},
{
closed = 1;
nodes = (
(504,0,l),
(504,50,l),
(123,50,l),
(32,20,l),
(32,0,l)
);
},
{
closed = 1;
nodes = (
(569,0,l),
(604,197,l),
(585,204,l),
(504,50,l),
(504,0,l)
);
},
{
closed = 1;
nodes = (
(444,341,l),
(444,381,l),
(188,381,l),
(188,341,l)
);
},
{
closed = 1;
nodes = (
(444,245,l),
(444,475,l),
(424,475,l),
(394,384,l),
(394,339,l),
(425,245,l)
);
},
{
closed = 1;
nodes = (
(509,650,l),
(509,700,l),
(32,700,l),
(32,680,l),
(123,650,l)
);
},
{
closed = 1;
nodes = (
(566,520,l),
(566,700,l),
(509,700,l),
(509,650,l),
(545,520,l)
);
}
);
width = 649;
}
);
unicode = 69;
},
{
glyphname = Schwa;
layers = (
{
layerId = m01;
shapes = (
{
closed = 1;
nodes = (
(435,-14,o),
(546,145,o),
(547,370,cs),
(549,570,o),
(442,712,o),
(288,712,cs),
(204,712,o),
(112,659,o),
(67,585,c),
(103,566,l),
(140,609,o),
(202,640,o),
(253,640,cs),
(375,640,o),
(461,506,o),
(456,311,c),
(474,327,l),
(59,322,l),
(45,125,o),
(136,-14,o),
(279,-14,cs)
);
},
{
closed = 1;
nodes = (
(221,29,o),
(149,136,o),
(142,301,c),
(127,283,l),
(477,287,l),
(459,304,l),
(463,143,o),
(403,29,o),
(316,29,cs)
);
}
);
width = 600;
},
{
layerId = m002;
shapes = (
{
closed = 1;
nodes = (
(458,-16,o),
(572,147,o),
(573,370,cs),
(575,567,o),
(464,714,o),
(288,714,cs),
(192,714,o),
(87,654,o),
(46,588,c),
(113,553,l),
(157,610,o),
(210,638,o),
(253,638,cs),
(354,638,o),
(435,504,o),
(430,302,c),
(452,324,l),
(33,324,l),
(18,125,o),
(114,-16,o),
(279,-16,cs)
);
},
{
closed = 1;
nodes = (
(242,31,o),
(175,100,o),
(165,314,c),
(111,275,l),
(455,286,l),
(433,309,l),
(437,140,o),
(380,31,o),
(316,31,cs)
);
}
);
width = 600;
}
);
unicode = 399;
},
{
glyphname = F;
layers = (
{
anchors = (
{
name = top;
pos = (338,700);
}
);
layerId = m01;
shapes = (
{
closed = 1;
nodes = (
(332,0,l),
(332,19,l),
(201,55,l),
(218,32,l),
(218,359,l),
(200,341,l),
(412,341,l),
(388,358,l),
(425,245,l),
(444,245,l),
(444,475,l),
(424,475,l),
(389,364,l),
(412,381,l),
(200,381,l),
(218,363,l),
(218,668,l),
(200,650,l),
(527,650,l),
(504,667,l),
(545,520,l),
(566,520,l),
(566,700,l),
(32,700,l),
(32,680,l),
(140,644,l),
(123,668,l),
(123,32,l),
(140,56,l),
(32,20,l),
(32,0,l)
);
}
);
width = 597;
},
{
anchors = (
{
name = top;
pos = (328,700);
}
);
layerId = m002;
shapes = (
{
closed = 1;
nodes = (
(348,0,l),
(348,18,l),
(212,54,l),
(234,26,l),
(234,361,l),
(212,339,l),
(401,339,l),
(372,360,l),
(411,243,l),
(450,243,l),
(450,477,l),
(410,477,l),
(372,362,l),
(401,383,l),
(212,383,l),
(234,361,l),
(234,674,l),
(212,652,l),
(515,652,l),
(487,673,l),
(530,516,l),
(582,516,l),
(582,700,l),
(-4,700,l),
(-4,682,l),
(108,645,l),
(87,674,l),
(87,26,l),
(108,55,l),
(-4,18,l),
(-4,0,l)
);
}
);
width = 607;
},
{
anchors = (
{
name = top;
pos = (338,700);
}
);
associatedMasterId = m01;
layerId = "41430A1B-FDF3-479E-A5F3-835DC2B9B194";
name = "1. Jan. 24, 22:56";
shapes = (
{
closed = 1;
nodes = (
(218,50,l),
(218,650,l),
(123,650,l),
(123,50,l)
);
},
{
closed = 1;
nodes = (
(332,0,l),
(332,19,l),
(218,50,l),
(123,50,l),
(32,20,l),
(32,0,l)
);
},
{
closed = 1;
nodes = (
(444,341,l),
(444,381,l),
(188,381,l),
(188,341,l)
);
},
{
closed = 1;
nodes = (
(444,245,l),
(444,475,l),
(424,475,l),
(394,384,l),
(394,339,l),
(425,245,l)
);
},
{
closed = 1;
nodes = (
(509,650,l),
(509,700,l),
(32,700,l),
(32,680,l),
(123,650,l)
);
},
{
closed = 1;
nodes = (
(566,520,l),
(566,700,l),
(509,700,l),
(509,650,l),
(545,520,l)
);
}
);
width = 597;
},
{
anchors = (
{
name = top;
pos = (338,700);
}
);
associatedMasterId = m002;
layerId = "DA1635A2-97FE-4B17-8EFC-ACDC8198E79D";
name = "1. Jan. 24, 22:56";
shapes = (
{
closed = 1;
nodes = (
(244,48,l),
(244,652,l),
(97,652,l),
(97,48,l)
);
},
{
closed = 1;
nodes = (
(358,0,l),
(358,18,l),
(244,48,l),
(97,48,l),
(6,18,l),
(6,0,l)
);
},
{
closed = 1;
nodes = (
(460,339,l),
(460,383,l),
(162,383,l),
(162,339,l)
);
},
{
closed = 1;
nodes = (
(460,243,l),
(460,477,l),
(420,477,l),
(388,381,l),
(388,342,l),
(421,243,l)
);
},
{
closed = 1;
nodes = (
(535,651,l),
(535,700,l),
(6,700,l),
(6,682,l),
(97,652,l)
);
},
{
closed = 1;
nodes = (
(592,516,l),
(592,700,l),
(483,700,l),
(503,651,l),
(540,516,l)
);
}
);
width = 597;
}
);
unicode = 70;
},
{
glyphname = G;
layers = (
{
anchors = (
{
name = com;
pos = (406,-2);
},
{
name = top;
pos = (390,700);
}
);
layerId = m01;
shapes = (
{
closed = 1;
nodes = (
(486,-15,o),
(597,14,o),
(667,54,c),
(667,268,l),
(651,242,l),
(731,281,l),
(731,300,l),
(441,300,l),
(441,280,l),
(590,246,l),
(572,268,l),
(572,71,l),
(580,98,l),
(539,53,o),
(480,24,o),
(420,24,cs),
(258,24,o),
(144,186,o),
(144,415,cs),
(144,568,o),
(242,676,o),
(380,676,cs),
(508,676,o),
(599,603,o),
(599,500,c),
(637,500,l),
(637,648,l),
(612,662,o),
(584,675,o),
(554,685,cs),
(500,705,o),
(443,715,o),
(400,715,cs),
(186,713,o),
(35,561,o),
(35,347,cs),
(35,135,o),
(186,-15,o),
(400,-15,cs)
);
}
);
width = 737;
},
{
anchors = (
{
name = com;
pos = (406,-2);
},
{
name = top;
pos = (390,700);
}
);
layerId = m002;
shapes = (
{
closed = 1;
nodes = (
(511,-17,o),
(632,12,o),
(693,52,c),
(693,274,l),
(673,241,l),
(757,286,l),
(757,302,l),
(415,302,l),
(415,283,l),
(568,247,l),
(546,274,l),
(546,63,l),
(557,97,l),
(519,53,o),
(470,26,o),
(420,26,c),
(274,40,o),
(170,202,o),
(170,415,cs),
(170,567,o),
(257,674,o),
(380,674,cs),
(511,674,o),
(604,601,o),
(603,498,c),
(663,498,l),
(663,642,l),
(631,644,o),
(595,659,o),
(556,675,cs),
(508,695,o),
(455,717,o),
(402,717,cs),
(172,717,o),
(9,564,o),
(9,347,cs),
(9,134,o),
(172,-17,o),
(402,-17,cs)
);
}
);
width = 737;
},
{
anchors = (
{
name = com;
pos = (406,-2);
},
{
name = top;
pos = (390,700);
}
);
associatedMasterId = m01;
layerId = "39080339-8871-4078-9D60-13CA8196ECF6";
name = "1. Jan. 24, 22:59";
shapes = (
{
closed = 1;
nodes = (
(420,24,l),
(258,24,o),
(144,186,o),
(144,415,cs),
(144,568,o),
(242,676,o),
(380,676,c),
(400,715,l),
(186,713,o),
(35,561,o),
(35,347,cs),
(35,135,o),
(186,-15,o),
(400,-15,c)
);
},
{
closed = 1;
nodes = (
(486,-15,o),
(597,14,o),
(667,54,c),
(667,150,l),
(621,160,l),
(587,80,o),
(504,24,o),
(420,24,c),
(400,-15,l)
);
},
{
closed = 1;
nodes = (
(667,54,l),
(667,250,l),
(572,250,l),
(572,54,l)
);
},
{
closed = 1;
nodes = (
(667,250,l),
(731,281,l),
(731,300,l),
(441,300,l),
(441,280,l),
(572,250,l)
);
},
{
closed = 1;
nodes = (
(637,500,l),
(637,648,l),
(565,687,o),
(466,715,o),
(400,715,c),
(380,676,l),
(508,676,o),
(599,603,o),
(599,500,c)
);
}
);
width = 737;
},
{
associatedMasterId = m002;
layerId = "11360A5C-6B19-40F8-9BD5-E4C18F09AB9C";
name = "1. Jan. 24, 22:59";
shapes = (
{
closed = 1;
nodes = (
(420,26,l),
(274,40,o),
(170,202,o),
(170,415,cs),
(170,567,o),
(257,674,o),
(380,674,c),
(402,717,l),
(172,717,o),
(9,564,o),
(9,347,cs),
(9,134,o),
(172,-17,o),
(402,-17,c)
);
},
{
closed = 1;
nodes = (
(512,-17,o),
(632,12,o),
(693,52,c),
(693,148,l),
(600,168,l),
(567,85,o),
(493,26,o),
(420,26,c),
(402,-17,l)
);
},
{
closed = 1;
nodes = (
(693,52,l),
(693,252,l),
(546,252,l),
(546,52,l)
);
},
{
closed = 1;
nodes = (
(693,252,l),
(757,286,l),
(757,302,l),
(415,302,l),
(415,283,l),
(546,252,l)
);
},
{
closed = 1;
nodes = (
(663,498,l),
(663,642,l),
(591,647,o),
(497,717,o),
(402,717,c),
(380,674,l),
(511,674,o),
(604,601,o),
(603,498,c)
);
}
);
width = 737;
}
);
unicode = 71;
},
{
glyphname = H;
layers = (
{
anchors = (
{
name = top;
pos = (408,700);
}
);
layerId = m01;
shapes = (
{
closed = 1;
nodes = (
(513,20,l),
(513,0,l),
(793,0,l),
(793,19,l),
(682,56,l),
(699,32,l),
(699,668,l),
(682,644,l),
(793,681,l),
(793,700,l),
(513,700,l),
(513,680,l),
(621,644,l),
(604,668,l),
(604,357,l),
(622,375,l),
(196,375,l),
(214,357,l),
(214,668,l),
(197,644,l),
(308,681,l),
(308,700,l),
(28,700,l),
(28,680,l),
(136,644,l),
(119,668,l),
(119,32,l),
(136,56,l),
(28,20,l),
(28,0,l),
(308,0,l),
(308,19,l),
(197,56,l),
(214,32,l),
(214,353,l),
(196,335,l),
(622,335,l),
(604,353,l),
(604,32,l),
(621,56,l)
);
}
);
width = 821;
},
{
anchors = (
{
name = top;
pos = (408,700);
}
);
layerId = m002;
shapes = (
{
closed = 1;
nodes = (
(487,18,l),
(487,0,l),
(819,0,l),
(819,17,l),
(704,55,l),
(725,26,l),
(725,674,l),
(704,645,l),
(819,683,l),
(819,700,l),
(487,700,l),
(487,682,l),
(599,645,l),
(578,674,l),
(578,355,l),
(600,377,l),
(218,377,l),
(240,355,l),
(240,674,l),
(219,645,l),
(334,683,l),
(334,700,l),
(2,700,l),
(2,682,l),
(114,645,l),
(93,674,l),
(93,26,l),
(114,55,l),
(2,18,l),
(2,0,l),
(334,0,l),
(334,17,l),
(219,55,l),
(240,26,l),
(240,355,l),
(218,333,l),
(600,333,l),
(578,355,l),
(578,26,l),
(599,55,l)
);
}
);
width = 821;
},
{
associatedMasterId = m01;
layerId = "015B11CA-0731-4F8C-9479-89012C1F2E0D";
name = "1. Jan. 24, 23:01";
shapes = (
{
closed = 1;
nodes = (
(699,50,l),
(699,650,l),
(604,650,l),
(604,50,l)
);
},
{
closed = 1;
nodes = (
(308,0,l),
(308,19,l),
(214,50,l),
(119,50,l),
(28,20,l),
(28,0,l)
);
},
{
closed = 1;
nodes = (
(214,50,l),
(214,650,l),
(119,650,l),
(119,50,l)
);
},
{
closed = 1;
nodes = (
(793,0,l),
(793,19,l),
(699,50,l),
(604,50,l),
(513,20,l),
(513,0,l)
);
},
{
closed = 1;
nodes = (
(649,335,l),
(649,375,l),
(163,375,l),
(163,335,l)
);
},
{
closed = 1;
nodes = (
(214,650,l),
(308,681,l),
(308,700,l),
(28,700,l),
(28,680,l),
(119,650,l)
);
},
{
closed = 1;
nodes = (
(699,650,l),
(793,681,l),
(793,700,l),
(513,700,l),
(513,680,l),
(604,650,l)
);
}
);
width = 821;
},
{
anchors = (
{
name = top;
pos = (408,700);
}
);
associatedMasterId = m002;
layerId = "13EECDF3-9D25-44BC-BE26-269D37A66751";
name = "1. Jan. 24, 23:01";
shapes = (
{
closed = 1;
nodes = (
(725,48,l),
(725,652,l),
(578,652,l),
(578,48,l)
);
},
{
closed = 1;
nodes = (
(334,0,l),
(334,17,l),
(240,48,l),
(93,48,l),
(2,18,l),
(2,0,l)
);
},
{
closed = 1;
nodes = (
(240,48,l),
(240,652,l),
(93,652,l),
(93,48,l)
);
},
{
closed = 1;
nodes = (
(819,0,l),
(819,17,l),
(725,48,l),
(578,48,l),
(487,18,l),
(487,0,l)
);
},
{
closed = 1;
nodes = (
(675,333,l),
(675,377,l),
(137,377,l),
(137,333,l)
);
},
{
closed = 1;
nodes = (
(240,652,l),
(334,683,l),
(334,700,l),
(2,700,l),
(2,682,l),
(93,652,l)
);
},
{
closed = 1;
nodes = (
(725,652,l),
(819,683,l),
(819,700,l),
(487,700,l),
(487,682,l),
(578,652,l)
);
}
);
width = 821;
}
);
unicode = 72;
},
{
glyphname = Hbar;
layers = (
{
layerId = m01;
shapes = (
{
closed = 1;
nodes = (
(765,519,l),
(765,559,l),
(47,559,l),
(47,519,l)
);
},
{
ref = H;
}
);
width = 821;
},
{
layerId = m002;
shapes = (
{
closed = 1;
nodes = (
(791,517,l),
(791,561,l),
(21,561,l),
(21,517,l)
);
},
{
ref = H;
}
);
width = 821;
}
);
unicode = 294;
},
{
glyphname = I;
layers = (
{
anchors = (
{
name = top;
pos = (170,700);
}
);
layerId = m01;
shapes = (
{
closed = 1;
nodes = (
(308,0,l),
(308,19,l),
(197,56,l),
(214,32,l),
(214,668,l),
(197,644,l),
(308,681,l),
(308,700,l),
(28,700,l),
(28,680,l),
(136,644,l),
(119,668,l),
(119,32,l),
(136,56,l),
(28,20,l),
(28,0,l)
);
}
);
width = 336;
},
{
anchors = (
{
name = top;
pos = (168,700);
}
);
layerId = m002;
shapes = (
{
closed = 1;
nodes = (
(334,0,l),
(334,17,l),
(219,55,l),
(240,26,l),
(240,674,l),
(219,645,l),
(334,685,l),
(334,700,l),
(2,700,l),
(2,684,l),
(114,645,l),
(93,674,l),
(93,26,l),
(114,55,l),
(2,18,l),
(2,0,l)
);
}
);
width = 336;
},
{
associatedMasterId = m01;
layerId = "49E4F5FA-D472-467A-A455-43EB5AEC2C01";
name = "1. Jan. 24, 20:52";
shapes = (
{
closed = 1;
nodes = (
(214,50,l),
(214,650,l),
(119,650,l),
(119,50,l)
);
},
{
closed = 1;
nodes = (
(308,0,l),
(308,19,l),
(214,50,l),
(119,50,l),
(28,20,l),
(28,0,l)
);
},
{
closed = 1;
nodes = (
(214,650,l),
(308,681,l),
(308,700,l),
(28,700,l),
(28,680,l),
(119,650,l)
);
}
);
width = 336;
},
{
anchors = (
{
name = top;
pos = (168,700);
}
);
associatedMasterId = m002;
layerId = "EDD0BAD4-FB64-462E-8893-255A7BF4DD1F";
name = "1. Jan. 24, 23:03";
shapes = (
{
closed = 1;
nodes = (
(240,48,l),
(240,652,l),
(93,652,l),
(93,48,l)
);
},
{
closed = 1;
nodes = (
(334,0,l),
(334,17,l),
(240,48,l),
(93,48,l),
(2,18,l),
(2,0,l)
);
},
{
closed = 1;
nodes = (
(240,652,l),
(334,685,l),
(334,700,l),
(2,700,l),
(2,684,l),
(93,652,l)
);
}
);
width = 336;
}
);
unicode = 73;
},
{
glyphname = J;
layers = (
{
anchors = (
{
name = top;
pos = (172,699);
}
);
layerId = m01;
shapes = (
{
closed = 1;
nodes = (
(129,49,ls),
(129,-52,o),
(90,-148,o),
(36,-184,c),
(57,-214,l),
(155,-131,o),
(224,-22,o),
(224,50,cs),
(224,668,l),
(207,644,l),
(318,681,l),
(318,700,l),
(38,700,l),
(38,680,l),
(146,644,l),
(129,668,l)
);
}
);
width = 356;
},
{
anchors = (
{
name = top;
pos = (161,700);
}
);
layerId = m002;
shapes = (
{
closed = 1;
nodes = (
(86,49,ls),
(86,-61,o),
(42,-165,o),
(-2,-186,c),
(33,-235,l),
(161,-194,o),
(234,-24,o),
(233,50,cs),
(233,674,l),
(212,645,l),
(327,683,l),
(327,700,l),
(-5,700,l),
(-5,682,l),
(107,645,l),
(86,674,l)
);
}
);
width = 336;
},
{
associatedMasterId = m01;
layerId = "EA68FA7A-9618-49FA-9D4F-F52FF8FE96E9";
name = "1. Jan. 24, 23:36";
shapes = (
{
closed = 1;
nodes = (
(224,50,l),
(224,650,l),
(129,650,l),
(129,50,l)
);
},
{
closed = 1;
nodes = (
(155,-131,o),
(224,-22,o),
(224,50,c),
(129,50,l),
(129,49,ls),
(129,-52,o),
(90,-148,o),
(36,-184,c),
(57,-214,l)
);
},
{
closed = 1;
nodes = (
(224,650,l),
(318,681,l),
(318,700,l),
(38,700,l),
(38,680,l),
(129,650,l)
);
}
);
width = 356;
},
{
anchors = (
{
name = top;
pos = (178,700);
}
);
associatedMasterId = m002;
layerId = "24CC7404-D414-42DD-935B-3561D60CAF05";
name = "1. Jan. 24, 23:36";
shapes = (
{
closed = 1;
nodes = (
(250,50,l),
(250,652,l),
(103,652,l),
(103,50,l)
);
},
{
closed = 1;
nodes = (
(178,-194,o),
(251,-24,o),
(250,50,c),
(103,50,l),
(103,49,ls),
(103,-61,o),
(59,-165,o),
(15,-186,c),
(50,-235,l)
);
},
{
closed = 1;
nodes = (
(250,652,l),
(344,683,l),
(344,700,l),
(12,700,l),
(12,682,l),
(103,652,l)
);
}
);
width = 356;
}
);
unicode = 74;
},
{
glyphname = K;
layers = (
{
anchors = (
{
name = com;
pos = (371,-2);
},
{
name = top;
pos = (376,700);
}
);
layerId = m01;
shapes = (
{
closed = 1;
nodes = (
(706,0,l),
(706,19,l),
(605,56,l),
(633,36,l),
(329,419,l),
(327,392,l),
(605,663,l),
(575,645,l),
(696,681,l),
(696,700,l),
(449,700,l),
(449,680,l),
(534,656,l),
(529,674,l),
(202,333,l),
(214,328,l),
(214,668,l),
(197,644,l),
(308,681,l),
(308,700,l),
(28,700,l),
(28,680,l),
(136,644,l),
(119,668,l),
(119,32,l),
(136,56,l),
(28,20,l),
(28,0,l),
(298,0,l),
(298,19,l),
(197,56,l),
(214,32,l),
(214,300,l),
(201,270,l),
(279,344,l),
(255,346,l),
(525,0,l)
);
}
);
width = 706;
},
{
anchors = (
{
name = com;
pos = (381,-2);
},
{
name = top;
pos = (388,700);
}
);
layerId = m002;
shapes = (
{
closed = 1;
nodes = (
(732,0,l),
(732,17,l),
(625,53,l),
(660,28,l),
(347,424,l),
(345,390,l),
(627,666,l),
(589,644,l),
(722,683,l),
(722,700,l),
(453,700,l),
(453,681,l),
(554,662,l),
(548,682,l),
(224,347,l),
(240,341,l),
(240,674,l),
(219,645,l),
(334,683,l),
(334,700,l),
(2,700,l),
(2,682,l),
(114,645,l),
(93,674,l),
(93,26,l),
(114,55,l),
(2,18,l),
(2,0,l),
(324,0,l),
(324,17,l),
(219,56,l),
(240,26,l),
(240,310,l),
(224,272,l),
(278,326,l),
(248,328,l),
(505,0,l)
);
}
);
width = 686;
},
{
anchors = (
{
name = com;
pos = (371,-2);
}
);
associatedMasterId = m01;
layerId = "CC59FA57-BAA4-40BA-AF5D-2647D80AD5E9";
name = "1. Jan. 24, 23:38";
shapes = (
{
closed = 1;
nodes = (
(706,0,l),
(706,19,l),
(622,50,l),
(337,409,l),
(247,356,l),
(525,0,l)
);
},
{
closed = 1;
nodes = (
(298,0,l),
(298,19,l),
(214,50,l),
(119,50,l),
(28,20,l),
(28,0,l)
);
},
{
closed = 1;
nodes = (
(214,50,l),
(214,650,l),
(119,650,l),
(119,50,l)
);
},
{
closed = 1;
nodes = (
(214,650,l),
(308,681,l),
(308,700,l),
(28,700,l),
(28,680,l),
(119,650,l)
);
},
{
closed = 1;
nodes = (
(592,650,l),
(517,661,l),
(179,310,l),
(209,277,l)
);
},
{
closed = 1;
nodes = (
(696,681,l),
(696,700,l),
(449,700,l),
(449,680,l),
(517,661,l),
(592,650,l)
);
}
);
width = 706;
},
{
anchors = (
{
name = top;
pos = (388,700);
}
);
associatedMasterId = m002;
layerId = "C2104DED-5995-4D85-A7B1-0516DB3567B3";
name = "1. Jan. 24, 23:38";
shapes = (
{
closed = 1;
nodes = (
(732,0,l),
(732,17,l),
(646,46,l),
(346,424,l),
(227,354,l),
(505,0,l)
);
},
{
closed = 1;
nodes = (
(324,0,l),
(324,17,l),
(240,48,l),
(93,48,l),
(2,18,l),
(2,0,l)
);
},
{
closed = 1;
nodes = (
(240,48,l),
(240,652,l),
(93,652,l),
(93,48,l)
);
},
{
closed = 1;
nodes = (
(240,652,l),
(334,683,l),
(334,700,l),
(2,700,l),
(2,682,l),
(93,652,l)
);
},
{
closed = 1;
nodes = (
(611,650,l),
(532,666,l),
(189,310,l),
(207,256,l)
);
},
{
closed = 1;
nodes = (
(722,683,l),
(722,700,l),
(453,700,l),
(453,681,l),
(532,666,l),
(611,650,l)
);
}
);
width = 706;
}
);
unicode = 75;
},
{
glyphname = L;
layers = (
{
anchors = (
{
name = com;
pos = (321,-2);
},
{
name = top;
pos = (285,689);
}
);
layerId = m01;
shapes = (
{
closed = 1;
nodes = (
(28,20,l),
(28,0,l),
(565,0,l),
(600,197,l),
(581,204,l),
(492,34,l),
(518,50,l),
(196,50,l),
(214,32,l),
(214,668,l),
(197,644,l),
(308,681,l),
(308,700,l),
(28,700,l),
(28,680,l),
(136,644,l),
(119,668,l),
(119,32,l),
(136,56,l)
);
}
);
width = 630;
},
{
anchors = (
{
name = com;
pos = (340,-2);
},
{
name = top;
pos = (180,700);
}
);
layerId = m002;
shapes = (
{
closed = 1;
nodes = (
(2,18,l),
(2,0,l),
(590,0,l),
(625,195,l),
(584,218,l),
(485,28,l),
(517,48,l),
(218,48,l),
(240,26,l),
(240,674,l),
(219,645,l),
(334,683,l),
(334,700,l),
(2,700,l),
(2,682,l),
(114,645,l),
(93,674,l),
(93,26,l),
(114,55,l)
);
}
);
width = 650;
},
{
anchors = (
{
name = com;
pos = (321,-2);
}
);
associatedMasterId = m01;
layerId = "15B2B194-3F3C-42B8-A99A-468384793481";
name = "1. Jan. 24, 23:40";
shapes = (
{
closed = 1;
nodes = (
(214,50,l),
(214,650,l),
(119,650,l),
(119,50,l)
);
},
{
closed = 1;
nodes = (
(500,0,l),
(500,50,l),
(119,50,l),
(28,20,l),
(28,0,l)
);
},
{
closed = 1;
nodes = (
(565,0,l),
(600,197,l),
(581,204,l),
(500,50,l),
(500,0,l)
);
},
{
closed = 1;
nodes = (
(214,650,l),
(308,681,l),
(308,700,l),
(28,700,l),
(28,680,l),
(119,650,l)
);
}
);
width = 630;
},
{
anchors = (
{
name = top;
pos = (180,700);
}
);
associatedMasterId = m002;
layerId = "9DC64EDA-F9D6-4180-8DB6-AB35DEE6E5B5";
name = "1. Jan. 24, 23:40";
shapes = (
{
closed = 1;
nodes = (
(240,48,l),
(240,652,l),
(93,652,l),
(93,48,l)
);
},
{
closed = 1;
nodes = (
(526,0,l),
(526,48,l),
(93,48,l),
(2,18,l),
(2,0,l)
);
},
{
closed = 1;
nodes = (
(590,0,l),
(625,195,l),
(584,218,l),
(494,47,l),
(474,0,l)
);
},
{
closed = 1;
nodes = (
(240,652,l),
(334,683,l),
(334,700,l),
(2,700,l),
(2,682,l),
(93,652,l)
);
}
);
width = 630;
}
);
unicode = 76;
},
{
glyphname = Lslash;
layers = (
{
layerId = m01;
shapes = (
{
closed = 1;
nodes = (
(319,414,l),
(299,453,l),
(17,300,l),
(37,261,l)
);
},
{
ref = L;
}
);
width = 600;
},
{
layerId = m002;
shapes = (
{
closed = 1;
nodes = (
(341,417,l),
(314,470,l),
(-5,297,l),
(22,244,l)
);
},
{
ref = L;
}
);
width = 600;
}
);
unicode = 321;
},
{
glyphname = M;
layers = (
{
anchors = (
{
name = top;
pos = (437,667);
}
);
layerId = m01;
shapes = (
{
closed = 1;
nodes = (
(723,604,l),
(716,606,l),
(716,32,l),
(733,56,l),
(625,20,l),
(625,0,l),
(895,0,l),
(895,19,l),
(794,56,l),
(811,32,l),
(811,668,l),
(794,644,l),
(905,681,l),
(905,700,l),
(715,700,l),
(451,122,l),
(466,122,l),
(195,700,l),
(28,700,l),
(28,683,l),
(136,644,l),
(119,668,l),
(119,32,l),
(136,56,l),
(28,20,l),
(28,0,l),
(248,0,l),
(248,19,l),
(147,56,l),
(164,32,l),
(164,580,l),
(156,578,l),
(437,-26,l)
);
}
);
width = 926;
},
{
anchors = (
{
name = top;
pos = (473,700);
}
);
layerId = m002;
shapes = (
{
closed = 1;
nodes = (
(699,555,l),
(690,556,l),
(690,26,l),
(711,55,l),
(599,18,l),
(599,0,l),
(921,0,l),
(921,17,l),
(816,56,l),
(837,26,l),
(837,674,l),
(816,645,l),
(931,683,l),
(931,700,l),
(691,697,l),
(469,169,l),
(488,170,l),
(218,700,l),
(2,700,l),
(2,685,l),
(114,644,l),
(93,674,l),
(93,26,l),
(114,55,l),
(2,18,l),
(2,0,l),
(237,0,l),
(237,17,l),
(132,56,l),
(153,26,l),
(153,566,l),
(143,564,l),
(445,-38,l)
);
}
);
width = 936;
},
{
associatedMasterId = m01;
layerId = "39CD48C5-5A51-4231-9B38-8D14C79DB35E";
name = "1. Jan. 24, 23:44";
shapes = (
{
closed = 1;
nodes = (
(767,700,l),
(715,700,l),
(458,138,l),
(195,700,l),
(100,700,l),
(437,-26,l)
);
},
{
closed = 1;
nodes = (
(248,0,l),
(248,19,l),
(164,50,l),
(119,50,l),
(28,20,l),
(28,0,l)
);
},
{
closed = 1;
nodes = (
(164,50,l),
(164,650,l),
(119,650,l),
(119,50,l)
);
},
{
closed = 1;
nodes = (
(164,650,l),
(164,700,l),
(28,700,l),
(28,683,l),
(119,650,l)
);
},
{
closed = 1;
nodes = (
(895,0,l),
(895,19,l),
(811,50,l),
(716,50,l),
(625,20,l),
(625,0,l)
);
},
{
closed = 1;
nodes = (
(811,50,l),
(811,650,l),
(716,650,l),
(716,50,l)
);
},
{
closed = 1;
nodes = (
(811,650,l),
(905,681,l),
(905,700,l),
(717,700,l),
(716,650,l)
);
}
);
width = 926;
},
{
anchors = (
{
name = top;
pos = (473,700);
}
);
associatedMasterId = m002;
layerId = "399B6911-5AAA-4ADE-9264-088C5FF97443";
name = "1. Jan. 24, 23:44";
shapes = (
{
closed = 1;
nodes = (
(761,700,l),
(692,700,l),
(478,190,l),
(218,700,l),
(75,700,l),
(445,-38,l)
);
},
{
closed = 1;
nodes = (
(237,0,l),
(237,17,l),
(153,48,l),
(93,48,l),
(2,18,l),
(2,0,l)
);
},
{
closed = 1;
nodes = (
(153,48,l),
(153,652,l),
(93,652,l),
(93,48,l)
);
},
{
closed = 1;
nodes = (
(190,646,l),
(190,700,l),
(2,700,l),
(2,685,l),
(110,646,l)
);
},
{
closed = 1;
nodes = (
(921,0,l),
(921,17,l),
(837,48,l),
(690,48,l),
(599,18,l),
(599,0,l)
);
},
{
closed = 1;
nodes = (
(837,48,l),
(837,652,l),
(690,652,l),
(690,48,l)
);
},
{
closed = 1;
nodes = (
(837,652,l),
(931,683,l),
(931,700,l),
(691,700,l),
(690,652,l)
);
}
);
width = 926;
}
);
unicode = 77;
},
{
glyphname = N;
layers = (
{
anchors = (
{
name = com;
pos = (401,-2);
},
{
name = top;
pos = (398,700);
}
);
layerId = m01;
shapes = (
{
closed = 1;
nodes = (
(679,668,l),
(662,644,l),
(773,681,l),
(773,700,l),
(543,700,l),
(543,680,l),
(651,644,l),
(634,668,l),
(634,163,l),
(646,167,l),
(198,700,l),
(8,700,l),
(8,680,l),
(116,644,l),
(99,668,l),
(99,32,l),
(116,56,l),
(8,20,l),
(8,0,l),
(238,0,l),
(238,19,l),
(127,56,l),
(144,32,l),
(144,625,l),
(132,621,l),
(679,-25,l)
);
}
);
width = 781;
},
{
anchors = (
{
name = com;
pos = (413,1);
},
{
name = top;
pos = (398,700);
}
);
layerId = m002;
shapes = (
{
closed = 1;
nodes = (
(664,674,l),
(643,645,l),
(758,683,l),
(758,700,l),
(503,700,l),
(503,682,l),
(615,645,l),
(594,674,l),
(594,234,l),
(608,239,l),
(226,700,l),
(1,700,l),
(1,682,l),
(113,645,l),
(92,674,l),
(92,26,l),
(113,55,l),
(1,18,l),
(1,0,l),
(256,0,l),
(256,17,l),
(141,55,l),
(162,26,l),
(162,600,l),
(148,595,l),
(664,-28,l)
);
}
);
width = 759;
},
{
anchors = (
{
name = com;
pos = (401,-2);
},
{
name = top;
pos = (398,700);
}
);
associatedMasterId = m01;
layerId = "E8A2BD06-0712-47D5-8A4F-C996E068F001";
name = "1. Jan. 24, 23:45";
shapes = (
{
closed = 1;
nodes = (
(679,127,l),
(198,700,l),
(65,700,l),
(679,-25,l)
);
},
{
closed = 1;
nodes = (
(238,0,l),
(238,19,l),
(144,50,l),
(99,50,l),
(8,20,l),
(8,0,l)
);
},
{
closed = 1;
nodes = (
(144,50,l),
(144,650,l),
(99,650,l),
(99,50,l)
);
},
{
closed = 1;
nodes = (
(144,650,l),
(144,700,l),
(8,700,l),
(8,680,l),
(99,650,l)
);
},
{
closed = 1;
nodes = (
(679,120,l),
(679,650,l),
(634,650,l),
(634,120,l)
);
},
{
closed = 1;
nodes = (
(679,650,l),
(773,681,l),
(773,700,l),
(543,700,l),
(543,680,l),
(634,650,l)
);
}
);
width = 781;
},
{
anchors = (
{
name = top;
pos = (398,700);
}
);
associatedMasterId = m002;
layerId = "D23D4B0E-519D-410D-BF13-56543B063D8D";
name = "1. Jan. 24, 23:46";
shapes = (
{
closed = 1;
nodes = (
(664,171,l),
(226,700,l),
(61,700,l),
(664,-28,l)
);
},
{
closed = 1;
nodes = (
(256,0,l),
(256,17,l),
(162,48,l),
(92,48,l),
(1,18,l),
(1,0,l)
);
},
{
closed = 1;
nodes = (
(162,48,l),
(162,652,l),
(92,652,l),
(92,48,l)
);
},
{
closed = 1;
nodes = (
(179,652,l),
(179,700,l),
(1,700,l),
(1,682,l),
(92,652,l)
);
},
{
closed = 1;
nodes = (
(664,118,l),
(664,652,l),
(594,652,l),
(594,118,l)
);
},
{
closed = 1;
nodes = (
(664,652,l),
(758,683,l),
(758,700,l),
(503,700,l),
(503,682,l),
(594,652,l)
);
}
);
width = 759;
}
);
unicode = 78;
},
{
color = 1;
glyphname = Eng;
layers = (
{
layerId = m01;
shapes = (
{
closed = 1;
nodes = (
(508,115,ls),
(508,54,o),
(483,11,o),
(447,11,cs),
(426,11,o),
(398,32,o),
(380,62,c),
(316,21,l),
(340,1,o),
(387,-14,o),
(429,-14,cs),
(528,-14,o),
(598,54,o),
(598,151,cs),
(598,505,ls),
(598,624,o),
(525,709,o),
(393,709,cs),
(309,709,o),
(242,664,o),
(180,599,c),
(189,590,l),
(189,700,l),
(8,700,l),
(8,680,l),
(116,644,l),
(99,668,l),
(99,32,l),
(116,56,l),
(8,20,l),
(8,0,l),
(263,0,l),
(263,19,l),
(172,57,l),
(189,32,l),
(189,579,l),
(180,551,l),
(235,614,o),
(289,658,o),
(362,658,cs),
(459,658,o),
(508,583,o),
(508,477,cs)
);
}
);
width = 686;
},
{
layerId = m002;
shapes = (
{
closed = 1;
nodes = (
(542,115,ls),
(542,49,o),
(521,13,o),
(507,13,cs),
(500,13,o),
(481,29,o),
(452,81,c),
(358,20,l),
(376,4,o),
(438,-16,o),
(489,-16,cs),
(601,-16,o),
(684,52,o),
(684,151,cs),
(684,505,ls),
(684,629,o),
(598,711,o),
(453,711,cs),
(376,711,o),
(314,680,o),
(264,639,c),
(277,626,l),
(270,702,l),
(62,702,l),
(62,674,l),
(154,635,l),
(133,666,l),
(133,24,l),
(154,53,l),
(42,16,l),
(42,-2,l),
(329,-2,l),
(329,14,l),
(255,56,l),
(275,23,l),
(275,589,l),
(260,551,l),
(324,623,o),
(366,656,o),
(422,656,cs),
(498,656,o),
(542,588,o),
(542,477,cs)
);
}
);
width = 759;
},
{
associatedMasterId = m01;
layerId = "0F2D05D5-6E5C-46B9-8B3C-5DD271D069A4";
name = "1. Jan. 24, 21:14";
shapes = (
{
closed = 1;
nodes = (
(223,700,l),
(65,700,l)
);
},
{
closed = 1;
nodes = (
(263,0,l),
(263,19,l),
(189,50,l),
(99,50,l),
(8,20,l),
(8,0,l)
);
},
{
closed = 1;
nodes = (
(189,50,l),
(189,650,l),
(99,650,l),
(99,50,l)
);
},
{
closed = 1;
nodes = (
(189,650,l),
(189,700,l),
(8,700,l),
(8,680,l),
(99,650,l)
);
},
{
closed = 1;
nodes = (
(170,539,l),
(229,609,o),
(285,658,o),
(362,658,cs),
(459,658,o),
(508,583,o),
(508,477,cs),
(508,211,l),
(598,211,l),
(598,505,ls),
(598,624,o),
(525,709,o),
(393,709,cs),
(304,709,o),
(235,659,o),
(170,588,c)
);
},
{
closed = 1;
nodes = (
(508,211,l),
(508,115,l),
(508,54,o),
(483,11,o),
(447,11,cs),
(426,11,o),
(398,32,o),
(380,62,c),
(316,21,l),
(340,1,o),
(387,-14,o),
(429,-14,cs),
(528,-14,o),
(598,54,o),
(598,151,cs),
(598,211,l)
);
}
);
width = 642;
}
);
unicode = 330;
},
{
glyphname = O;
layers = (
{
anchors = (
{
name = top;
pos = (366,700);
}
);
layerId = m01;
shapes = (
{
closed = 1;
nodes = (
(574,-15,o),
(715,139,o),
(715,357,cs),
(715,567,o),
(574,715,o),
(374,715,cs),
(175,715,o),
(35,563,o),
(35,347,cs),
(35,135,o),
(175,-15,o),
(374,-15,cs)
);
},
{
closed = 1;
nodes = (
(234,23,o),
(144,163,o),
(144,415,cs),
(144,583,o),
(218,676,o),
(351,676,cs),
(515,676,o),
(606,537,o),
(606,286,cs),
(606,117,o),
(531,23,o),
(397,23,cs)
);
}
);
width = 750;
},
{
anchors = (
{
name = top;
pos = (358,700);
}
);
layerId = m002;
shapes = (
{
closed = 1;
nodes = (
(586,-17,o),
(741,134,o),
(741,357,cs),
(741,573,o),
(584,717,o),
(374,717,cs),
(164,717,o),
(9,569,o),
(9,347,cs),
(9,130,o),
(164,-17,o),
(374,-17,cs)
);
},
{
closed = 1;
nodes = (
(255,25,o),
(170,158,o),
(170,415,cs),
(170,589,o),
(238,674,o),
(351,674,cs),
(494,674,o),
(580,542,o),
(580,286,cs),
(580,111,o),
(511,25,o),
(397,25,cs)
);
}
);
width = 770;
}
);
unicode = 79;
},
{
glyphname = Oslash;
layers = (
{
layerId = m01;
shapes = (
{
closed = 1;
nodes = (
(66,-54,l),
(714,726,l),
(683,753,l),
(35,-27,l)
);
},
{
ref = O;
}
);
width = 750;
},
{
layerId = m002;
shapes = (
{
closed = 1;
nodes = (
(108,-29,l),
(737,728,l),
(641,728,l),
(12,-29,l)
);
},
{
ref = O;
}
);
width = 750;
}
);
unicode = 216;
},
{
glyphname = OE;
layers = (
{
layerId = m01;
shapes = (
{
closed = 1;
nodes = (
(478,-15,o),
(567,27,o),
(628,99,c),
(620,108,l),
(620,0,l),
(1066,0,l),
(1101,197,l),
(1082,204,l),
(993,34,l),
(1019,50,l),
(697,50,l),
(715,32,l),
(715,359,l),
(697,341,l),
(909,341,l),
(885,358,l),
(922,245,l),
(941,245,l),
(941,475,l),
(921,475,l),
(886,364,l),
(909,381,l),
(697,381,l),
(715,363,l),
(715,668,l),
(697,650,l),
(1024,650,l),
(1001,667,l),
(1042,520,l),
(1063,520,l),
(1063,700,l),
(620,700,l),
(620,596,l),
(628,605,l),
(568,675,o),
(478,715,o),
(374,715,cs),
(175,715,o),
(35,563,o),
(35,347,cs),
(35,135,o),
(175,-15,o),
(374,-15,cs)
);
},
{
closed = 1;
nodes = (
(144,583,o),
(218,676,o),
(351,676,cs),
(515,676,o),
(606,537,o),
(606,286,cs),
(606,117,o),
(531,23,o),
(397,23,cs),
(234,23,o),
(144,163,o),
(144,415,cs)
);
}
);
width = 1146;
},
{
layerId = m002;
shapes = (
{
closed = 1;
nodes = (
(463,-17,o),
(544,10,o),
(605,59,c),
(594,72,l),
(594,-2,l),
(1091,-2,l),
(1126,193,l),
(1085,216,l),
(989,32,l),
(1021,52,l),
(719,52,l),
(741,30,l),
(741,361,l),
(719,339,l),
(908,339,l),
(879,360,l),
(918,243,l),
(967,243,l),
(967,477,l),
(917,477,l),
(879,362,l),
(908,383,l),
(719,383,l),
(741,361,l),
(741,670,l),
(719,648,l),
(1023,648,l),
(995,670,l),
(1037,518,l),
(1089,518,l),
(1089,702,l),
(594,702,l),
(594,630,l),
(605,644,l),
(544,691,o),
(463,717,o),
(374,717,cs),
(164,717,o),
(9,569,o),
(9,347,cs),
(9,130,o),
(164,-17,o),
(374,-17,cs)
);
},
{
closed = 1;
nodes = (
(170,589,o),
(238,674,o),
(351,674,cs),
(494,674,o),
(580,542,o),
(580,286,cs),
(580,111,o),
(511,25,o),
(397,25,cs),
(255,25,o),
(170,158,o),
(170,415,cs)
);
}
);
width = 1146;
},
{
associatedMasterId = m01;
layerId = "E029D7F6-61DA-46A0-ABD4-00802109ADA1";
name = "2. Jan. 24, 01:04";
shapes = (
{
closed = 1;
nodes = (
(574,-15,o),
(715,139,o),
(715,357,cs),
(715,567,o),
(574,715,o),
(374,715,cs),
(175,715,o),
(35,563,o),
(35,347,cs),
(35,135,o),
(175,-15,o),
(374,-15,cs)
);
},
{
closed = 1;
nodes = (
(234,23,o),
(144,163,o),
(144,415,cs),
(144,583,o),
(218,676,o),
(351,676,cs),
(515,676,o),
(606,537,o),
(606,286,cs),
(606,117,o),
(531,23,o),
(397,23,cs)
);
},
{
closed = 1;
nodes = (
(1001,0,l),
(1001,50,l),
(620,50,l),
(620,0,l)
);
},
{
closed = 1;
nodes = (
(715,50,l),
(715,650,l),
(620,650,l),
(620,50,l)
);
},
{
closed = 1;
nodes = (
(1066,0,l),
(1101,197,l),
(1082,204,l),
(1001,50,l),
(1001,0,l)
);
},
{
closed = 1;
nodes = (
(941,341,l),
(941,381,l),
(685,381,l),
(685,341,l)
);
},
{
closed = 1;
nodes = (
(941,245,l),
(941,475,l),
(921,475,l),
(891,384,l),
(891,339,l),
(922,245,l)
);
},
{
closed = 1;
nodes = (
(1006,650,l),
(1006,700,l),
(620,700,l),
(620,650,l)
);
},
{
closed = 1;
nodes = (
(1063,520,l),
(1063,700,l),
(1006,700,l),
(1006,650,l),
(1042,520,l)
);
}
);
width = 1146;
},
{
associatedMasterId = m002;
layerId = "ED8D9B8A-211A-4B23-8D68-D2A1FC5A2D17";
name = "2. Jan. 24, 01:04";
shapes = (
{
closed = 1;
nodes = (
(586,-17,o),
(741,134,o),
(741,357,cs),
(741,573,o),
(584,717,o),
(374,717,cs),
(164,717,o),
(9,569,o),
(9,347,cs),
(9,130,o),
(164,-17,o),
(374,-17,cs)
);
},
{
closed = 1;
nodes = (
(255,25,o),
(170,158,o),
(170,415,cs),
(170,589,o),
(238,674,o),
(351,674,cs),
(494,674,o),
(580,542,o),
(580,286,cs),
(580,111,o),
(511,25,o),
(397,25,cs)
);
},
{
closed = 1;
nodes = (
(1027,-2,l),
(1027,52,l),
(594,52,l),
(594,-2,l)
);
},
{
closed = 1;
nodes = (
(741,48,l),
(741,652,l),
(594,652,l),
(594,48,l)
);
},
{
closed = 1;
nodes = (
(1091,-2,l),
(1126,193,l),
(1085,216,l),
(995,45,l),
(975,-2,l)
);
},
{
closed = 1;
nodes = (
(967,339,l),
(967,383,l),
(659,383,l),
(659,339,l)
);
},
{
closed = 1;
nodes = (
(967,243,l),
(967,477,l),
(917,477,l),
(885,381,l),
(885,342,l),
(918,243,l)
);
},
{
closed = 1;
nodes = (
(1032,648,l),
(1032,702,l),
(594,702,l),
(594,648,l)
);
},
{
closed = 1;
nodes = (
(1089,518,l),
(1089,702,l),
(980,702,l),
(1000,653,l),
(1037,518,l)
);
}
);
width = 1146;
}
);
unicode = 338;
},
{
glyphname = P;
layers = (
{
anchors = (
{
name = top;
pos = (288,700);
}
);
layerId = m01;
shapes = (
{
closed = 1;
nodes = (
(439,300,o),
(546,388,o),
(546,527,cs),
(546,628,o),
(452,700,o),
(318,700,cs),
(28,700,l),
(28,680,l),
(136,644,l),
(119,668,l),
(119,32,l),
(136,56,l),
(28,20,l),
(28,0,l),
(318,0,l),
(318,20,l),
(197,55,l),
(214,32,l),
(214,318,l),
(196,300,l),
(268,300,ls)
);
},
{
closed = 1;
nodes = (
(214,668,l),
(196,650,l),
(288,650,ls),
(375,650,o),
(441,586,o),
(441,495,cs),
(441,400,o),
(383,340,o),
(298,340,cs),
(196,340,l),
(214,322,l)
);
}
);
width = 580;
},
{
anchors = (
{
name = top;
pos = (318,700);
}
);
layerId = m002;
shapes = (
{
closed = 1;
nodes = (
(446,302,o),
(572,393,o),
(572,527,cs),
(572,629,o),
(468,700,o),
(321,700,cs),
(2,700,l),
(2,682,l),
(114,645,l),
(93,674,l),
(93,26,l),
(114,55,l),
(2,18,l),
(2,0,l),
(344,0,l),
(344,19,l),
(218,54,l),
(240,26,l),
(240,324,l),
(218,302,l),
(267,302,ls)
);
},
{
closed = 1;
nodes = (
(240,674,l),
(218,652,l),
(287,652,ls),
(362,652,o),
(415,585,o),
(415,495,cs),
(415,405,o),
(366,342,o),
(297,342,cs),
(218,342,l),
(240,320,l)
);
}
);
width = 600;
},
{
associatedMasterId = m01;
layerId = "F87AD770-9788-474C-A1D1-0EC9B953AD89";
name = "1. Jan. 24, 23:50";
shapes = (
{
closed = 1;
nodes = (
(439,300,o),
(546,388,o),
(546,527,cs),
(546,628,o),
(452,700,o),
(318,700,c),
(288,650,l),
(375,650,o),
(441,586,o),
(441,495,cs),
(441,400,o),
(383,340,o),
(298,340,c),
(268,300,l)
);
},
{
closed = 1;
nodes = (
(318,0,l),
(318,20,l),
(214,50,l),
(119,50,l),
(28,20,l),
(28,0,l)
);
},
{
closed = 1;
nodes = (
(214,50,l),
(214,650,l),
(119,650,l),
(119,50,l)
);
},
{
closed = 1;
nodes = (
(268,300,l),
(298,340,l),
(184,340,l),
(184,300,l)
);
},
{
closed = 1;
nodes = (
(288,650,l),
(318,700,l),
(28,700,l),
(28,680,l),
(119,650,l)
);
}
);
width = 580;
},
{
anchors = (
{
name = top;
pos = (318,700);
}
);
associatedMasterId = m002;
layerId = "51E6DAAC-01E3-4344-8F01-563C4985D065";
name = "1. Jan. 24, 23:50";
shapes = (
{
closed = 1;
nodes = (
(446,302,o),
(572,393,o),
(572,527,cs),
(572,629,o),
(468,700,o),
(321,700,c),
(287,652,l),
(362,652,o),
(415,585,o),
(415,495,cs),
(415,405,o),
(366,342,o),
(297,342,c),
(267,302,l)
);
},
{
closed = 1;
nodes = (
(344,0,l),
(344,19,l),
(240,48,l),
(93,48,l),
(2,18,l),
(2,0,l)
);
},
{
closed = 1;
nodes = (
(240,48,l),
(240,652,l),
(93,652,l),
(93,48,l)
);
},
{
closed = 1;
nodes = (
(267,302,l),
(297,342,l),
(158,342,l),
(158,302,l)
);
},
{
closed = 1;
nodes = (
(287,652,l),
(321,700,l),
(2,700,l),
(2,682,l),
(93,652,l)
);
}
);
width = 580;
}
);
unicode = 80;
},
{
glyphname = Thorn;
layers = (
{
layerId = m01;
shapes = (
{
closed = 1;
nodes = (
(439,155,o),
(546,243,o),
(546,382,cs),
(546,483,o),
(452,555,o),
(318,553,cs),
(206,553,l),
(224,535,l),
(224,668,l),
(207,644,l),
(318,681,l),
(318,700,l),
(38,700,l),
(38,680,l),
(146,644,l),
(129,668,l),
(129,32,l),
(146,56,l),
(38,20,l),
(38,0,l),
(318,0,l),
(318,19,l),
(207,56,l),
(224,32,l),
(224,173,l),
(206,155,l),
(268,155,ls)
);
},
{
closed = 1;
nodes = (
(224,526,l),
(206,508,l),
(288,508,ls),
(375,505,o),
(441,441,o),
(441,350,cs),
(441,255,o),
(383,195,o),
(298,195,cs),
(206,195,l),
(224,177,l)
);
}
);
width = 570;
},
{
layerId = m002;
shapes = (
{
closed = 1;
nodes = (
(463,153,o),
(572,236,o),
(572,382,cs),
(572,486,o),
(478,555,o),
(320,555,cs),
(228,555,l),
(250,533,l),
(250,674,l),
(229,645,l),
(344,685,l),
(344,702,l),
(12,702,l),
(12,684,l),
(124,645,l),
(103,674,l),
(103,26,l),
(124,55,l),
(12,16,l),
(12,-2,l),
(344,-2,l),
(344,15,l),
(229,55,l),
(250,26,l),
(250,175,l),
(228,153,l),
(269,153,ls)
);
},
{
closed = 1;
nodes = (
(250,528,l),
(228,506,l),
(286,506,ls),
(366,506,o),
(415,458,o),
(415,350,cs),
(415,239,o),
(378,197,o),
(300,197,cs),
(228,197,l),
(250,175,l)
);
}
);
width = 580;
},
{
associatedMasterId = m01;
layerId = "E0FA7AEA-EC98-4066-82B2-3166E7021F5A";
name = "1. Jan. 24, 23:51";
shapes = (
{
closed = 1;
nodes = (
(439,155,o),
(546,243,o),
(546,382,cs),
(546,483,o),
(452,555,o),
(318,553,c),
(288,508,l),
(375,505,o),
(441,441,o),
(441,350,cs),
(441,255,o),
(383,195,o),
(298,195,c),
(268,155,l)
);
},
{
closed = 1;
nodes = (
(318,0,l),
(318,19,l),
(224,50,l),
(129,50,l),
(38,20,l),
(38,0,l)
);
},
{
closed = 1;
nodes = (
(268,155,l),
(298,195,l),
(184,195,l),
(184,155,l)
);
},
{
closed = 1;
nodes = (
(224,50,l),
(224,650,l),
(129,650,l),
(129,50,l)
);
},
{
closed = 1;
nodes = (
(288,508,l),
(318,553,l),
(184,553,l),
(184,508,l)
);
},
{
closed = 1;
nodes = (
(224,650,l),
(318,681,l),
(318,700,l),
(38,700,l),
(38,680,l),
(129,650,l)
);
}
);
width = 600;
},
{
associatedMasterId = m002;
layerId = "2A2841FE-8044-4CA3-87BC-87AD15E51C9B";
name = "1. Jan. 24, 23:51";
shapes = (
{
closed = 1;
nodes = (
(463,153,o),
(572,236,o),
(572,382,cs),
(572,486,o),
(478,555,o),
(320,555,c),
(286,506,l),
(366,506,o),
(415,458,o),
(415,350,cs),
(415,239,o),
(378,197,o),
(300,197,c),
(269,153,l)
);
},
{
closed = 1;
nodes = (
(344,-2,l),
(344,15,l),
(250,48,l),
(103,48,l),
(12,16,l),
(12,-2,l)
);
},
{
closed = 1;
nodes = (
(269,153,l),
(300,197,l),
(158,197,l),
(158,153,l)
);
},
{
closed = 1;
nodes = (
(250,48,l),
(250,652,l),
(103,652,l),
(103,48,l)
);
},
{
closed = 1;
nodes = (
(286,506,l),
(320,555,l),
(158,555,l),
(158,506,l)
);
},
{
closed = 1;
nodes = (
(250,652,l),
(344,685,l),
(344,702,l),
(12,702,l),
(12,684,l),
(103,652,l)
);
}
);
width = 600;
}
);
unicode = 222;
},
{
glyphname = Q;
layers = (
{
background = {
shapes = (
{
closed = 1;
nodes = (
(584,715,o),
(725,567,o),
(725,357,cs),
(725,139,o),
(584,-15,o),
(384,-15,cs),
(185,-15,o),
(45,135,o),
(45,347,cs),
(45,563,o),
(185,715,o),
(384,715,cs)
);
},
{
closed = 1;
nodes = (
(228,676,o),
(154,583,o),
(154,415,cs),
(154,163,o),
(244,23,o),
(407,23,cs),
(541,23,o),
(616,117,o),
(616,286,cs),
(616,537,o),
(525,676,o),
(361,676,cs)
);
}
);
};
layerId = m01;
shapes = (
{
closed = 1;
nodes = (
(715,-140,l),
(715,-121,l),
(660,-103,ls),
(631,-93,o),
(609,-86,o),
(587,-67,cs),
(489,20,l),
(491,4,l),
(626,52,o),
(715,184,o),
(715,357,cs),
(715,567,o),
(574,715,o),
(374,715,cs),
(175,715,o),
(35,563,o),
(35,347,cs),
(35,129,o),
(177,-26,o),
(378,-26,c),
(534,-140,l)
);
},
{
closed = 1;
nodes = (
(144,583,o),
(218,676,o),
(351,676,cs),
(515,676,o),
(606,537,o),
(606,286,cs),
(606,117,o),
(531,23,o),
(397,23,cs),
(234,23,o),
(144,163,o),
(144,415,cs)
);
}
);
width = 750;
},
{
layerId = m002;
shapes = (
{
closed = 1;
nodes = (
(741,-142,l),
(741,-125,l),
(668,-101,ls),
(646,-94,o),
(621,-80,o),
(604,-65,cs),
(503,25,l),
(506,5,l),
(647,53,o),
(741,183,o),
(741,357,cs),
(741,573,o),
(584,717,o),
(374,717,cs),
(164,717,o),
(9,569,o),
(9,347,cs),
(9,135,o),
(157,-10,o),
(360,-17,c),
(518,-142,l)
);
},
{
closed = 1;
nodes = (
(170,589,o),
(238,674,o),
(351,674,cs),
(494,674,o),
(580,542,o),
(580,286,cs),
(580,111,o),
(511,25,o),
(397,25,cs),
(255,25,o),
(170,158,o),
(170,415,cs)
);
}
);
width = 770;
},
{
associatedMasterId = m01;
background = {
shapes = (
{
closed = 1;
nodes = (
(584,715,o),
(725,567,o),
(725,357,cs),
(725,139,o),
(584,-15,o),
(384,-15,cs),
(185,-15,o),
(45,135,o),
(45,347,cs),
(45,563,o),
(185,715,o),
(384,715,cs)
);
},
{
closed = 1;
nodes = (
(228,676,o),
(154,583,o),
(154,415,cs),
(154,163,o),
(244,23,o),
(407,23,cs),
(541,23,o),
(616,117,o),
(616,286,cs),
(616,537,o),
(525,676,o),
(361,676,cs)
);
}
);
};
layerId = "CD80C9CB-C6C2-4A56-9AD6-E0D283AD5534";
name = "2. Jan. 24, 00:43";
shapes = (
{
closed = 1;
nodes = (
(574,-15,o),
(715,139,o),
(715,357,cs),
(715,567,o),
(574,715,o),
(374,715,cs),
(175,715,o),
(35,563,o),
(35,347,cs),
(35,135,o),
(175,-15,o),
(374,-15,cs)
);
},
{
closed = 1;
nodes = (
(715,-140,l),
(715,-121,l),
(660,-103,ls),
(631,-93,o),
(609,-86,o),
(587,-67,cs),
(493,16,l),
(362,-4,l),
(534,-140,l)
);
},
{
closed = 1;
nodes = (
(234,23,o),
(144,163,o),
(144,415,cs),
(144,583,o),
(218,676,o),
(351,676,cs),
(515,676,o),
(606,537,o),
(606,286,cs),
(606,117,o),
(531,23,o),
(397,23,cs)
);
}
);
width = 750;
},
{
associatedMasterId = m002;
layerId = "EB97F41A-9405-4685-A3A0-E758F1B20BB9";
name = "2. Jan. 24, 00:43";
shapes = (
{
closed = 1;
nodes = (
(586,-17,o),
(741,134,o),
(741,357,cs),
(741,573,o),
(584,717,o),
(374,717,cs),
(164,717,o),
(9,569,o),
(9,347,cs),
(9,130,o),
(164,-17,o),
(374,-17,cs)
);
},
{
closed = 1;
nodes = (
(741,-142,l),
(741,-125,l),
(668,-101,ls),
(646,-94,o),
(621,-80,o),
(604,-65,cs),
(507,21,l),
(344,-4,l),
(518,-142,l)
);
},
{
closed = 1;
nodes = (
(255,25,o),
(170,158,o),
(170,415,cs),
(170,589,o),
(238,674,o),
(351,674,cs),
(494,674,o),
(580,542,o),
(580,286,cs),
(580,111,o),
(511,25,o),
(397,25,cs)
);
}
);
width = 750;
}
);
unicode = 81;
},
{
glyphname = R;
layers = (
{
anchors = (
{
name = com;
pos = (351,-2);
},
{
name = top;
pos = (294,700);
}
);
layerId = m01;
shapes = (
{
closed = 1;
nodes = (
(681,0,l),
(681,19,l),
(632,35,ls),
(600,45,o),
(583,63,o),
(564,91,cs),
(401,335,l),
(399,316,l),
(495,347,o),
(556,426,o),
(556,527,cs),
(556,628,o),
(462,700,o),
(328,700,cs),
(28,700,l),
(28,680,l),
(136,644,l),
(119,668,l),
(119,32,l),
(136,56,l),
(28,20,l),
(28,0,l),
(318,0,l),
(318,20,l),
(197,55,l),
(214,32,l),
(214,318,l),
(196,300,l),
(298,300,ls),
(309,300,o),
(318,300,o),
(332,304,c),
(308,316,l),
(509,0,l)
);
},
{
closed = 1;
nodes = (
(214,668,l),
(196,650,l),
(298,650,ls),
(385,650,o),
(446,586,o),
(446,495,cs),
(446,404,o),
(397,340,o),
(328,340,cs),
(196,340,l),
(214,322,l)
);
}
);
width = 650;
},
{
anchors = (
{
name = com;
pos = (391,-2);
},
{
name = top;
pos = (298,700);
}
);
layerId = m002;
shapes = (
{
closed = 1;
nodes = (
(707,0,l),
(707,17,l),
(640,37,ls),
(621,43,o),
(613,51,o),
(586,92,cs),
(424,334,l),
(421,310,l),
(528,339,o),
(582,417,o),
(582,527,cs),
(582,631,o),
(487,708,o),
(329,700,c),
(2,700,l),
(2,684,l),
(114,645,l),
(93,674,l),
(93,26,l),
(114,55,l),
(2,18,l),
(2,0,l),
(344,0,l),
(344,19,l),
(218,54,l),
(240,26,l),
(240,320,l),
(218,298,l),
(279,298,l),
(290,298,o),
(298,298,o),
(316,298,c),
(284,317,l),
(488,0,l)
);
},
{
closed = 1;
nodes = (
(240,674,l),
(218,652,l),
(298,652,ls),
(370,652,o),
(420,604,o),
(420,495,cs),
(420,386,o),
(395,342,o),
(331,342,cs),
(218,342,l),
(240,320,l)
);
}
);
width = 670;
},
{
anchors = (
{
name = com;
pos = (351,-2);
},
{
name = top;
pos = (294,700);
}
);
associatedMasterId = m01;
layerId = "8EE325DB-C90E-4465-8EBF-5D3FDAB11B02";
name = "1. Jan. 24, 23:51";
shapes = (
{
closed = 1;
nodes = (
(681,0,l),
(681,19,l),
(632,35,ls),
(600,45,o),
(583,63,o),
(564,91,cs),
(400,336,l),
(308,316,l),
(509,0,l)
);
},
{
closed = 1;
nodes = (
(318,0,l),
(318,20,l),
(214,50,l),
(119,50,l),
(28,20,l),
(28,0,l)
);
},
{
closed = 1;
nodes = (
(214,50,l),
(214,650,l),
(119,650,l),
(119,50,l)
);
},
{
closed = 1;
nodes = (
(298,300,l),
(328,340,l),
(184,340,l),
(184,300,l)
);
},
{
closed = 1;
nodes = (
(298,650,l),
(328,700,l),
(28,700,l),
(28,680,l),
(119,650,l)
);
},
{
closed = 1;
nodes = (
(449,300,o),
(556,394,o),
(556,527,cs),
(556,628,o),
(462,700,o),
(328,700,c),
(298,650,l),
(385,650,o),
(446,586,o),
(446,495,cs),
(446,404,o),
(397,340,o),
(328,340,c),
(298,300,l)
);
}
);
width = 650;
},
{
anchors = (
{
name = com;
pos = (391,-2);
},
{
name = top;
pos = (298,700);
}
);
associatedMasterId = m002;
layerId = "DBC61A99-5250-4371-B288-D7EBC6A43A30";
name = "1. Jan. 24, 23:52";
shapes = (
{
closed = 1;
nodes = (
(707,0,l),
(707,17,l),
(640,37,ls),
(621,43,o),
(613,51,o),
(586,92,cs),
(418,343,l),
(286,314,l),
(488,0,l)
);
},
{
closed = 1;
nodes = (
(344,0,l),
(344,19,l),
(240,48,l),
(93,48,l),
(2,18,l),
(2,0,l)
);
},
{
closed = 1;
nodes = (
(240,48,l),
(240,652,l),
(93,652,l),
(93,48,l)
);
},
{
closed = 1;
nodes = (
(318,298,l),
(331,342,l),
(158,342,l),
(158,298,l)
);
},
{
closed = 1;
nodes = (
(298,652,l),
(329,700,l),
(2,700,l),
(2,684,l),
(93,652,l)
);
},
{
closed = 1;
nodes = (
(492,298,o),
(582,386,o),
(582,527,cs),
(582,631,o),
(487,708,o),
(329,700,c),
(298,652,l),
(370,652,o),
(420,604,o),
(420,495,cs),
(420,386,o),
(395,342,o),
(331,342,c),
(318,298,l)
);
}
);
width = 650;
}
);
unicode = 82;
},
{
glyphname = S;
layers = (
{
anchors = (
{
name = ced;
pos = (271,0);
},
{
name = com;
pos = (271,-2);
},
{
name = top;
pos = (273,700);
}
);
layerId = m01;
shapes = (
{
closed = 1;
nodes = (
(403,-16,o),
(496,66,o),
(496,183,cs),
(496,269,o),
(398,337,o),
(306,400,cs),
(223,457,o),
(144,512,o),
(144,574,cs),
(144,637,o),
(197,682,o),
(272,682,cs),
(340,682,o),
(406,614,o),
(431,518,c),
(459,518,l),
(459,662,l),
(426,694,o),
(349,716,o),
(272,716,cs),
(143,716,o),
(52,639,o),
(52,529,cs),
(52,446,o),
(159,371,o),
(257,302,cs),
(340,244,o),
(418,190,o),
(418,138,cs),
(418,68,o),
(358,18,o),
(272,18,cs),
(194,18,o),
(123,92,o),
(99,197,c),
(70,197,l),
(57,44,l),
(112,9,o),
(201,-16,o),
(272,-16,cs)
);
}
);
width = 548;
},
{
anchors = (
{
name = ced;
pos = (271,0);
},
{
name = com;
pos = (271,-2);
},
{
name = top;
pos = (272,700);
}
);
layerId = m002;
shapes = (
{
closed = 1;
nodes = (
(414,-18,o),
(522,64,o),
(522,183,cs),
(522,268,o),
(426,333,o),
(335,396,cs),
(251,453,o),
(170,508,o),
(170,574,cs),
(170,643,o),
(213,680,o),
(272,680,cs),
(322,680,o),
(399,621,o),
(426,516,c),
(485,516,l),
(485,653,l),
(471,685,o),
(367,718,o),
(272,718,cs),
(131,718,o),
(26,640,o),
(26,529,cs),
(26,448,o),
(129,376,o),
(226,309,cs),
(312,249,o),
(392,193,o),
(392,138,cs),
(392,62,o),
(342,20,o),
(272,20,cs),
(212,20,o),
(130,85,o),
(104,199,c),
(44,199,l),
(32,50,l),
(76,15,o),
(188,-18,o),
(272,-18,cs)
);
}
);
width = 558;
},
{
anchors = (
{
name = ced;
pos = (271,0);
},
{
name = com;
pos = (271,-2);
},
{
name = top;
pos = (272,700);
}
);
associatedMasterId = m002;
layerId = "54C86225-A7E5-4DC4-BF0A-99D2FF8FD0AB";
name = "1. Jan. 24, 23:54";
shapes = (
{
closed = 1;
nodes = (
(414,-18,o),
(522,64,o),
(522,183,cs),
(522,346,o),
(170,437,o),
(170,574,cs),
(170,643,o),
(213,680,o),
(272,680,cs),
(322,680,o),
(399,621,o),
(426,516,c),
(485,516,l),
(485,653,l),
(471,685,o),
(367,718,o),
(272,718,cs),
(131,718,o),
(26,640,o),
(26,529,cs),
(26,377,o),
(392,256,o),
(392,138,cs),
(392,62,o),
(342,20,o),
(272,20,cs),
(212,20,o),
(130,85,o),
(104,199,c),
(44,199,l),
(32,50,l),
(76,15,o),
(188,-18,o),
(272,-18,cs)
);
}
);
width = 548;
},
{
anchors = (
{
name = ced;
pos = (271,0);
},
{
name = com;
pos = (271,-2);
},
{
name = top;
pos = (273,700);
}
);
associatedMasterId = m01;
layerId = "81631164-83AA-4D73-9C19-4A915934467F";
name = "1. Jan. 24, 23:55";
shapes = (
{
closed = 1;
nodes = (
(403,-16,o),
(496,66,o),
(496,183,cs),
(496,347,o),
(144,442,o),
(144,574,cs),
(144,637,o),
(197,682,o),
(272,682,cs),
(340,682,o),
(406,614,o),
(431,518,c),
(459,518,l),
(459,662,l),
(426,694,o),
(349,716,o),
(272,716,cs),
(143,716,o),
(52,639,o),
(52,529,cs),
(52,375,o),
(418,250,o),
(418,138,cs),
(418,68,o),
(358,18,o),
(272,18,cs),
(194,18,o),
(123,92,o),
(99,197,c),
(70,197,l),
(57,44,l),
(112,9,o),
(201,-16,o),
(272,-16,cs)
);
}
);
width = 548;
}
);
unicode = 83;
},
{
glyphname = Saltillo;
layers = (
{
layerId = m01;
shapes = (
{
closed = 1;
nodes = (
(138,415,l),
(148,700,l),
(66,700,l),
(76,415,l)
);
}
);
width = 214;
},
{
layerId = m002;
shapes = (
{
closed = 1;
nodes = (
(54,415,l),
(116,415,l),
(126,700,l),
(44,700,l)
);
}
);
width = 170;
}
);
unicode = 42891;
},
{
glyphname = Germandbls;
layers = (
{
layerId = m01;
shapes = (
{
closed = 1;
nodes = (
(527,-16,o),
(585,77,o),
(585,180,cs),
(585,296,o),
(510,331,o),
(449,368,cs),
(408,393,o),
(373,404,o),
(373,440,cs),
(373,477,o),
(403,495,o),
(438,517,cs),
(489,548,o),
(553,587,o),
(559,700,c),
(32,700,l),
(32,680,l),
(140,644,l),
(123,668,l),
(123,32,l),
(140,56,l),
(32,20,l),
(32,0,l),
(218,0,l),
(218,668,l),
(200,650,l),
(468,650,l),
(449,665,l),
(455,595,o),
(422,557,o),
(384,519,cs),
(349,484,o),
(315,450,o),
(315,390,cs),
(315,295,o),
(388,246,o),
(450,214,cs),
(496,189,o),
(536,168,o),
(536,130,cs),
(536,56,o),
(498,19,o),
(444,19,cs),
(407,19,o),
(370,47,o),
(335,139,c),
(314,139,l),
(314,34,l),
(339,5,o),
(394,-16,o),
(444,-16,cs)
);
}
);
width = 600;
},
{
layerId = m002;
shapes = (
{
closed = 1;
nodes = (
(548,-16,o),
(611,59,o),
(611,160,cs),
(611,280,o),
(538,321,o),
(478,354,cs),
(435,378,o),
(399,398,o),
(399,440,cs),
(399,482,o),
(429,497,o),
(465,516,cs),
(516,541,o),
(579,573,o),
(583,700,c),
(6,700,l),
(6,684,l),
(118,645,l),
(97,674,l),
(97,26,l),
(118,55,l),
(6,18,l),
(6,0,l),
(244,0,l),
(244,674,l),
(222,652,l),
(444,652,l),
(422,672,l),
(425,591,o),
(411,564,o),
(357,516,cs),
(324,484,o),
(289,451,o),
(289,390,cs),
(289,292,o),
(360,257,o),
(422,226,cs),
(469,203,o),
(510,183,o),
(510,140,cs),
(510,60,o),
(478,21,o),
(444,21,cs),
(422,21,o),
(365,37,o),
(349,141,c),
(299,141,l),
(299,42,l),
(306,16,o),
(377,-16,o),
(444,-16,cs)
);
}
);
width = 600;
},
{
associatedMasterId = m002;
layerId = "FA36DD5A-D8BF-4064-B137-E37DC8C3403B";
name = "1. Jan. 24, 23:57";
shapes = (
{
closed = 1;
nodes = (
(548,-16,o),
(611,59,o),
(611,160,cs),
(611,364,o),
(399,339,o),
(399,440,cs),
(399,543,o),
(577,485,o),
(583,700,c),
(420,667,l),
(449,520,o),
(289,523,o),
(289,390,cs),
(289,218,o),
(510,239,o),
(510,140,cs),
(510,60,o),
(478,21,o),
(444,21,cs),
(422,21,o),
(365,37,o),
(356,95,cs),
(349,141,l),
(299,141,l),
(299,42,l),
(306,16,o),
(377,-16,o),
(444,-16,cs)
);
},
{
closed = 1;
nodes = (
(244,0,l),
(244,48,l),
(97,48,l),
(6,18,l),
(6,0,l)
);
},
{
closed = 1;
nodes = (
(244,48,l),
(244,652,l),
(97,652,l),
(97,48,l)
);
},
{
closed = 1;
nodes = (
(551,652,l),
(583,700,l),
(6,700,l),
(6,684,l),
(97,652,l)
);
}
);
width = 600;
},
{
associatedMasterId = m01;
layerId = "5F037B64-807D-4008-80E9-3713EBE27D4E";
name = "1. Jan. 24, 23:57";
shapes = (
{
closed = 1;
nodes = (
(527,-16,o),
(585,57,o),
(585,160,cs),
(585,355,o),
(373,350,o),
(373,440,cs),
(373,529,o),
(549,509,o),
(559,699,c),
(447,676,l),
(477,531,o),
(315,519,o),
(315,390,cs),
(315,225,o),
(536,230,o),
(536,140,cs),
(536,66,o),
(498,19,o),
(444,19,cs),
(407,19,o),
(370,47,o),
(352,94,cs),
(335,139,l),
(317,139,l),
(311,34,l),
(339,5,o),
(394,-16,o),
(444,-16,cs)
);
},
{
closed = 1;
nodes = (
(218,0,l),
(218,50,l),
(123,50,l),
(32,20,l),
(32,0,l)
);
},
{
closed = 1;
nodes = (
(218,50,l),
(218,650,l),
(123,650,l),
(123,50,l)
);
},
{
closed = 1;
nodes = (
(529,650,l),
(559,700,l),
(32,700,l),
(32,680,l),
(123,650,l)
);
}
);
width = 600;
}
);
unicode = 7838;
},
{
glyphname = T;
layers = (
{
anchors = (
{
name = ced;
pos = (335,0);
},
{
name = com;
pos = (335,-2);
},
{
name = top;
pos = (327,700);
}
);
background = {
shapes = (
{
closed = 1;
nodes = (
(105,612,ls),
(120,640,o),
(125,657,o),
(125,675,cs),
(125,691,o),
(113,700,o),
(93,700,cs),
(72,700,o),
(56,679,o),
(49,640,cs),
(36,564,ls),
(29,524,o),
(29,502,o),
(35,500,cs),
(41,498,o),
(54,514,o),
(73,551,cs)
);
}
);
};
layerId = m01;
shapes = (
{
closed = 1;
nodes = (
(468,0,l),
(468,19,l),
(367,56,l),
(384,32,l),
(384,676,l),
(366,650,l),
(564,650,l),
(538,666,l),
(625,500,l),
(646,500,l),
(612,700,l),
(59,700,l),
(25,500,l),
(46,500,l),
(133,666,l),
(107,650,l),
(307,650,l),
(289,668,l),
(289,32,l),
(306,56,l),
(198,20,l),
(198,0,l)
);
}
);
width = 671;
},
{
anchors = (
{
name = ced;
pos = (295,0);
},
{
name = com;
pos = (295,-2);
},
{
name = top;
pos = (298,700);
}
);
layerId = m002;
shapes = (
{
closed = 1;
nodes = (
(454,0,l),
(454,17,l),
(349,58,l),
(370,28,l),
(370,670,l),
(348,648,l),
(525,648,l),
(492,668,l),
(583,498,l),
(632,498,l),
(597,700,l),
(-6,700,l),
(-41,498,l),
(8,498,l),
(99,668,l),
(66,648,l),
(245,648,l),
(223,670,l),
(223,28,l),
(244,57,l),
(132,18,l),
(132,0,l)
);
}
);
width = 661;
},
{
anchors = (
{
name = ced;
pos = (335,0);
},
{
name = com;
pos = (335,-2);
},
{
name = top;
pos = (327,700);
}
);
associatedMasterId = m01;
background = {
shapes = (
{
closed = 1;
nodes = (
(105,612,ls),
(120,640,o),
(125,657,o),
(125,675,cs),
(125,691,o),
(113,700,o),
(93,700,cs),
(72,700,o),
(56,679,o),
(49,640,cs),
(36,564,ls),
(29,524,o),
(29,502,o),
(35,500,cs),
(41,498,o),
(54,514,o),
(73,551,cs)
);
}
);
};
layerId = "48D25F69-1500-4DA1-829A-E991BACADBF6";
name = "2. Jan. 24, 00:02";
shapes = (
{
closed = 1;
nodes = (
(384,50,l),
(384,650,l),
(289,650,l),
(289,50,l)
);
},
{
closed = 1;
nodes = (
(468,0,l),
(468,19,l),
(384,50,l),
(289,50,l),
(198,20,l),
(198,0,l)
);
},
{
closed = 1;
nodes = (
(46,500,l),
(151,700,l),
(59,700,l),
(25,500,l)
);
},
{
closed = 1;
nodes = (
(612,650,l),
(612,700,l),
(59,700,l),
(59,650,l)
);
},
{
closed = 1;
nodes = (
(646,500,l),
(612,700,l),
(520,700,l),
(625,500,l)
);
}
);
width = 671;
},
{
anchors = (
{
name = top;
pos = (338,700);
}
);
associatedMasterId = m002;
layerId = "841393F9-37E0-41F3-9E62-FA9E46765AC5";
name = "2. Jan. 24, 00:02";
shapes = (
{
closed = 1;
nodes = (
(410,50,l),
(410,648,l),
(263,648,l),
(263,50,l)
);
},
{
closed = 1;
nodes = (
(494,0,l),
(494,17,l),
(410,50,l),
(263,50,l),
(172,18,l),
(172,0,l)
);
},
{
closed = 1;
nodes = (
(48,498,l),
(156,700,l),
(34,700,l),
(-1,498,l)
);
},
{
closed = 1;
nodes = (
(637,648,l),
(637,700,l),
(34,700,l),
(34,648,l)
);
},
{
closed = 1;
nodes = (
(672,498,l),
(637,700,l),
(515,700,l),
(623,498,l)
);
}
);
width = 671;
}
);
unicode = 84;
},
{
glyphname = U;
layers = (
{
anchors = (
{
name = ogo;
pos = (371,0);
},
{
name = top;
pos = (390,700);
}
);
layerId = m01;
shapes = (
{
closed = 1;
nodes = (
(525,-15,o),
(634,87,o),
(634,230,cs),
(634,668,l),
(617,644,l),
(728,681,l),
(728,700,l),
(493,700,l),
(493,680,l),
(601,644,l),
(584,668,l),
(584,210,ls),
(584,113,o),
(505,44,o),
(393,44,cs),
(282,44,o),
(204,129,o),
(204,250,cs),
(204,668,l),
(187,644,l),
(298,681,l),
(298,700,l),
(18,700,l),
(18,680,l),
(126,644,l),
(109,668,l),
(109,230,ls),
(109,87,o),
(218,-15,o),
(371,-15,cs)
);
}
);
width = 746;
},
{
anchors = (
{
name = ogo;
pos = (341,0);
},
{
name = top;
pos = (388,700);
}
);
layerId = m002;
shapes = (
{
closed = 1;
nodes = (
(530,-17,o),
(630,90,o),
(630,241,cs),
(630,674,l),
(609,645,l),
(724,683,l),
(724,700,l),
(477,700,l),
(477,682,l),
(589,645,l),
(568,674,l),
(568,200,ls),
(568,110,o),
(478,46,o),
(383,46,cs),
(288,46,o),
(220,133,o),
(220,256,cs),
(220,674,l),
(199,645,l),
(314,683,l),
(314,700,l),
(-18,700,l),
(-18,682,l),
(94,645,l),
(73,674,l),
(73,225,ls),
(73,83,o),
(192,-17,o),
(361,-17,cs)
);
}
);
width = 746;
},
{
anchors = (
{
name = ogo;
pos = (371,0);
},
{
name = top;
pos = (390,700);
}
);
associatedMasterId = m01;
layerId = "C9F274BC-9739-450A-90AE-ADDF7D885A0A";
name = "2. Jan. 24, 00:06";
shapes = (
{
closed = 1;
nodes = (
(525,-15,o),
(634,87,o),
(634,230,c),
(584,210,l),
(584,113,o),
(505,44,o),
(393,44,cs),
(282,44,o),
(204,129,o),
(204,250,c),
(109,230,l),
(109,87,o),
(218,-15,o),
(371,-15,cs)
);
},
{
closed = 1;
nodes = (
(204,250,l),
(204,650,l),
(109,650,l),
(109,230,l)
);
},
{
closed = 1;
nodes = (
(204,650,l),
(298,681,l),
(298,700,l),
(18,700,l),
(18,680,l),
(109,650,l)
);
},
{
closed = 1;
nodes = (
(634,230,l),
(634,650,l),
(584,650,l),
(584,210,l)
);
},
{
closed = 1;
nodes = (
(634,650,l),
(728,681,l),
(728,700,l),
(493,700,l),
(493,680,l),
(584,650,l)
);
}
);
width = 746;
},
{
anchors = (
{
name = top;
pos = (398,700);
}
);
associatedMasterId = m002;
layerId = "D960C037-4FFC-4687-9BDC-4AEC00AFE594";
name = "2. Jan. 24, 00:06";
shapes = (
{
closed = 1;
nodes = (
(540,-17,o),
(640,90,o),
(640,241,c),
(578,200,l),
(576,110,o),
(488,46,o),
(393,46,cs),
(298,46,o),
(230,133,o),
(230,256,c),
(83,225,l),
(83,83,o),
(202,-17,o),
(371,-17,cs)
);
},
{
closed = 1;
nodes = (
(230,256,l),
(230,652,l),
(83,652,l),
(83,225,l)
);
},
{
closed = 1;
nodes = (
(230,652,l),
(324,683,l),
(324,700,l),
(-8,700,l),
(-8,682,l),
(83,652,l)
);
},
{
closed = 1;
nodes = (
(640,241,l),
(640,652,l),
(578,652,l),
(578,200,l)
);
},
{
closed = 1;
nodes = (
(640,652,l),
(734,683,l),
(734,700,l),
(487,700,l),
(487,682,l),
(578,652,l)
);
}
);
width = 746;
}
);
unicode = 85;
},
{
glyphname = V;
layers = (
{
anchors = (
{
name = top;
pos = (398,700);
}
);
background = {
shapes = (
{
closed = 1;
nodes = (
(101,660,l),
(342,-10,l),
(441,10,l),
(200,660,l)
);
}
);
};
layerId = m01;
shapes = (
{
closed = 1;
nodes = (
(391,0,l),
(639,667,l),
(616,644,l),
(727,681,l),
(727,700,l),
(489,700,l),
(489,680,l),
(597,644,l),
(586,667,l),
(386,127,l),
(399,127,l),
(188,667,l),
(178,644,l),
(289,681,l),
(289,700,l),
(0,700,l),
(0,680,l),
(108,644,l),
(85,667,l),
(342,-10,l)
);
}
);
width = 727;
},
{
anchors = (
{
name = top;
pos = (378,700);
}
);
layerId = m002;
shapes = (
{
closed = 1;
nodes = (
(358,2,l),
(608,673,l),
(579,645,l),
(695,683,l),
(695,700,l),
(443,700,l),
(443,682,l),
(557,645,l),
(544,673,l),
(363,188,l),
(379,188,l),
(191,673,l),
(178,645,l),
(295,683,l),
(295,700,l),
(-46,700,l),
(-46,682,l),
(67,645,l),
(38,673,l),
(300,-17,l)
);
}
);
width = 677;
},
{
associatedMasterId = m01;
background = {
shapes = (
{
closed = 1;
nodes = (
(101,660,l),
(342,-10,l),
(441,10,l),
(200,660,l)
);
}
);
};
layerId = "2DF3106B-5057-4E46-8347-DDA87B063409";
name = "2. Jan. 24, 00:09";
shapes = (
{
closed = 1;
nodes = (
(391,0,l),
(633,650,l),
(580,650,l),
(392,144,l),
(195,650,l),
(91,650,l),
(342,-10,l)
);
},
{
closed = 1;
nodes = (
(195,650,l),
(289,681,l),
(289,700,l),
(0,700,l),
(0,680,l),
(91,650,l)
);
},
{
closed = 1;
nodes = (
(633,650,l),
(727,681,l),
(727,700,l),
(489,700,l),
(489,680,l),
(580,650,l)
);
}
);
width = 727;
}
);
unicode = 86;
},
{
glyphname = W;
layers = (
{
anchors = (
{
name = top;
pos = (540,700);
}
);
background = {
shapes = (
{
closed = 0;
nodes = (
(328,-35,l),
(635,733,l)
);
},
{
closed = 0;
nodes = (
(389,-45,l),
(696,723,l)
);
},
{
closed = 0;
nodes = (
(633,-35,l),
(940,733,l)
);
},
{
closed = 0;
nodes = (
(699,-35,l),
(1006,733,l)
);
}
);
};
layerId = m01;
shapes = (
{
closed = 1;
nodes = (
(403,0,l),
(543,350,l),
(513,350,l),
(638,-10,l),
(690,0,l),
(958,667,l),
(925,645,l),
(1044,681,l),
(1044,700,l),
(787,700,l),
(787,680,l),
(902,645,l),
(890,667,l),
(672,107,l),
(689,108,l),
(569,441,l),
(574,409,l),
(672,666,l),
(643,643,l),
(732,681,l),
(732,700,l),
(537,700,l),
(537,680,l),
(620,646,l),
(606,667,l),
(535,472,l),
(555,472,l),
(465,700,l),
(289,700,l),
(289,680,l),
(405,645,l),
(380,666,l),
(499,383,l),
(503,415,l),
(392,121,l),
(403,120,l),
(181,700,l),
(0,700,l),
(0,680,l),
(115,645,l),
(92,667,l),
(351,-10,l)
);
}
);
width = 1075;
},
{
anchors = (
{
name = top;
pos = (528,700);
}
);
background = {
shapes = (
{
closed = 0;
nodes = (
(300,-35,l),
(607,733,l)
);
},
{
closed = 0;
nodes = (
(370,-45,l),
(677,723,l)
);
},
{
closed = 0;
nodes = (
(605,-35,l),
(912,733,l)
);
},
{
closed = 0;
nodes = (
(680,-35,l),
(987,733,l)
);
}
);
};
layerId = m002;
shapes = (
{
closed = 1;
nodes = (
(388,-1,l),
(514,315,l),
(481,335,l),
(617,-17,l),
(675,2,l),
(943,673,l),
(910,645,l),
(1023,683,l),
(1023,700,l),
(794,700,l),
(794,682,l),
(884,642,l),
(866,673,l),
(663,165,l),
(680,166,l),
(545,493,l),
(564,402,l),
(674,668,l),
(628,637,l),
(733,684,l),
(733,700,l),
(532,700,l),
(532,682,l),
(607,647,l),
(595,676,l),
(526,496,l),
(548,493,l),
(459,700,l),
(273,700,l),
(273,682,l),
(365,633,l),
(337,666,l),
(481,335,l),
(475,389,l),
(359,112,l),
(394,151,l),
(169,700,l),
(-46,700,l),
(-46,682,l),
(76,638,l),
(48,667,l),
(328,-19,l)
);
}
);
width = 1001;
},
{
anchors = (
{
name = top;
pos = (540,700);
}
);
associatedMasterId = m01;
background = {
shapes = (
{
closed = 1;
nodes = (
(80,660,l),
(321,-10,l),
(420,10,l),
(179,660,l)
);
},
{
closed = 1;
nodes = (
(437,660,l),
(678,-10,l),
(777,10,l),
(536,660,l)
);
}
);
};
layerId = "D26895DC-3BB4-497B-9268-E03FEBC355CF";
name = "2. Jan. 24, 00:10";
shapes = (
{
closed = 1;
nodes = (
(373,0,l),
(694,700,l),
(637,700,l),
(372,137,l),
(177,700,l),
(98,650,l),
(321,-10,l)
);
},
{
closed = 1;
nodes = (
(177,700,l),
(0,700,l),
(0,680,l),
(98,650,l)
);
},
{
closed = 1;
nodes = (
(730,0,l),
(943,650,l),
(886,650,l),
(720,124,l),
(446,700,l),
(368,650,l),
(678,-10,l)
);
},
{
closed = 1;
nodes = (
(446,700,l),
(269,700,l),
(269,680,l),
(368,650,l)
);
},
{
closed = 1;
nodes = (
(674,650,l),
(743,681,l),
(743,700,l),
(518,700,l),
(518,680,l),
(617,650,l)
);
},
{
closed = 1;
nodes = (
(943,650,l),
(1045,681,l),
(1045,700,l),
(788,700,l),
(788,680,l),
(886,650,l)
);
}
);
width = 1045;
},
{
anchors = (
{
name = top;
pos = (548,700);
}
);
associatedMasterId = m002;
layerId = "F2420E00-FCFB-4808-A840-F0A827EB3F3F";
name = "2. Jan. 24, 00:10";
shapes = (
{
closed = 1;
nodes = (
(358,2,l),
(689,700,l),
(624,700,l),
(376,197,l),
(197,700,l),
(75,646,l),
(299,-17,l)
);
},
{
closed = 1;
nodes = (
(197,700,l),
(-26,700,l),
(-26,682,l),
(75,646,l)
);
},
{
closed = 1;
nodes = (
(716,2,l),
(929,652,l),
(862,652,l),
(715,186,l),
(476,700,l),
(356,646,l),
(657,-17,l)
);
},
{
closed = 1;
nodes = (
(476,700,l),
(303,700,l),
(303,682,l),
(356,646,l)
);
},
{
closed = 1;
nodes = (
(664,648,l),
(729,684,l),
(729,700,l),
(542,700,l),
(542,682,l),
(620,648,l)
);
},
{
closed = 1;
nodes = (
(929,652,l),
(1021,683,l),
(1021,700,l),
(802,700,l),
(802,682,l),
(862,652,l)
);
}
);
width = 1045;
}
);
unicode = 87;
},
{
glyphname = X;
layers = (
{
anchors = (
{
name = top;
pos = (362,700);
}
);
layerId = m01;
shapes = (
{
closed = 1;
nodes = (
(14,19,l),
(14,0,l),
(261,0,l),
(261,20,l),
(153,56,l),
(160,35,l),
(339,312,l),
(319,312,l),
(512,35,l),
(519,56,l),
(408,19,l),
(408,0,l),
(700,0,l),
(700,20,l),
(592,56,l),
(619,35,l),
(384,388,l),
(384,358,l),
(589,665,l),
(562,644,l),
(673,681,l),
(673,700,l),
(426,700,l),
(426,680,l),
(534,644,l),
(527,665,l),
(349,405,l),
(369,405,l),
(195,665,l),
(188,644,l),
(299,681,l),
(299,700,l),
(10,700,l),
(10,680,l),
(118,644,l),
(91,665,l),
(312,321,l),
(312,351,l),
(98,35,l),
(125,56,l)
);
}
);
width = 710;
},
{
anchors = (
{
name = top;
pos = (358,700);
}
);
layerId = m002;
shapes = (
{
closed = 1;
nodes = (
(-12,17,l),
(-12,0,l),
(267,0,l),
(267,18,l),
(150,55,l),
(159,29,l),
(332,293,l),
(307,292,l),
(494,30,l),
(502,55,l),
(382,17,l),
(382,0,l),
(726,0,l),
(726,18,l),
(613,55,l),
(647,29,l),
(390,412,l),
(390,375,l),
(606,670,l),
(572,645,l),
(689,683,l),
(689,700,l),
(420,700,l),
(420,682,l),
(537,645,l),
(529,670,l),
(356,425,l),
(382,424,l),
(213,671,l),
(205,645,l),
(325,683,l),
(325,700,l),
(-16,700,l),
(-16,682,l),
(98,645,l),
(65,671,l),
(300,304,l),
(301,341,l),
(71,30,l),
(105,55,l)
);
}
);
width = 710;
},
{
associatedMasterId = m01;
layerId = "F046320F-1E9A-4CB2-9107-3F313C602A8C";
name = "2. Jan. 24, 00:11";
shapes = (
{
closed = 1;
nodes = (
(170,50,l),
(329,297,l),
(502,50,l),
(610,50,l),
(404,358,ls),
(365,417,o),
(347,403,o),
(319,361,cs),
(108,50,l)
);
},
{
closed = 1;
nodes = (
(261,0,l),
(261,20,l),
(170,50,l),
(108,50,l),
(14,19,l),
(14,0,l)
);
},
{
closed = 1;
nodes = (
(700,0,l),
(700,20,l),
(609,50,l),
(502,50,l),
(408,19,l),
(408,0,l)
);
},
{
closed = 1;
nodes = (
(579,650,l),
(517,650,l),
(359,420,l),
(205,650,l),
(101,650,l),
(288,355,ls),
(324,298,o),
(351,309,o),
(380,352,cs)
);
},
{
closed = 1;
nodes = (
(205,650,l),
(299,681,l),
(299,700,l),
(10,700,l),
(10,680,l),
(101,650,l)
);
},
{
closed = 1;
nodes = (
(579,650,l),
(673,681,l),
(673,700,l),
(426,700,l),
(426,680,l),
(517,650,l)
);
}
);
width = 710;
},
{
anchors = (
{
name = top;
pos = (358,700);
}
);
associatedMasterId = m002;
layerId = "BB476E47-1D3A-4EAD-8F79-7C705D7E4B59";
name = "2. Jan. 24, 00:11";
shapes = (
{
closed = 1;
nodes = (
(171,48,l),
(320,274,l),
(481,48,l),
(634,48,l),
(387,417,ls),
(334,496,o),
(341,395,o),
(317,362,cs),
(84,48,l)
);
},
{
closed = 1;
nodes = (
(267,0,l),
(267,18,l),
(171,48,l),
(84,48,l),
(-12,17,l),
(-12,0,l)
);
},
{
closed = 1;
nodes = (
(726,0,l),
(726,18,l),
(634,48,l),
(481,48,l),
(382,17,l),
(382,0,l)
);
},
{
closed = 1;
nodes = (
(593,652,l),
(516,652,l),
(369,443,l),
(226,652,l),
(77,652,l),
(303,300,ls),
(346,232,o),
(345,314,o),
(372,351,cs)
);
},
{
closed = 1;
nodes = (
(226,652,l),
(325,683,l),
(325,700,l),
(-16,700,l),
(-16,682,l),
(77,652,l)
);
},
{
closed = 1;
nodes = (
(593,652,l),
(689,683,l),
(689,700,l),
(420,700,l),
(420,682,l),
(516,652,l)
);
}
);
width = 710;
}
);
unicode = 88;
},
{
glyphname = Y;
layers = (
{
anchors = (
{
name = top;
pos = (350,700);
}
);
layerId = m01;
shapes = (
{
closed = 1;
nodes = (
(469,0,l),
(469,19,l),
(358,56,l),
(375,32,l),
(375,368,l),
(365,335,l),
(572,665,l),
(545,644,l),
(656,681,l),
(656,700,l),
(409,700,l),
(409,680,l),
(517,644,l),
(509,666,l),
(341,374,l),
(359,374,l),
(196,666,l),
(188,644,l),
(299,681,l),
(299,700,l),
(0,700,l),
(0,680,l),
(108,644,l),
(82,666,l),
(289,294,l),
(280,328,l),
(280,32,l),
(297,56,l),
(189,20,l),
(189,0,l)
);
}
);
width = 656;
},
{
anchors = (
{
name = top;
pos = (338,700);
}
);
layerId = m002;
shapes = (
{
closed = 1;
nodes = (
(465,0,l),
(465,17,l),
(350,55,l),
(371,26,l),
(371,404,l),
(360,363,l),
(541,671,l),
(509,645,l),
(626,683,l),
(626,700,l),
(383,700,l),
(383,682,l),
(479,644,l),
(469,671,l),
(319,412,l),
(341,411,l),
(196,672,l),
(186,644,l),
(285,683,l),
(285,700,l),
(-46,700,l),
(-46,682,l),
(68,645,l),
(37,672,l),
(234,267,l),
(224,309,l),
(224,26,l),
(245,55,l),
(133,18,l),
(133,0,l)
);
}
);
width = 616;
},
{
anchors = (
{
name = top;
pos = (350,700);
}
);
associatedMasterId = m01;
layerId = "910689E5-F858-4CAF-834D-8F0FBE956DA8";
name = "2. Jan. 24, 00:13";
shapes = (
{
closed = 1;
nodes = (
(562,650,l),
(500,650,l),
(350,390,l),
(205,650,l),
(91,650,l),
(313,251,l)
);
},
{
closed = 1;
nodes = (
(469,0,l),
(469,19,l),
(375,50,l),
(280,50,l),
(189,20,l),
(189,0,l)
);
},
{
closed = 1;
nodes = (
(375,50,l),
(375,373,l),
(280,373,l),
(280,50,l)
);
},
{
closed = 1;
nodes = (
(205,650,l),
(299,681,l),
(299,700,l),
(0,700,l),
(0,680,l),
(91,650,l)
);
},
{
closed = 1;
nodes = (
(562,650,l),
(656,681,l),
(656,700,l),
(409,700,l),
(409,680,l),
(500,650,l)
);
}
);
width = 656;
},
{
anchors = (
{
name = top;
pos = (358,700);
}
);
associatedMasterId = m002;
layerId = "79666934-225B-4528-B173-F7EF6AEF46E4";
name = "2. Jan. 24, 00:13";
shapes = (
{
closed = 1;
nodes = (
(550,652,l),
(478,652,l),
(350,431,l),
(227,652,l),
(67,652,l),
(285,202,l)
);
},
{
closed = 1;
nodes = (
(485,0,l),
(485,17,l),
(391,48,l),
(244,48,l),
(153,18,l),
(153,0,l)
);
},
{
closed = 1;
nodes = (
(391,48,l),
(391,405,l),
(244,405,l),
(244,48,l)
);
},
{
closed = 1;
nodes = (
(227,652,l),
(305,683,l),
(305,700,l),
(-26,700,l),
(-26,682,l),
(67,652,l)
);
},
{
closed = 1;
nodes = (
(550,652,l),
(646,683,l),
(646,700,l),
(403,700,l),
(403,682,l),
(478,652,l)
);
}
);
width = 656;
}
);
unicode = 89;
},
{
glyphname = Z;
layers = (
{
anchors = (
{
name = top;
pos = (314,700);
}
);
layerId = m01;
shapes = (
{
closed = 1;
nodes = (
(578,0,l),
(578,201,l),
(532,211,l),
(500,37,l),
(522,50,l),
(145,50,l),
(153,35,l),
(580,700,l),
(80,700,l),
(46,500,l),
(67,500,l),
(154,666,l),
(128,650,l),
(447,650,l),
(439,665,l),
(31,20,l),
(31,0,l)
);
}
);
width = 620;
},
{
anchors = (
{
name = top;
pos = (368,700);
}
);
layerId = m002;
shapes = (
{
closed = 1;
nodes = (
(634,0,l),
(634,199,l),
(568,219,l),
(534,32,l),
(560,54,l),
(197,54,l),
(207,35,l),
(634,700,l),
(85,700,l),
(50,496,l),
(99,496,l),
(188,666,l),
(156,646,l),
(458,646,l),
(448,665,l),
(35,18,l),
(35,0,l)
);
}
);
width = 670;
},
{
anchors = (
{
name = top;
pos = (338,700);
}
);
associatedMasterId = m002;
layerId = "DF456F91-3A1C-4195-89A3-DD283B29AC45";
name = "2. Jan. 24, 00:52";
shapes = (
{
closed = 1;
nodes = (
(604,700,l),
(440,700,l),
(5,18,l),
(164,15,l)
);
},
{
closed = 1;
nodes = (
(604,0,l),
(604,54,l),
(115,54,l),
(5,18,l),
(5,0,l)
);
},
{
closed = 1;
nodes = (
(604,199,l),
(538,219,l),
(508,54,l),
(604,0,l)
);
},
{
closed = 1;
nodes = (
(69,496,l),
(177,700,l),
(55,700,l),
(20,496,l)
);
},
{
closed = 1;
nodes = (
(493,646,l),
(529,700,l),
(57,700,l),
(57,646,l)
);
}
);
width = 620;
},
{
anchors = (
{
name = top;
pos = (314,700);
}
);
associatedMasterId = m01;
layerId = "345EA7E1-6674-4C14-AB06-E1D43D2DBF31";
name = "2. Jan. 24, 00:52";
shapes = (
{
closed = 1;
nodes = (
(580,700,l),
(461,700,l),
(31,20,l),
(132,1,l)
);
},
{
closed = 1;
nodes = (
(578,0,l),
(578,50,l),
(123,50,l),
(31,20,l),
(31,0,l)
);
},
{
closed = 1;
nodes = (
(578,201,l),
(532,211,l),
(503,51,l),
(578,0,l)
);
},
{
closed = 1;
nodes = (
(67,500,l),
(172,700,l),
(80,700,l),
(46,500,l)
);
},
{
closed = 1;
nodes = (
(472,650,l),
(505,700,l),
(83,700,l),
(83,650,l)
);
}
);
width = 620;
}
);
unicode = 90;
},
{
color = 5;
glyphname = a;
layers = (
{
anchors = (
{
name = ogo;
pos = (315,0);
},
{
name = top;
pos = (250,500);
}
);
layerId = m002;
shapes = (
{
closed = 1;
nodes = (
(241,-16,o),
(287,22,o),
(324,61,c),
(312,72,l),
(315,-5,l),
(326,-16,l),
(524,20,l),
(524,41,l),
(429,58,l),
(451,24,l),
(451,391,ls),
(451,465,o),
(375,516,o),
(266,516,cs),
(140,516,o),
(42,453,o),
(42,371,cs),
(42,326,l),
(177,359,l),
(180,391,ls),
(186,452,o),
(221,481,o),
(250,481,cs),
(277,481,o),
(313,442,o),
(313,371,cs),
(313,266,l),
(333,289,l),
(174,283,o),
(29,234,o),
(29,147,cs),
(29,65,o),
(76,-16,o),
(193,-16,cs)
);
},
{
closed = 1;
nodes = (
(211,36,o),
(169,97,o),
(169,177,cs),
(169,233,o),
(228,246,o),
(338,248,c),
(313,269,l),
(313,79,l),
(333,121,l),
(275,61,o),
(244,36,o),
(227,36,cs)
);
}
);
width = 525;
},
{
associatedMasterId = m01;
layerId = "DC0490B7-783B-4ABB-9CE4-D8D1AAD9D32C";
name = "1. Jan. 24, 11:25";
shapes = (
{
closed = 1;
nodes = (
(508,18,l),
(508,34,l),
(405,47,l),
(405,391,ls),
(405,464,o),
(351,516,o),
(275,516,cs),
(144,516,o),
(68,456,o),
(68,371,cs),
(68,336,l),
(151,356,l),
(154,391,ls),
(159,445,o),
(192,483,o),
(251,483,cs),
(288,483,o),
(319,437,o),
(319,371,cs),
(319,65,l),
(321,-11,l),
(331,-17,l)
);
},
{
closed = 1;
nodes = (
(236,-16,o),
(285,17,o),
(331,64,c),
(328,115,l),
(288,70,o),
(256,34,o),
(217,34,cs),
(178,34,o),
(143,102,o),
(143,177,cs),
(143,229,o),
(215,250,o),
(351,249,c),
(350,288,l),
(187,288,o),
(55,244,o),
(55,147,cs),
(55,63,o),
(90,-16,o),
(183,-16,cs)
);
}
);
width = 505;
},
{
anchors = (
{
name = ogo;
pos = (321,1);
},
{
name = top;
pos = (251,490);
}
);
layerId = m01;
name = Regular;
shapes = (
{
closed = 1;
nodes = (
(236,-16,o),
(284,16,o),
(329,61,c),
(318,70,l),
(321,-11,l),
(331,-17,l),
(508,18,l),
(508,34,l),
(387,49,l),
(405,29,l),
(405,391,ls),
(405,464,o),
(351,516,o),
(275,516,cs),
(144,516,o),
(68,456,o),
(68,371,cs),
(68,336,l),
(151,356,l),
(154,391,ls),
(159,445,o),
(192,483,o),
(251,483,cs),
(288,483,o),
(319,437,o),
(319,371,cs),
(319,269,l),
(335,287,l),
(180,285,o),
(55,241,o),
(55,147,cs),
(55,63,o),
(90,-16,o),
(183,-16,cs)
);
},
{
closed = 1;
nodes = (
(178,34,o),
(143,102,o),
(143,177,cs),
(143,228,o),
(211,248,o),
(340,249,c),
(319,267,l),
(319,87,l),
(329,116,l),
(289,71,o),
(256,34,o),
(217,34,cs)
);
}
);
width = 505;
},
{
associatedMasterId = m002;
layerId = "9786D3B8-35CA-4461-9761-9B70B7F15B3B";
name = "1. Jan. 24, 12:19";
shapes = (
{
closed = 1;
nodes = (
(544,20,l),
(544,33,l),
(451,46,l),
(451,391,ls),
(451,465,o),
(375,518,o),
(266,518,cs),
(140,518,o),
(42,453,o),
(42,371,cs),
(42,326,l),
(177,359,l),
(180,391,ls),
(186,452,o),
(221,481,o),
(250,481,cs),
(277,481,o),
(313,442,o),
(313,371,cs),
(313,65,l),
(315,-5,l),
(326,-16,l)
);
},
{
closed = 1;
nodes = (
(266,-16,o),
(336,75,o),
(377,118,c),
(371,164,l),
(288,71,o),
(248,36,o),
(227,36,cs),
(211,36,o),
(169,97,o),
(169,177,cs),
(169,243,o),
(249,249,o),
(397,247,c),
(396,290,l),
(215,295,o),
(29,245,o),
(29,147,cs),
(29,65,o),
(76,-16,o),
(193,-16,cs)
);
}
);
width = 525;
}
);
unicode = 97;
},
{
color = 5;
glyphname = ae;
layers = (
{
layerId = m01;
shapes = (
{
closed = 1;
nodes = (
(595,-13,o),
(673,26,o),
(712,80,c),
(690,108,l),
(652,72,o),
(595,47,o),
(552,47,cs),
(456,47,o),
(390,137,o),
(395,278,c),
(377,262,l),
(719,262,l),
(720,272,o),
(720,281,o),
(720,291,cs),
(720,420,o),
(645,517,o),
(530,517,cs),
(468,517,o),
(417,492,o),
(379,450,c),
(356,490,o),
(308,516,o),
(255,516,cs),
(124,516,o),
(38,456,o),
(38,371,cs),
(38,336,l),
(121,356,l),
(124,391,ls),
(129,445,o),
(172,483,o),
(231,483,cs),
(268,483,o),
(309,437,o),
(309,371,cs),
(309,279,l),
(325,297,l),
(167,295,o),
(25,241,o),
(25,147,cs),
(25,63,o),
(70,-16,o),
(163,-16,cs),
(218,-16,o),
(279,-3,o),
(369,71,c),
(348,70,l),
(385,13,o),
(445,-13,o),
(522,-13,cs)
);
},
{
closed = 1;
nodes = (
(113,228,o),
(199,258,o),
(330,259,c),
(314,269,l),
(310,261,o),
(310,248,o),
(310,237,cs),
(310,175,o),
(319,125,o),
(338,87,c),
(350,108,l),
(275,49,o),
(235,34,o),
(197,34,cs),
(158,34,o),
(113,102,o),
(113,177,cs)
);
},
{
closed = 1;
nodes = (
(395,335,l),
(404,419,o),
(445,478,o),
(498,478,cs),
(568,478,o),
(620,395,o),
(623,287,c),
(640,303,l),
(377,298,l),
(395,280,l)
);
}
);
width = 765;
},
{
layerId = m002;
shapes = (
{
closed = 1;
nodes = (
(607,-15,o),
(700,32,o),
(734,80,c),
(693,131,l),
(643,75,o),
(590,49,o),
(552,49,cs),
(476,49,o),
(416,131,o),
(421,283,c),
(399,260,l),
(745,260,l),
(746,270,o),
(746,279,o),
(746,289,cs),
(746,426,o),
(658,519,o),
(530,519,cs),
(471,519,o),
(421,501,o),
(382,471,c),
(348,500,o),
(292,518,o),
(220,518,cs),
(110,518,o),
(12,452,o),
(12,371,cs),
(12,326,l),
(147,359,l),
(150,391,ls),
(156,452,o),
(189,481,o),
(218,481,cs),
(249,481,o),
(283,443,o),
(283,371,cs),
(283,276,l),
(303,299,l),
(145,291,o),
(-1,233,o),
(-1,147,cs),
(-1,66,o),
(47,-18,o),
(163,-18,cs),
(217,-18,o),
(280,10,o),
(355,66,c),
(330,65,l),
(371,10,o),
(436,-15,o),
(522,-15,cs)
);
},
{
closed = 1;
nodes = (
(139,233,o),
(200,254,o),
(309,257,c),
(290,267,l),
(284,262,o),
(284,248,o),
(284,237,cs),
(284,172,o),
(296,122,o),
(318,82,c),
(335,112,l),
(255,46,o),
(226,36,o),
(197,36,cs),
(179,36,o),
(139,97,o),
(139,177,cs)
);
},
{
closed = 1;
nodes = (
(421,338,l),
(430,423,o),
(464,476,o),
(498,476,cs),
(545,476,o),
(592,433,o),
(599,276,c),
(619,306,l),
(399,300,l),
(421,279,l)
);
}
);
width = 765;
},
{
associatedMasterId = m01;
layerId = "B65321F4-4844-4506-B17C-728D37A61E98";
name = "1. Jan. 24, 12:08";
shapes = (
{
closed = 1;
nodes = (
(595,-13,o),
(673,26,o),
(712,80,c),
(690,108,l),
(652,72,o),
(595,47,o),
(552,47,cs),
(460,47,o),
(395,130,o),
(395,262,c),
(719,262,l),
(731,405,o),
(653,517,o),
(530,517,cs),
(396,517,o),
(311,401,o),
(310,237,cs),
(309,61,o),
(391,-13,o),
(522,-13,cs)
);
},
{
closed = 1;
nodes = (
(216,-16,o),
(275,-3,o),
(361,64,c),
(358,115,l),
(278,50,o),
(236,34,o),
(197,34,cs),
(158,34,o),
(113,102,o),
(113,177,cs),
(113,229,o),
(205,260,o),
(341,259,c),
(340,298,l),
(177,298,o),
(25,244,o),
(25,147,cs),
(25,63,o),
(70,-16,o),
(163,-16,cs)
);
},
{
closed = 1;
nodes = (
(395,391,ls),
(395,464,o),
(331,516,o),
(255,516,cs),
(124,516,o),
(38,456,o),
(38,371,cs),
(38,336,l),
(121,356,l),
(124,391,ls),
(129,445,o),
(172,483,o),
(231,483,cs),
(268,483,o),
(309,437,o),
(309,371,cs),
(309,279,l),
(395,262,l)
);
},
{
closed = 1;
nodes = (
(393,401,o),
(437,478,o),
(498,478,cs),
(566,478,o),
(617,401,o),
(622,298,c),
(626,302,ls),
(628,304,o),
(576,304,o),
(518,302,cs),
(393,298,l)
);
}
);
width = 765;
},
{
associatedMasterId = m002;
layerId = "F63CEA10-428A-49AA-91D0-C9B4F732CCAF";
name = "1. Jan. 24, 12:22";
shapes = (
{
closed = 1;
nodes = (
(607,-15,o),
(700,32,o),
(734,80,c),
(693,131,l),
(643,75,o),
(590,49,o),
(552,49,cs),
(480,49,o),
(422,123,o),
(421,260,c),
(745,260,l),
(758,413,o),
(667,519,o),
(530,519,cs),
(375,519,o),
(285,399,o),
(284,237,cs),
(283,63,o),
(372,-15,o),
(522,-15,cs)
);
},
{
closed = 1;
nodes = (
(224,-18,o),
(299,19,o),
(387,90,c),
(382,150,l),
(264,50,o),
(231,36,o),
(197,36,cs),
(179,36,o),
(139,97,o),
(139,177,cs),
(139,243,o),
(223,260,o),
(367,257,c),
(366,300,l),
(186,306,o),
(-1,244,o),
(-1,147,cs),
(-1,66,o),
(47,-18,o),
(163,-18,cs)
);
},
{
closed = 1;
nodes = (
(421,391,ls),
(421,463,o),
(346,518,o),
(220,518,cs),
(110,518,o),
(12,452,o),
(12,371,cs),
(12,326,l),
(147,359,l),
(150,391,ls),
(156,452,o),
(189,481,o),
(218,481,cs),
(249,481,o),
(283,443,o),
(283,371,cs),
(283,281,l),
(421,254,l)
);
},
{
closed = 1;
nodes = (
(420,407,o),
(459,476,o),
(498,476,cs),
(545,476,o),
(591,434,o),
(598,281,c),
(644,301,ls),
(651,304,o),
(578,306,o),
(517,304,cs),
(419,301,l)
);
}
);
width = 765;
}
);
unicode = 230;
},
{
color = 5;
glyphname = b;
layers = (
{
layerId = m002;
shapes = (
{
closed = 1;
nodes = (
(406,-14,o),
(537,107,o),
(537,286,cs),
(537,425,o),
(434,517,o),
(327,517,cs),
(273,517,o),
(223,503,o),
(181,483,c),
(194,467,l),
(194,718,l),
(196,788,l),
(185,806,l),
(-32,741,l),
(-32,720,l),
(74,705,l),
(52,740,l),
(52,42,l),
(129,10,o),
(184,-14,o),
(271,-14,cs)
);
},
{
closed = 1;
nodes = (
(250,30,o),
(216,48,o),
(180,82,c),
(194,48,l),
(194,464,l),
(171,423,l),
(219,466,o),
(243,467,o),
(258,467,cs),
(332,467,o),
(393,389,o),
(393,260,cs),
(393,122,o),
(336,30,o),
(284,30,cs)
);
}
);
width = 573;
},
{
associatedMasterId = m01;
layerId = "8F5C45DE-E011-4AF6-A467-DD6264DF4D65";
name = "1. Jan. 24, 11:26";
shapes = (
{
closed = 1;
nodes = (
(153,44,l),
(153,718,l),
(155,794,l),
(145,800,l),
(-41,745,l),
(-41,729,l),
(63,717,l),
(63,44,l)
);
},
{
closed = 1;
nodes = (
(378,-12,o),
(496,111,o),
(496,286,c),
(404,258,l),
(404,126,o),
(342,28,o),
(255,28,cs),
(212,28,o),
(162,65,o),
(123,104,cs),
(122,105,l),
(64,44,l),
(111,18,l),
(136,0,o),
(179,-12,o),
(214,-12,cs)
);
},
{
closed = 1;
nodes = (
(496,286,l),
(496,420,o),
(407,515,o),
(284,515,cs),
(231,515,o),
(162,482,o),
(116,435,c),
(119,385,l),
(158,430,o),
(209,469,o),
(243,469,cs),
(337,469,o),
(404,382,o),
(404,258,c)
);
}
);
width = 543;
},
{
layerId = m01;
name = Regular;
shapes = (
{
closed = 1;
nodes = (
(378,-12,o),
(496,111,o),
(496,286,cs),
(496,420,o),
(407,515,o),
(284,515,cs),
(241,515,o),
(187,493,o),
(143,458,c),
(153,448,l),
(153,718,l),
(155,794,l),
(145,800,l),
(-41,745,l),
(-41,729,l),
(81,715,l),
(63,735,l),
(63,44,l),
(135,0,o),
(179,-12,o),
(214,-12,cs)
);
},
{
closed = 1;
nodes = (
(219,28,o),
(178,54,o),
(143,86,c),
(153,59,l),
(153,438,l),
(142,410,l),
(177,443,o),
(215,469,o),
(243,469,cs),
(337,469,o),
(404,382,o),
(404,258,cs),
(404,126,o),
(342,28,o),
(255,28,cs)
);
}
);
width = 543;
},
{
associatedMasterId = m002;
layerId = "3C6AEFFA-3A29-4C3D-9CDF-D070C56B3B38";
name = "1. Jan. 24, 12:24";
shapes = (
{
closed = 1;
nodes = (
(179,42,l),
(179,718,l),
(181,788,l),
(170,806,l),
(-67,741,l),
(-67,730,l),
(37,718,l),
(37,42,l)
);
},
{
closed = 1;
nodes = (
(394,-14,o),
(528,112,o),
(522,298,c),
(378,254,l),
(377,119,o),
(320,30,o),
(269,30,cs),
(227,30,o),
(188,58,o),
(141,105,cs),
(121,125,l),
(37,42,l),
(91,20,l),
(114,10,o),
(169,-14,o),
(256,-14,cs)
);
},
{
closed = 1;
nodes = (
(522,290,l),
(520,426,o),
(418,517,o),
(312,517,cs),
(215,517,o),
(129,473,o),
(90,429,c),
(96,363,l),
(185,465,o),
(224,467,o),
(243,467,cs),
(319,467,o),
(382,383,o),
(378,246,c)
);
}
);
width = 543;
}
);
unicode = 98;
},
{
color = 5;
glyphname = c;
layers = (
{
anchors = (
{
name = ced;
pos = (270,0);
},
{
name = top;
pos = (268,500);
}
);
layerId = m01;
shapes = (
{
closed = 1;
nodes = (
(331,-13,o),
(407,25,o),
(454,79,c),
(436,105,l),
(395,72,o),
(340,48,o),
(304,48,cs),
(208,48,o),
(135,143,o),
(135,277,cs),
(135,403,o),
(189,489,o),
(267,489,cs),
(326,489,o),
(378,415,o),
(391,339,c),
(432,339,l),
(432,490,l),
(410,490,o),
(386,496,o),
(362,503,cs),
(334,510,o),
(306,517,o),
(280,516,cs),
(138,510,o),
(45,399,o),
(45,234,cs),
(45,89,o),
(138,-13,o),
(270,-13,cs)
);
}
);
width = 489;
},
{
anchors = (
{
name = ced;
pos = (253,0);
},
{
name = top;
pos = (260,500);
}
);
layerId = m002;
shapes = (
{
closed = 1;
nodes = (
(344,-15,o),
(434,31,o),
(476,80,c),
(443,127,l),
(387,75,o),
(334,50,o),
(304,50,cs),
(228,50,o),
(161,137,o),
(161,277,cs),
(161,406,o),
(210,485,o),
(260,487,cs),
(305,488,o),
(352,422,o),
(366,337,c),
(428,337,l),
(428,501,l),
(412,500,o),
(395,503,o),
(374,507,cs),
(345,512,o),
(317,519,o),
(259,517,cs),
(123,511,o),
(19,403,o),
(19,234,cs),
(19,83,o),
(126,-15,o),
(253,-15,cs)
);
}
);
width = 499;
}
);
unicode = 99;
},
{
color = 5;
glyphname = d;
layers = (
{
layerId = m002;
shapes = (
{
closed = 1;
nodes = (
(299,-16,o),
(353,8,o),
(395,46,c),
(381,58,l),
(386,5,l),
(395,-12,l),
(606,30,l),
(606,43,l),
(497,59,l),
(519,34,l),
(519,735,l),
(524,805,l),
(512,823,l),
(296,758,l),
(296,737,l),
(402,722,l),
(380,757,l),
(380,482,l),
(394,499,l),
(362,511,o),
(327,518,o),
(295,518,cs),
(135,518,o),
(24,403,o),
(24,248,cs),
(24,85,o),
(120,-16,o),
(243,-16,cs)
);
},
{
closed = 1;
nodes = (
(231,39,o),
(173,122,o),
(173,271,cs),
(173,393,o),
(221,479,o),
(272,479,cs),
(313,479,o),
(352,469,o),
(395,444,c),
(380,474,l),
(380,74,l),
(395,114,l),
(354,63,o),
(320,39,o),
(295,39,cs)
);
}
);
width = 592;
},
{
associatedMasterId = m01;
layerId = "E45AF11D-5959-4179-A5F9-D0A2E97EA0E1";
name = "1. Jan. 24, 11:32";
shapes = (
{
closed = 1;
nodes = (
(585,28,l),
(585,44,l),
(478,57,l),
(478,735,l),
(483,811,l),
(473,817,l),
(287,762,l),
(287,746,l),
(391,734,l),
(391,65,l),
(398,-1,l),
(408,-7,l)
);
},
{
closed = 1;
nodes = (
(297,-16,o),
(371,27,o),
(429,88,c),
(437,102,l),
(409,123,l),
(405,121,o),
(402,115,o),
(402,115,c),
(366,69,o),
(319,37,o),
(290,37,cs),
(195,37,o),
(132,128,o),
(132,271,cs),
(132,388,o),
(184,481,o),
(265,481,cs),
(300,481,o),
(349,469,o),
(383,451,cs),
(405,439,o),
(421,427,o),
(421,420,cs),
(421,415,l),
(452,451,l),
(443,455,l),
(404,491,o),
(337,516,o),
(280,516,cs),
(134,516,o),
(35,399,o),
(35,248,cs),
(35,88,o),
(121,-16,o),
(250,-16,cs)
);
}
);
width = 582;
},
{
layerId = m01;
name = Regular;
shapes = (
{
closed = 1;
nodes = (
(291,-16,o),
(350,15,o),
(403,63,c),
(390,71,l),
(398,-1,l),
(408,-7,l),
(585,28,l),
(585,44,l),
(460,59,l),
(478,39,l),
(478,735,l),
(483,811,l),
(473,817,l),
(287,762,l),
(287,746,l),
(409,732,l),
(391,752,l),
(391,471,l),
(402,483,l),
(364,504,o),
(320,516,o),
(280,516,cs),
(134,516,o),
(35,399,o),
(35,248,cs),
(35,88,o),
(121,-16,o),
(250,-16,cs)
);
},
{
closed = 1;
nodes = (
(195,37,o),
(132,128,o),
(132,271,cs),
(132,388,o),
(184,481,o),
(265,481,cs),
(300,481,o),
(349,470,o),
(406,437,c),
(391,464,l),
(391,84,l),
(401,114,l),
(365,68,o),
(319,37,o),
(290,37,cs)
);
}
);
width = 582;
},
{
associatedMasterId = m002;
layerId = "CE98E8B8-19C8-4657-9D47-E85C0B949AE2";
name = "1. Jan. 24, 12:27";
shapes = (
{
closed = 1;
nodes = (
(611,30,l),
(611,43,l),
(504,56,l),
(504,735,l),
(509,805,l),
(497,823,l),
(261,758,l),
(261,747,l),
(365,735,l),
(365,65,l),
(371,5,l),
(380,-12,l)
);
},
{
closed = 1;
nodes = (
(316,-16,o),
(398,44,o),
(436,119,cs),
(437,121,l),
(414,133,l),
(390,121,o),
(375,117,o),
(380,114,c),
(339,62,o),
(305,39,o),
(280,39,cs),
(216,39,o),
(158,122,o),
(158,271,cs),
(158,393,o),
(206,479,o),
(257,479,cs),
(295,479,o),
(332,470,o),
(371,449,cs),
(389,439,o),
(395,437,o),
(395,420,cs),
(395,361,l),
(471,449,l),
(466,451,l),
(435,484,o),
(349,518,o),
(280,518,cs),
(120,518,o),
(9,403,o),
(9,248,cs),
(9,85,o),
(105,-16,o),
(228,-16,cs)
);
}
);
width = 582;
}
);
unicode = 100;
},
{
color = 5;
glyphname = eth;
layers = (
{
layerId = m01;
shapes = (
{
closed = 1;
nodes = (
(430,-15,o),
(511,94,o),
(511,267,cs),
(511,474,o),
(456,600,o),
(348,659,c),
(344,642,l),
(412,704,l),
(385,733,l),
(305,661,l),
(328,669,l),
(283,690,o),
(228,699,o),
(167,699,c),
(167,663,l),
(208,663,o),
(248,651,o),
(284,625,c),
(286,644,l),
(216,581,l),
(242,550,l),
(318,619,l),
(297,613,l),
(340,579,o),
(373,523,o),
(394,445,c),
(400,455,l),
(368,470,o),
(329,477,o),
(285,477,cs),
(138,477,o),
(45,384,o),
(45,237,cs),
(45,82,o),
(138,-15,o),
(285,-15,cs)
);
},
{
closed = 1;
nodes = (
(205,20,o),
(137,115,o),
(137,265,cs),
(137,374,o),
(195,442,o),
(272,442,cs),
(362,442,o),
(419,363,o),
(419,236,cs),
(419,103,o),
(372,20,o),
(298,20,cs)
);
}
);
width = 550;
},
{
layerId = m002;
shapes = (
{
closed = 1;
nodes = (
(449,-17,o),
(547,99,o),
(547,271,cs),
(547,475,o),
(483,601,o),
(364,660,c),
(359,639,l),
(432,705,l),
(387,752,l),
(293,667,l),
(323,678,l),
(271,696,o),
(210,703,o),
(141,701,c),
(141,659,l),
(185,666,o),
(230,656,o),
(269,624,c),
(273,649,l),
(196,580,l),
(238,529,l),
(322,604,l),
(297,598,l),
(327,566,o),
(351,518,o),
(368,455,c),
(377,470,l),
(349,475,o),
(318,479,o),
(285,479,cs),
(128,479,o),
(19,390,o),
(19,237,cs),
(19,70,o),
(134,-17,o),
(285,-17,cs)
);
},
{
closed = 1;
nodes = (
(227,22,o),
(173,110,o),
(173,265,cs),
(173,380,o),
(216,440,o),
(272,440,cs),
(342,440,o),
(393,369,o),
(393,236,cs),
(393,98,o),
(350,22,o),
(298,22,cs)
);
}
);
width = 600;
},
{
associatedMasterId = m01;
layerId = "61B6939F-2C36-4E3A-A985-64CEAFBDB44F";
name = "1. Jan. 24, 12:10";
shapes = (
{
closed = 1;
nodes = (
(430,-15,o),
(511,94,o),
(511,267,cs),
(511,396,o),
(430,477,o),
(285,477,cs),
(138,477,o),
(45,384,o),
(45,237,cs),
(45,82,o),
(138,-15,o),
(285,-15,cs)
);
},
{
closed = 1;
nodes = (
(205,20,o),
(137,115,o),
(137,265,cs),
(137,374,o),
(195,442,o),
(272,442,cs),
(362,442,o),
(419,363,o),
(419,236,cs),
(419,103,o),
(372,20,o),
(298,20,cs)
);
},
{
closed = 1;
nodes = (
(511,267,l),
(511,569,o),
(393,699,o),
(167,699,c),
(167,663,l),
(301,663,o),
(419,535,o),
(419,236,c)
);
},
{
closed = 1;
nodes = (
(412,704,l),
(385,733,l),
(216,581,l),
(242,550,l)
);
}
);
width = 600;
},
{
associatedMasterId = m002;
layerId = "AC11235D-39AC-4ABB-8A6C-1F1E00AC6B66";
name = "1. Jan. 24, 12:29";
shapes = (
{
closed = 1;
nodes = (
(449,-17,o),
(547,95,o),
(547,267,cs),
(547,395,o),
(446,479,o),
(285,479,cs),
(128,479,o),
(19,390,o),
(19,237,cs),
(19,70,o),
(134,-17,o),
(285,-17,cs)
);
},
{
closed = 1;
nodes = (
(227,22,o),
(173,110,o),
(173,265,cs),
(173,380,o),
(216,440,o),
(272,440,cs),
(342,440,o),
(393,369,o),
(393,236,cs),
(393,98,o),
(350,22,o),
(298,22,cs)
);
},
{
closed = 1;
nodes = (
(547,271,l),
(546,578,o),
(403,710,o),
(141,701,c),
(141,659,l),
(267,678,o),
(396,561,o),
(393,224,c)
);
},
{
closed = 1;
nodes = (
(432,705,l),
(387,752,l),
(196,580,l),
(238,529,l)
);
}
);
width = 600;
}
);
unicode = 240;
},
{
glyphname = dcroat;
layers = (
{
layerId = m01;
shapes = (
{
closed = 1;
nodes = (
(585,28,l),
(585,44,l),
(478,57,l),
(478,735,l),
(483,811,l),
(473,817,l),
(287,762,l),
(287,746,l),
(391,734,l),
(391,65,l),
(398,-1,l),
(408,-7,l)
);
},
{
closed = 1;
nodes = (
(297,-16,o),
(371,27,o),
(429,88,c),
(437,102,l),
(409,123,l),
(405,121,o),
(402,115,o),
(402,115,c),
(366,69,o),
(319,37,o),
(290,37,cs),
(195,37,o),
(132,128,o),
(132,271,cs),
(132,388,o),
(184,481,o),
(265,481,cs),
(300,481,o),
(349,469,o),
(383,451,cs),
(405,439,o),
(421,427,o),
(421,420,cs),
(421,415,l),
(452,451,l),
(443,455,l),
(404,491,o),
(337,516,o),
(280,516,cs),
(134,516,o),
(35,399,o),
(35,248,cs),
(35,88,o),
(121,-16,o),
(250,-16,cs)
);
},
{
closed = 1;
nodes = (
(585,599,l),
(585,639,l),
(237,639,l),
(237,599,l)
);
}
);
width = 600;
},
{
layerId = m002;
shapes = (
{
closed = 1;
nodes = (
(611,30,l),
(611,43,l),
(504,56,l),
(504,735,l),
(509,805,l),
(479,823,l),
(261,758,l),
(261,747,l),
(365,735,l),
(365,65,l),
(371,5,l),
(399,-12,l)
);
},
{
closed = 1;
nodes = (
(316,-18,o),
(406,38,o),
(457,97,cs),
(459,99,l),
(414,133,l),
(390,121,o),
(375,117,o),
(380,114,c),
(339,62,o),
(305,39,o),
(290,39,cs),
(216,39,o),
(158,122,o),
(158,271,cs),
(158,393,o),
(206,479,o),
(265,479,cs),
(295,479,o),
(332,470,o),
(371,449,cs),
(389,439,o),
(395,437,o),
(395,420,cs),
(395,361,l),
(471,449,l),
(466,451,l),
(435,484,o),
(349,518,o),
(280,518,cs),
(120,518,o),
(9,403,o),
(9,248,cs),
(9,85,o),
(105,-18,o),
(250,-18,cs)
);
},
{
closed = 1;
nodes = (
(611,597,l),
(611,641,l),
(211,641,l),
(211,597,l)
);
}
);
width = 600;
}
);
unicode = 273;
},
{
glyphname = e;
layers = (
{
anchors = (
{
name = ogo;
pos = (257,0);
},
{
name = top;
pos = (235,500);
}
);
background = {
shapes = (
{
closed = 1;
nodes = (
(412,517,o),
(509,416,o),
(509,262,cs),
(509,91,o),
(412,-15,o),
(273,-15,cs),
(126,-15,o),
(33,91,o),
(33,262,cs),
(33,416,o),
(126,517,o),
(273,517,cs)
);
},
{
closed = 1;
nodes = (
(185,483,o),
(134,426,o),
(134,290,cs),
(134,101,o),
(194,18,o),
(286,18,cs),
(355,18,o),
(408,81,o),
(408,231,cs),
(408,407,o),
(347,483,o),
(260,483,cs)
);
}
);
};
layerId = m002;
shapes = (
{
closed = 1;
nodes = (
(342,-16,o),
(435,32,o),
(469,80,c),
(428,131,l),
(378,75,o),
(325,49,o),
(287,49,cs),
(212,49,o),
(151,143,o),
(156,292,c),
(134,270,l),
(480,270,l),
(481,280,o),
(481,290,o),
(481,299,cs),
(481,442,o),
(384,516,o),
(265,516,cs),
(109,516,o),
(9,396,o),
(9,235,cs),
(9,84,o),
(116,-16,o),
(257,-16,cs)
);
},
{
closed = 1;
nodes = (
(149,408,o),
(190,476,o),
(233,476,cs),
(281,476,o),
(326,440,o),
(333,287,c),
(379,311,l),
(132,311,l),
(154,286,l)
);
}
);
width = 510;
},
{
associatedMasterId = m01;
background = {
shapes = (
{
closed = 1;
nodes = (
(422,517,o),
(519,416,o),
(519,262,cs),
(519,91,o),
(422,-15,o),
(283,-15,cs),
(136,-15,o),
(43,91,o),
(43,262,cs),
(43,416,o),
(136,517,o),
(283,517,cs)
);
},
{
closed = 1;
nodes = (
(195,483,o),
(144,426,o),
(144,290,cs),
(144,101,o),
(204,18,o),
(296,18,cs),
(365,18,o),
(418,81,o),
(418,231,cs),
(418,407,o),
(357,483,o),
(270,483,cs)
);
},
{
closed = 1;
nodes = (
(140,517,o),
(46,401,o),
(45,237,cs),
(44,91,o),
(137,-13,o),
(267,-13,cs),
(315,-13,o),
(367,7,o),
(409,38,cs),
(443,64,o),
(451,88,o),
(444,95,cs),
(436,103,o),
(420,89,o),
(384,70,cs),
(357,55,o),
(326,47,o),
(297,47,cs),
(205,47,o),
(140,143,o),
(140,272,c),
(464,272,l),
(477,426,o),
(398,517,o),
(275,517,cs)
);
},
{
closed = 1;
nodes = (
(138,411,o),
(182,489,o),
(243,489,cs),
(311,489,o),
(362,411,o),
(367,308,c),
(371,312,ls),
(373,314,o),
(321,314,o),
(263,312,cs),
(138,308,l)
);
}
);
};
layerId = "E099E9C4-6D0B-439C-8099-D4BFC9A3B348";
name = "1. Jan. 24, 11:33";
shapes = (
{
closed = 1;
nodes = (
(340,-13,o),
(418,26,o),
(457,80,c),
(435,108,l),
(397,72,o),
(340,47,o),
(297,47,cs),
(205,47,o),
(140,140,o),
(140,272,c),
(464,272,l),
(476,415,o),
(398,517,o),
(275,517,cs),
(141,517,o),
(46,401,o),
(45,237,cs),
(44,91,o),
(136,-13,o),
(267,-13,cs)
);
},
{
closed = 1;
nodes = (
(138,411,o),
(182,478,o),
(243,478,cs),
(311,478,o),
(362,411,o),
(367,308,c),
(371,312,ls),
(373,314,o),
(321,314,o),
(263,312,cs),
(138,308,l)
);
}
);
width = 510;
},
{
anchors = (
{
name = ogo;
pos = (245,-6);
},
{
name = top;
pos = (243,490);
}
);
background = {
shapes = (
{
closed = 1;
nodes = (
(422,517,o),
(519,416,o),
(519,262,cs),
(519,91,o),
(422,-15,o),
(283,-15,cs),
(136,-15,o),
(43,91,o),
(43,262,cs),
(43,416,o),
(136,517,o),
(283,517,cs)
);
},
{
closed = 1;
nodes = (
(195,483,o),
(144,426,o),
(144,290,cs),
(144,101,o),
(204,18,o),
(296,18,cs),
(365,18,o),
(418,81,o),
(418,231,cs),
(418,407,o),
(357,483,o),
(270,483,cs)
);
},
{
closed = 1;
nodes = (
(140,517,o),
(46,401,o),
(45,237,cs),
(44,91,o),
(137,-13,o),
(267,-13,cs),
(315,-13,o),
(367,7,o),
(409,38,cs),
(443,64,o),
(451,88,o),
(444,95,cs),
(436,103,o),
(420,89,o),
(384,70,cs),
(357,55,o),
(326,47,o),
(297,47,cs),
(205,47,o),
(140,143,o),
(140,272,c),
(464,272,l),
(477,426,o),
(398,517,o),
(275,517,cs)
);
},
{
closed = 1;
nodes = (
(138,411,o),
(182,489,o),
(243,489,cs),
(311,489,o),
(362,411,o),
(367,308,c),
(371,312,ls),
(373,314,o),
(321,314,o),
(263,312,cs),
(138,308,l)
);
}
);
};
layerId = m01;
name = Regular;
shapes = (
{
closed = 1;
nodes = (
(340,-13,o),
(418,26,o),
(457,80,c),
(435,108,l),
(397,72,o),
(340,47,o),
(297,47,cs),
(201,47,o),
(135,147,o),
(140,288,c),
(122,272,l),
(464,272,l),
(465,282,o),
(465,291,o),
(465,301,cs),
(465,428,o),
(390,517,o),
(275,517,cs),
(140,517,o),
(45,399,o),
(45,235,cs),
(45,90,o),
(137,-13,o),
(267,-13,cs)
);
},
{
closed = 1;
nodes = (
(133,404,o),
(179,478,o),
(243,478,cs),
(314,478,o),
(365,406,o),
(368,297,c),
(372,314,l),
(120,307,l),
(138,291,l)
);
}
);
width = 510;
}
);
unicode = 101;
},
{
color = 5;
glyphname = schwa;
layers = (
{
layerId = m01;
shapes = (
{
closed = 1;
nodes = (
(170,515,o),
(92,476,o),
(53,422,c),
(75,394,l),
(113,430,o),
(170,455,o),
(213,455,cs),
(309,455,o),
(375,355,o),
(370,214,c),
(388,230,l),
(46,230,l),
(45,220,o),
(45,211,o),
(45,201,cs),
(45,74,o),
(120,-15,o),
(235,-15,cs),
(370,-15,o),
(465,103,o),
(465,267,cs),
(465,412,o),
(373,515,o),
(243,515,cs)
);
},
{
closed = 1;
nodes = (
(377,98,o),
(331,24,o),
(267,24,cs),
(196,24,o),
(145,96,o),
(142,205,c),
(138,188,l),
(390,195,l),
(372,211,l)
);
}
);
width = 510;
},
{
layerId = m002;
shapes = (
{
closed = 1;
nodes = (
(158,516,o),
(65,468,o),
(31,420,c),
(72,369,l),
(122,425,o),
(175,451,o),
(213,451,cs),
(288,451,o),
(349,357,o),
(344,208,c),
(366,230,l),
(20,230,l),
(19,220,o),
(19,210,o),
(19,201,cs),
(19,58,o),
(116,-16,o),
(235,-16,cs),
(391,-16,o),
(491,104,o),
(491,265,cs),
(491,416,o),
(384,516,o),
(243,516,cs)
);
},
{
closed = 1;
nodes = (
(351,92,o),
(310,24,o),
(267,24,cs),
(219,24,o),
(174,60,o),
(167,213,c),
(121,189,l),
(368,189,l),
(346,214,l)
);
}
);
width = 510;
},
{
associatedMasterId = m01;
layerId = "8D250E25-4A73-4E42-8D01-181B9D146360";
name = "1. Jan. 24, 12:11";
shapes = (
{
closed = 1;
nodes = (
(369,-26,o),
(464,90,o),
(465,254,cs),
(466,400,o),
(374,504,o),
(243,504,cs),
(170,504,o),
(92,465,o),
(53,411,c),
(75,383,l),
(113,419,o),
(170,444,o),
(213,444,cs),
(305,444,o),
(370,351,o),
(370,219,c),
(46,219,l),
(34,76,o),
(112,-26,o),
(235,-26,cs)
);
},
{
closed = 1;
nodes = (
(199,13,o),
(148,80,o),
(143,183,c),
(139,179,ls),
(137,177,o),
(189,177,o),
(247,179,cs),
(372,183,l),
(372,80,o),
(328,13,o),
(267,13,cs)
);
}
);
width = 510;
}
);
unicode = 601;
},
{
color = 5;
glyphname = f;
layers = (
{
layerId = m01;
shapes = (
{
closed = 1;
nodes = (
(313,0,l),
(313,19,l),
(202,56,l),
(219,32,l),
(219,480,l),
(201,462,l),
(341,462,l),
(341,502,l),
(201,502,l),
(219,484,l),
(219,598,ls),
(219,709,o),
(244,787,o),
(299,787,cs),
(353,787,o),
(375,722,o),
(395,672,c),
(431,672,l),
(442,792,l),
(417,805,o),
(362,814,o),
(328,814,cs),
(203,814,o),
(129,711,o),
(129,566,cs),
(129,484,l),
(147,502,l),
(21,502,l),
(21,462,l),
(147,462,l),
(129,480,l),
(129,32,l),
(146,56,l),
(38,20,l),
(38,0,l)
);
}
);
width = 372;
},
{
layerId = m002;
shapes = (
{
closed = 1;
nodes = (
(339,-2,l),
(339,15,l),
(224,55,l),
(245,26,l),
(245,482,l),
(223,460,l),
(367,460,l),
(367,504,l),
(223,504,l),
(245,482,l),
(245,602,ls),
(246,714,o),
(269,785,o),
(299,785,cs),
(329,785,o),
(348,728,o),
(371,670,c),
(427,670,l),
(437,787,l),
(402,805,o),
(366,816,o),
(328,816,cs),
(178,816,o),
(98,703,o),
(103,552,cs),
(103,482,l),
(125,504,l),
(-4,504,l),
(-3,460,l),
(125,460,l),
(103,482,l),
(103,26,l),
(124,55,l),
(12,16,l),
(12,-2,l)
);
}
);
width = 372;
},
{
associatedMasterId = m01;
layerId = "A8992DFB-D995-4A8B-9681-2BC8D3A33222";
name = "1. Jan. 24, 11:36";
shapes = (
{
closed = 1;
nodes = (
(219,598,l),
(219,709,o),
(244,787,o),
(299,787,cs),
(353,787,o),
(375,722,o),
(395,672,c),
(431,672,l),
(442,792,l),
(417,805,o),
(362,814,o),
(328,814,cs),
(203,814,o),
(129,711,o),
(129,566,c)
);
},
{
closed = 1;
nodes = (
(313,0,l),
(313,19,l),
(219,50,l),
(129,50,l),
(38,20,l),
(38,0,l)
);
},
{
closed = 1;
nodes = (
(219,50,l),
(219,598,l),
(129,566,l),
(129,50,l)
);
},
{
closed = 1;
nodes = (
(341,462,l),
(341,502,l),
(22,502,l),
(20,462,l)
);
}
);
width = 372;
},
{
associatedMasterId = m002;
layerId = "7DCCBFE2-2B14-43D6-ACAE-4ABB9C3E3F09";
name = "1. Jan. 24, 14:59";
shapes = (
{
closed = 1;
nodes = (
(245,602,l),
(246,714,o),
(269,785,o),
(299,785,cs),
(329,785,o),
(348,728,o),
(371,670,c),
(427,670,l),
(437,787,l),
(402,805,o),
(366,816,o),
(328,816,cs),
(178,816,o),
(98,703,o),
(103,552,c)
);
},
{
closed = 1;
nodes = (
(339,-2,l),
(339,15,l),
(227,52,l),
(121,52,l),
(12,16,l),
(12,-2,l)
);
},
{
closed = 1;
nodes = (
(245,48,l),
(245,612,l),
(103,562,l),
(103,48,l)
);
},
{
closed = 1;
nodes = (
(367,460,l),
(367,504,l),
(-4,504,l),
(-3,460,l)
);
}
);
width = 372;
}
);
unicode = 102;
},
{
color = 5;
glyphname = g;
layers = (
{
anchors = (
{
name = top;
pos = (256,500);
}
);
layerId = m01;
shapes = (
{
closed = 1;
nodes = (
(406,-216,o),
(503,-131,o),
(503,-10,cs),
(503,42,o),
(456,92,o),
(391,92,cs),
(185,92,ls),
(136,92,o),
(100,110,o),
(100,149,cs),
(100,166,o),
(129,207,o),
(137,220,c),
(123,218,l),
(154,186,o),
(199,168,o),
(254,168,cs),
(382,168,o),
(453,249,o),
(453,361,cs),
(453,403,o),
(438,440,o),
(412,465,c),
(402,458,l),
(541,450,l),
(550,458,l),
(550,497,l),
(368,485,l),
(395,480,l),
(365,503,o),
(324,515,o),
(274,515,cs),
(149,515,o),
(74,446,o),
(74,342,cs),
(74,296,o),
(89,256,o),
(114,226,c),
(114,240,l),
(105,234,o),
(93,224,o),
(81,208,cs),
(61,181,o),
(49,154,o),
(49,131,cs),
(49,85,o),
(69,47,o),
(102,24,c),
(102,40,l),
(66,4,o),
(34,-44,o),
(34,-86,cs),
(34,-162,o),
(137,-216,o),
(255,-216,cs)
);
},
{
closed = 1;
nodes = (
(84,-23,o),
(109,-8,o),
(134,22,c),
(115,17,l),
(135,6,o),
(159,0,o),
(185,0,cs),
(325,0,ls),
(401,0,o),
(446,-28,o),
(446,-67,cs),
(446,-126,o),
(379,-168,o),
(271,-168,cs),
(173,-168,o),
(84,-124,o),
(84,-62,cs)
);
},
{
closed = 1;
nodes = (
(174,438,o),
(200,480,o),
(256,480,cs),
(321,480,o),
(358,427,o),
(358,328,cs),
(358,250,o),
(319,203,o),
(267,203,cs),
(197,203,o),
(174,261,o),
(174,358,cs)
);
}
);
width = 550;
},
{
anchors = (
{
name = top;
pos = (265,500);
}
);
layerId = m002;
shapes = (
{
closed = 1;
nodes = (
(428,-218,o),
(539,-132,o),
(539,-10,cs),
(539,39,o),
(484,94,o),
(401,94,cs),
(195,94,ls),
(157,94,o),
(136,104,o),
(136,149,cs),
(136,168,o),
(154,195,o),
(154,196,c),
(139,198,l),
(173,177,o),
(215,166,o),
(264,166,cs),
(399,166,o),
(489,241,o),
(489,361,cs),
(489,402,o),
(472,438,o),
(444,465,c),
(432,456,l),
(553,447,l),
(560,456,l),
(560,501,l),
(386,488,l),
(420,484,l),
(384,505,o),
(338,517,o),
(284,517,cs),
(148,517,o),
(58,448,o),
(58,342,cs),
(58,295,o),
(76,252,o),
(107,222,c),
(110,239,l),
(95,234,o),
(81,222,o),
(70,209,cs),
(42,171,o),
(33,150,o),
(33,131,cs),
(33,84,o),
(57,45,o),
(97,23,c),
(98,45,l),
(49,-3,o),
(18,-47,o),
(18,-86,cs),
(18,-157,o),
(135,-218,o),
(265,-218,cs)
);
},
{
closed = 1;
nodes = (
(120,-28,o),
(132,-13,o),
(163,19,c),
(133,6,l),
(152,1,o),
(173,-2,o),
(195,-2,cs),
(335,-2,ls),
(400,-2,o),
(430,-20,o),
(430,-67,cs),
(430,-133,o),
(377,-176,o),
(281,-176,cs),
(194,-176,o),
(120,-129,o),
(120,-62,cs)
);
},
{
closed = 1;
nodes = (
(200,439,o),
(222,478,o),
(266,478,cs),
(324,478,o),
(352,429,o),
(352,328,cs),
(352,245,o),
(327,205,o),
(277,205,cs),
(225,205,o),
(200,255,o),
(200,358,cs)
);
}
);
width = 570;
},
{
associatedMasterId = m01;
layerId = "3192C36B-E30A-466F-8F8A-7BE123BAD7E2";
name = "1. Jan. 24, 11:37";
shapes = (
{
closed = 1;
nodes = (
(406,-216,o),
(503,-131,o),
(503,-10,cs),
(503,42,o),
(456,92,o),
(391,92,cs),
(185,92,ls),
(136,92,o),
(100,110,o),
(100,149,cs),
(100,161,o),
(111,180,o),
(121,195,cs),
(140,223,o),
(149,240,o),
(143,248,cs),
(138,255,o),
(110,245,o),
(81,208,cs),
(61,181,o),
(49,154,o),
(49,131,cs),
(49,54,o),
(105,0,o),
(185,0,cs),
(325,0,ls),
(401,0,o),
(446,-28,o),
(446,-67,cs),
(446,-126,o),
(379,-168,o),
(271,-168,cs),
(173,-168,o),
(84,-124,o),
(84,-62,cs),
(84,-35,o),
(95,-20,o),
(116,2,cs),
(149,37,o),
(173,65,o),
(164,70,cs),
(155,76,o),
(133,69,o),
(103,41,cs),
(66,4,o),
(34,-43,o),
(34,-86,cs),
(34,-162,o),
(137,-216,o),
(255,-216,cs)
);
},
{
closed = 1;
nodes = (
(382,168,o),
(453,249,o),
(453,361,cs),
(453,454,o),
(384,515,o),
(274,515,cs),
(149,515,o),
(74,446,o),
(74,342,cs),
(74,240,o),
(146,168,o),
(254,168,cs)
);
},
{
closed = 1;
nodes = (
(197,203,o),
(174,261,o),
(174,358,cs),
(174,438,o),
(200,480,o),
(256,480,cs),
(321,480,o),
(358,427,o),
(358,328,cs),
(358,250,o),
(319,203,o),
(267,203,cs)
);
},
{
closed = 1;
nodes = (
(550,458,l),
(550,497,l),
(364,485,l),
(364,454,o),
(374,460,o),
(430,457,cs),
(541,450,l)
);
}
);
width = 550;
},
{
associatedMasterId = m002;
layerId = "51F8A0D6-DCD7-4A9A-9CE2-3AE8E3E1EE1D";
name = "1. Jan. 24, 15:08";
shapes = (
{
closed = 1;
nodes = (
(418,-218,o),
(529,-132,o),
(529,-10,cs),
(529,39,o),
(474,94,o),
(391,94,cs),
(185,94,ls),
(147,94,o),
(126,104,o),
(126,149,cs),
(126,165,o),
(138,186,o),
(143,194,cs),
(167,230,o),
(177,232,o),
(164,249,cs),
(155,263,o),
(91,248,o),
(60,209,cs),
(32,171,o),
(23,150,o),
(23,131,cs),
(23,52,o),
(91,-2,o),
(185,-2,cs),
(325,-2,ls),
(390,-2,o),
(420,-20,o),
(420,-67,cs),
(420,-133,o),
(367,-176,o),
(271,-176,cs),
(184,-176,o),
(110,-129,o),
(110,-62,cs),
(110,-28,o),
(122,-13,o),
(135,1,cs),
(169,37,o),
(208,51,o),
(181,69,c),
(172,83,o),
(118,73,o),
(85,42,cs),
(37,-5,o),
(8,-48,o),
(8,-86,cs),
(8,-157,o),
(125,-218,o),
(255,-218,cs)
);
},
{
closed = 1;
nodes = (
(389,166,o),
(479,241,o),
(479,361,cs),
(479,456,o),
(394,517,o),
(274,517,cs),
(138,517,o),
(48,448,o),
(48,342,cs),
(48,239,o),
(131,166,o),
(254,166,cs)
);
},
{
closed = 1;
nodes = (
(221,205,o),
(190,257,o),
(190,358,cs),
(190,443,o),
(222,478,o),
(256,478,cs),
(300,478,o),
(342,433,o),
(342,328,cs),
(342,244,o),
(300,205,o),
(267,205,cs)
);
},
{
closed = 1;
nodes = (
(550,456,l),
(550,501,l),
(338,485,l),
(338,450,o),
(386,458,o),
(428,455,cs),
(543,447,l)
);
}
);
width = 550;
}
);
unicode = 103;
},
{
color = 5;
glyphname = h;
layers = (
{
layerId = m01;
shapes = (
{
closed = 1;
nodes = (
(611,0,l),
(611,20,l),
(503,56,l),
(520,32,l),
(520,366,ls),
(520,453,o),
(447,515,o),
(345,515,cs),
(293,515,o),
(231,479,o),
(185,440,c),
(194,430,l),
(194,718,l),
(196,794,l),
(186,800,l),
(0,745,l),
(0,729,l),
(122,715,l),
(104,735,l),
(104,32,l),
(121,56,l),
(13,20,l),
(13,0,l),
(268,0,l),
(268,30,l),
(177,55,l),
(194,32,l),
(194,426,l),
(185,399,l),
(223,436,o),
(273,470,o),
(314,470,cs),
(382,470,o),
(430,415,o),
(430,338,cs),
(430,32,l),
(447,55,l),
(356,30,l),
(356,0,l)
);
}
);
width = 611;
},
{
layerId = m002;
shapes = (
{
closed = 1;
nodes = (
(637,-2,l),
(637,16,l),
(525,53,l),
(546,24,l),
(546,376,ls),
(546,464,o),
(459,517,o),
(345,517,cs),
(298,517,o),
(248,496,o),
(207,470,c),
(220,456,l),
(220,718,l),
(222,788,l),
(211,806,l),
(-6,741,l),
(-6,720,l),
(100,705,l),
(78,730,l),
(78,26,l),
(99,55,l),
(-13,16,l),
(-13,-2,l),
(294,-2,l),
(294,27,l),
(198,54,l),
(220,26,l),
(220,463,l),
(200,427,l),
(253,467,o),
(289,468,o),
(314,468,cs),
(363,468,o),
(404,431,o),
(404,348,cs),
(404,25,l),
(426,53,l),
(330,27,l),
(330,-2,l)
);
}
);
width = 621;
},
{
associatedMasterId = m01;
layerId = "8DB1B957-2715-4A2D-B5E6-8FC92795BC9D";
name = "1. Jan. 24, 11:40";
shapes = (
{
closed = 1;
nodes = (
(611,0,l),
(611,20,l),
(520,50,l),
(520,366,ls),
(520,453,o),
(447,515,o),
(345,515,cs),
(281,515,o),
(203,462,o),
(157,415,c),
(160,374,l),
(200,419,o),
(263,470,o),
(314,470,cs),
(382,470,o),
(430,415,o),
(430,338,cs),
(430,50,l),
(356,30,l),
(356,0,l)
);
},
{
closed = 1;
nodes = (
(268,0,l),
(268,30,l),
(194,50,l),
(104,50,l),
(13,20,l),
(13,0,l)
);
},
{
closed = 1;
nodes = (
(194,50,l),
(194,718,l),
(196,794,l),
(186,800,l),
(0,745,l),
(0,729,l),
(104,717,l),
(104,50,l)
);
}
);
width = 611;
},
{
associatedMasterId = m002;
layerId = "904676F7-E2AA-437A-A7BF-FA98CB400A23";
name = "1. Jan. 24, 15:53";
shapes = (
{
closed = 1;
nodes = (
(637,-2,l),
(637,16,l),
(546,46,l),
(546,366,ls),
(546,454,o),
(459,517,o),
(345,517,cs),
(260,517,o),
(168,450,o),
(131,409,c),
(135,366,l),
(224,466,o),
(279,468,o),
(314,468,cs),
(363,468,o),
(404,421,o),
(404,338,cs),
(404,47,l),
(330,27,l),
(330,-2,l)
);
},
{
closed = 1;
nodes = (
(294,-2,l),
(294,27,l),
(201,52,l),
(96,52,l),
(-13,16,l),
(-13,-2,l)
);
},
{
closed = 1;
nodes = (
(220,48,l),
(220,718,l),
(222,788,l),
(211,806,l),
(-26,741,l),
(-26,730,l),
(78,718,l),
(78,48,l)
);
}
);
width = 611;
}
);
unicode = 104;
},
{
glyphname = hbar;
layers = (
{
layerId = m01;
shapes = (
{
closed = 1;
nodes = (
(611,0,l),
(611,20,l),
(520,50,l),
(520,366,ls),
(520,453,o),
(447,515,o),
(345,515,cs),
(281,515,o),
(203,462,o),
(157,415,c),
(160,374,l),
(200,419,o),
(263,470,o),
(314,470,cs),
(382,470,o),
(430,415,o),
(430,338,cs),
(430,50,l),
(356,30,l),
(356,0,l)
);
},
{
closed = 1;
nodes = (
(268,0,l),
(268,30,l),
(194,50,l),
(104,50,l),
(13,20,l),
(13,0,l)
);
},
{
closed = 1;
nodes = (
(194,50,l),
(194,718,l),
(196,794,l),
(186,800,l),
(0,745,l),
(0,729,l),
(104,717,l),
(104,50,l)
);
},
{
closed = 1;
nodes = (
(347,599,l),
(347,639,l),
(-1,639,l),
(-1,599,l)
);
}
);
width = 611;
},
{
layerId = m002;
shapes = (
{
closed = 1;
nodes = (
(637,-2,l),
(637,16,l),
(546,46,l),
(546,366,ls),
(546,454,o),
(459,517,o),
(345,517,cs),
(260,517,o),
(168,450,o),
(131,409,c),
(138,326,l),
(227,426,o),
(279,468,o),
(314,468,cs),
(363,468,o),
(404,421,o),
(404,338,cs),
(404,47,l),
(330,27,l),
(330,-2,l)
);
},
{
closed = 1;
nodes = (
(294,-2,l),
(294,27,l),
(201,52,l),
(96,52,l),
(-13,16,l),
(-13,-2,l)
);
},
{
closed = 1;
nodes = (
(220,48,l),
(220,718,l),
(222,788,l),
(192,806,l),
(-26,741,l),
(-26,730,l),
(78,718,l),
(78,48,l)
);
},
{
closed = 1;
nodes = (
(373,597,l),
(373,641,l),
(-27,641,l),
(-27,597,l)
);
}
);
width = 611;
}
);
unicode = 295;
},
{
glyphname = idotless;
layers = (
{
anchors = (
{
name = ogo;
pos = (145,0);
},
{
name = top;
pos = (174,500);
}
);
layerId = m01;
shapes = (
{
closed = 1;
nodes = (
(313,0,l),
(313,20,l),
(202,57,l),
(219,33,l),
(219,434,l),
(221,510,l),
(211,516,l),
(25,461,l),
(25,445,l),
(147,431,l),
(129,451,l),
(129,32,l),
(146,55,l),
(35,20,l),
(35,0,l)
);
}
);
width = 338;
},
{
anchors = (
{
name = ogo;
pos = (164,0);
},
{
name = top;
pos = (177,500);
}
);
layerId = m002;
shapes = (
{
closed = 1;
nodes = (
(339,0,l),
(339,18,l),
(224,56,l),
(245,27,l),
(245,430,l),
(247,500,l),
(217,516,l),
(19,453,l),
(19,432,l),
(125,417,l),
(103,452,l),
(103,26,l),
(124,55,l),
(9,18,l),
(9,0,l)
);
}
);
width = 338;
}
);
unicode = 305;
},
{
glyphname = j;
layers = (
{
layerId = m01;
shapes = (
{
ref = jdotless;
},
{
pos = (-130,-16);
ref = dotaccentcomb;
}
);
width = 315;
},
{
layerId = m002;
shapes = (
{
ref = jdotless;
},
{
pos = (-118,0);
ref = dotaccentcomb;
}
);
width = 315;
},
{
associatedMasterId = m01;
layerId = "AD174E00-7E5C-4841-A718-CD0FD23CFE27";
name = "1. Jan. 24, 11:45";
shapes = (
{
closed = 1;
nodes = (
(215,50,l),
(215,434,l),
(217,510,l),
(207,516,l),
(21,461,l),
(21,445,l),
(125,433,l),
(125,50,l)
);
},
{
closed = 1;
nodes = (
(56,-215,l),
(56,-215,o),
(69,-213,o),
(94,-197,cs),
(165,-155,o),
(215,-52,o),
(215,50,c),
(125,50,l),
(125,-59,o),
(92,-159,o),
(46,-192,c),
(46,-194,o),
(50,-204,o),
(55,-215,c)
);
},
{
closed = 1;
nodes = (
(193,598,o),
(220,625,o),
(220,659,cs),
(220,693,o),
(193,720,o),
(160,720,cs),
(125,720,o),
(98,693,o),
(98,659,cs),
(98,625,o),
(125,598,o),
(160,598,cs)
);
}
);
width = 318;
},
{
associatedMasterId = m002;
layerId = "855FD570-CC36-4045-BF69-C94A4A31AB19";
name = "1. Jan. 24, 14:46";
shapes = (
{
closed = 1;
nodes = (
(241,48,l),
(241,434,l),
(243,504,l),
(231,522,l),
(-5,457,l),
(-5,446,l),
(99,434,l),
(99,48,l)
);
},
{
closed = 1;
nodes = (
(61,-217,l),
(76,-214,o),
(93,-208,o),
(108,-199,cs),
(198,-145,o),
(242,-46,o),
(241,52,c),
(99,52,l),
(99,-71,o),
(59,-184,o),
(22,-195,c),
(24,-202,o),
(27,-213,o),
(30,-223,c)
);
},
{
closed = 1;
nodes = (
(210,576,o),
(246,610,o),
(246,659,cs),
(246,708,o),
(210,742,o),
(160,742,cs),
(108,742,o),
(72,708,o),
(72,659,cs),
(72,610,o),
(108,576,o),
(160,576,cs)
);
}
);
width = 318;
}
);
unicode = 106;
},
{
glyphname = jdotless;
layers = (
{
anchors = (
{
name = top;
pos = (161,500);
}
);
layerId = m01;
shapes = (
{
closed = 1;
nodes = (
(56,-215,o),
(69,-213,o),
(94,-197,cs),
(165,-155,o),
(215,-52,o),
(215,50,cs),
(215,434,l),
(217,510,l),
(207,516,l),
(21,461,l),
(21,445,l),
(143,431,l),
(125,451,l),
(125,50,ls),
(125,-59,o),
(92,-159,o),
(46,-192,c),
(55,-215,l)
);
}
);
width = 315;
},
{
anchors = (
{
name = top;
pos = (169,500);
}
);
layerId = m002;
shapes = (
{
closed = 1;
nodes = (
(76,-217,o),
(93,-208,o),
(108,-199,cs),
(198,-145,o),
(241,-46,o),
(241,52,cs),
(241,434,l),
(243,504,l),
(213,522,l),
(15,457,l),
(15,436,l),
(121,421,l),
(99,456,l),
(99,52,ls),
(99,-71,o),
(59,-184,o),
(22,-195,c),
(32,-217,l)
);
}
);
width = 315;
},
{
associatedMasterId = m01;
layerId = "1DE9B65E-76D8-4CA9-B06C-536EB58BF2F2";
name = "1. Jan. 24, 11:43";
shapes = (
{
closed = 1;
nodes = (
(215,50,l),
(215,434,l),
(217,510,l),
(207,516,l),
(21,461,l),
(21,445,l),
(125,433,l),
(125,50,l)
);
},
{
closed = 1;
nodes = (
(56,-215,l),
(56,-215,o),
(69,-213,o),
(94,-197,cs),
(165,-155,o),
(215,-52,o),
(215,50,c),
(125,50,l),
(125,-59,o),
(92,-159,o),
(46,-192,c),
(46,-194,o),
(50,-204,o),
(55,-215,c)
);
}
);
width = 315;
},
{
associatedMasterId = m002;
layerId = "A990141C-1968-4BA3-B956-CC7E93CF0C1F";
name = "1. Jan. 24, 14:47";
shapes = (
{
closed = 1;
nodes = (
(241,48,l),
(241,434,l),
(243,504,l),
(213,522,l),
(-5,457,l),
(-5,446,l),
(99,434,l),
(99,48,l)
);
},
{
closed = 1;
nodes = (
(61,-217,l),
(76,-214,o),
(93,-208,o),
(108,-199,cs),
(198,-145,o),
(242,-46,o),
(241,52,c),
(99,52,l),
(99,-71,o),
(59,-184,o),
(22,-195,c),
(24,-200,o),
(28,-209,o),
(32,-217,c)
);
}
);
width = 315;
}
);
unicode = 567;
},
{
color = 5;
glyphname = k;
layers = (
{
layerId = m01;
shapes = (
{
closed = 1;
nodes = (
(298,0,l),
(298,20,l),
(187,55,l),
(204,32,l),
(204,227,l),
(191,197,l),
(285,284,l),
(263,287,l),
(437,0,l),
(587,0,l),
(587,20,l),
(496,58,l),
(523,36,l),
(324,346,l),
(321,319,l),
(486,474,l),
(456,458,l),
(547,480,l),
(548,500,l),
(344,500,l),
(344,480,l),
(417,456,l),
(412,475,l),
(192,242,l),
(204,237,l),
(204,718,l),
(206,794,l),
(196,800,l),
(10,745,l),
(10,729,l),
(135,714,l),
(117,734,l),
(117,32,l),
(134,55,l),
(23,20,l),
(23,0,l)
);
}
);
width = 580;
},
{
layerId = m002;
shapes = (
{
closed = 1;
nodes = (
(324,-2,l),
(324,16,l),
(203,55,l),
(230,26,l),
(230,237,l),
(214,200,l),
(280,262,l),
(252,266,l),
(415,-2,l),
(613,-2,l),
(613,15,l),
(518,55,l),
(551,27,l),
(343,352,l),
(339,318,l),
(510,479,l),
(472,459,l),
(573,483,l),
(574,502,l),
(318,502,l),
(318,484,l),
(402,457,l),
(396,480,l),
(215,289,l),
(230,283,l),
(230,718,l),
(232,788,l),
(220,806,l),
(4,741,l),
(4,720,l),
(113,704,l),
(91,739,l),
(91,26,l),
(115,55,l),
(-3,16,l),
(-3,-2,l)
);
}
);
width = 600;
},
{
associatedMasterId = m01;
layerId = "9B6F67A2-0059-402E-AE8F-5FD6A9989018";
name = "1. Jan. 24, 11:45";
shapes = (
{
closed = 1;
nodes = (
(204,50,l),
(204,718,l),
(206,794,l),
(196,800,l),
(10,745,l),
(10,729,l),
(117,716,l),
(117,50,l)
);
},
{
closed = 1;
nodes = (
(298,0,l),
(298,20,l),
(204,50,l),
(114,50,l),
(23,20,l),
(23,0,l)
);
},
{
closed = 1;
nodes = (
(587,0,l),
(587,20,l),
(513,51,l),
(320,353,l),
(261,290,l),
(437,0,l)
);
},
{
closed = 1;
nodes = (
(473,462,l),
(547,480,l),
(548,500,l),
(344,500,l),
(344,480,l),
(400,462,l),
(177,227,l),
(162,169,l)
);
}
);
width = 580;
},
{
associatedMasterId = m002;
layerId = "EEE5CB49-AF19-4420-A754-63C967D2AA3B";
name = "1. Jan. 24, 15:17";
shapes = (
{
closed = 1;
nodes = (
(230,48,l),
(230,718,l),
(232,788,l),
(220,806,l),
(-16,741,l),
(-16,730,l),
(91,717,l),
(91,48,l)
);
},
{
closed = 1;
nodes = (
(324,-2,l),
(324,16,l),
(212,52,l),
(106,52,l),
(-3,16,l),
(-3,-2,l)
);
},
{
closed = 1;
nodes = (
(613,-2,l),
(613,15,l),
(539,46,l),
(325,380,l),
(239,288,l),
(415,-2,l)
);
},
{
closed = 1;
nodes = (
(494,464,l),
(573,483,l),
(574,502,l),
(318,502,l),
(318,484,l),
(381,464,l),
(150,220,l),
(122,113,l)
);
}
);
width = 580;
}
);
unicode = 107;
},
{
color = 5;
glyphname = l;
layers = (
{
layerId = m01;
name = Regular;
shapes = (
{
closed = 1;
nodes = (
(303,0,l),
(303,19,l),
(192,56,l),
(209,32,l),
(209,718,l),
(211,794,l),
(201,800,l),
(15,745,l),
(15,729,l),
(137,715,l),
(119,735,l),
(119,32,l),
(136,56,l),
(28,20,l),
(28,0,l)
);
}
);
width = 318;
},
{
layerId = m002;
name = Regular;
shapes = (
{
closed = 1;
nodes = (
(315,-2,l),
(315,15,l),
(200,55,l),
(221,26,l),
(221,718,l),
(223,788,l),
(207,806,l),
(-5,741,l),
(-5,720,l),
(101,705,l),
(79,740,l),
(79,26,l),
(100,55,l),
(-12,16,l),
(-12,-2,l)
);
}
);
width = 307;
},
{
associatedMasterId = m01;
layerId = "A15B75CE-A110-42FD-8751-B3CA27D4E7C0";
name = "1. Jan. 24, 11:47";
shapes = (
{
closed = 1;
nodes = (
(209,50,l),
(209,718,l),
(211,794,l),
(201,800,l),
(15,745,l),
(15,729,l),
(119,717,l),
(119,50,l)
);
},
{
closed = 1;
nodes = (
(303,0,l),
(303,19,l),
(209,50,l),
(119,50,l),
(28,20,l),
(28,0,l)
);
}
);
width = 318;
},
{
associatedMasterId = m002;
layerId = "52228E69-8DD4-40FF-9039-E1A99010A5D1";
name = "1. Jan. 24, 15:21";
shapes = (
{
closed = 1;
nodes = (
(235,48,l),
(235,718,l),
(237,788,l),
(221,806,l),
(-11,741,l),
(-11,730,l),
(93,718,l),
(93,48,l)
);
},
{
closed = 1;
nodes = (
(329,-2,l),
(329,15,l),
(217,52,l),
(111,52,l),
(2,16,l),
(2,-2,l)
);
}
);
width = 318;
}
);
unicode = 108;
},
{
glyphname = lslash;
layers = (
{
layerId = m01;
shapes = (
{
closed = 1;
nodes = (
(209,50,l),
(209,718,l),
(211,794,l),
(201,800,l),
(15,745,l),
(15,729,l),
(119,717,l),
(119,50,l)
);
},
{
closed = 1;
nodes = (
(303,0,l),
(303,19,l),
(209,50,l),
(119,50,l),
(28,20,l),
(28,0,l)
);
},
{
closed = 1;
nodes = (
(319,464,l),
(299,503,l),
(17,350,l),
(37,311,l)
);
}
);
width = 318;
},
{
layerId = m002;
shapes = (
{
closed = 1;
nodes = (
(235,48,l),
(235,718,l),
(237,788,l),
(207,806,l),
(-11,741,l),
(-11,730,l),
(93,718,l),
(93,48,l)
);
},
{
closed = 1;
nodes = (
(329,-2,l),
(329,15,l),
(217,52,l),
(111,52,l),
(2,16,l),
(2,-2,l)
);
},
{
closed = 1;
nodes = (
(341,467,l),
(314,520,l),
(-5,347,l),
(22,294,l)
);
}
);
width = 318;
}
);
unicode = 322;
},
{
color = 5;
glyphname = m;
layers = (
{
layerId = m01;
shapes = (
{
closed = 1;
nodes = (
(280,0,l),
(280,30,l),
(187,55,l),
(204,32,l),
(204,430,l),
(197,401,l),
(221,439,o),
(257,470,o),
(294,470,cs),
(356,470,o),
(400,424,o),
(400,358,cs),
(400,32,l),
(417,55,l),
(326,30,l),
(326,0,l),
(561,0,l),
(561,30,l),
(473,54,l),
(490,31,l),
(490,386,ls),
(490,398,o),
(488,408,o),
(487,420,c),
(478,396,l),
(513,441,o),
(552,470,o),
(580,470,cs),
(642,470,o),
(686,424,o),
(686,358,cs),
(686,32,l),
(703,55,l),
(612,30,l),
(612,0,l),
(867,0,l),
(867,20,l),
(759,56,l),
(776,32,l),
(776,386,ls),
(776,462,o),
(708,515,o),
(611,515,cs),
(565,515,o),
(507,483,o),
(466,433,c),
(480,434,l),
(458,483,o),
(400,515,o),
(325,515,cs),
(274,515,o),
(227,483,o),
(194,443,c),
(204,434,l),
(197,510,l),
(187,516,l),
(10,461,l),
(10,445,l),
(132,431,l),
(114,451,l),
(114,32,l),
(131,55,l),
(20,20,l),
(20,0,l)
);
}
);
width = 877;
},
{
layerId = m002;
shapes = (
{
closed = 1;
nodes = (
(266,-2,l),
(266,27,l),
(199,56,l),
(220,25,l),
(220,453,l),
(204,404,l),
(229,441,o),
(266,468,o),
(294,468,cs),
(341,468,o),
(374,422,o),
(374,358,cs),
(374,25,l),
(395,55,l),
(320,27,l),
(320,-2,l),
(567,-2,l),
(567,27,l),
(495,54,l),
(516,24,l),
(516,386,ls),
(516,405,o),
(509,427,o),
(500,441,c),
(488,401,l),
(522,440,o),
(564,468,o),
(590,468,cs),
(637,468,o),
(670,422,o),
(670,358,cs),
(670,25,l),
(690,56,l),
(626,27,l),
(626,-2,l),
(903,-2,l),
(903,16,l),
(791,53,l),
(812,24,l),
(812,386,ls),
(812,463,o),
(733,517,o),
(621,517,cs),
(571,517,o),
(508,487,o),
(469,445,c),
(490,455,l),
(458,491,o),
(390,517,o),
(325,517,cs),
(282,517,o),
(232,497,o),
(204,469,c),
(217,464,l),
(213,504,l),
(200,522,l),
(-6,457,l),
(-6,436,l),
(100,421,l),
(78,456,l),
(78,24,l),
(99,53,l),
(-16,16,l),
(-16,-2,l)
);
}
);
width = 887;
},
{
associatedMasterId = m01;
layerId = "FAD1F498-5E4E-41A1-99D8-AD97216B36F5";
name = "1. Jan. 24, 11:48";
shapes = (
{
closed = 1;
nodes = (
(867,0,l),
(867,20,l),
(776,50,l),
(776,386,ls),
(776,462,o),
(708,515,o),
(611,515,cs),
(559,515,o),
(493,474,o),
(453,415,c),
(456,364,l),
(494,426,o),
(546,470,o),
(580,470,cs),
(642,470,o),
(686,424,o),
(686,358,cs),
(686,50,l),
(612,30,l),
(612,0,l)
);
},
{
closed = 1;
nodes = (
(280,0,l),
(280,30,l),
(204,50,l),
(204,434,l),
(197,510,l),
(187,516,l),
(10,461,l),
(10,445,l),
(114,433,l),
(114,50,l),
(20,20,l),
(20,0,l)
);
},
{
closed = 1;
nodes = (
(561,0,l),
(561,30,l),
(490,49,l),
(490,386,ls),
(490,462,o),
(422,515,o),
(325,515,cs),
(255,515,o),
(190,454,o),
(167,395,c),
(170,344,l),
(189,406,o),
(240,470,o),
(294,470,cs),
(356,470,o),
(400,424,o),
(400,358,cs),
(400,50,l),
(326,30,l),
(326,0,l)
);
}
);
width = 877;
},
{
associatedMasterId = m002;
layerId = "AF5A08D6-7923-43BE-80F9-1CA40918E399";
name = "1. Jan. 24, 15:22";
shapes = (
{
closed = 1;
nodes = (
(893,-2,l),
(893,16,l),
(802,46,l),
(802,386,ls),
(802,461,o),
(721,517,o),
(611,517,cs),
(541,517,o),
(451,464,o),
(417,410,c),
(424,342,l),
(488,446,o),
(562,468,o),
(580,468,cs),
(624,468,o),
(660,430,o),
(660,358,cs),
(660,47,l),
(616,27,l),
(616,-2,l)
);
},
{
closed = 1;
nodes = (
(256,-2,l),
(256,27,l),
(210,47,l),
(210,434,l),
(203,504,l),
(190,522,l),
(-36,457,l),
(-36,446,l),
(68,434,l),
(68,46,l),
(-26,16,l),
(-26,-2,l)
);
},
{
closed = 1;
nodes = (
(557,-2,l),
(557,27,l),
(506,46,l),
(506,386,ls),
(506,461,o),
(425,517,o),
(315,517,cs),
(213,517,o),
(139,443,o),
(121,392,c),
(132,304,l),
(185,438,o),
(250,468,o),
(284,468,cs),
(328,468,o),
(364,430,o),
(364,358,cs),
(364,47,l),
(310,27,l),
(310,-2,l)
);
}
);
width = 857;
}
);
unicode = 109;
},
{
glyphname = n;
layers = (
{
anchors = (
{
name = top;
pos = (334,500);
}
);
layerId = m01;
shapes = (
{
closed = 1;
nodes = (
(280,0,l),
(280,20,l),
(187,57,l),
(204,32,l),
(204,401,l),
(195,374,l),
(235,418,o),
(291,464,o),
(334,464,cs),
(396,464,o),
(440,415,o),
(440,338,cs),
(440,32,l),
(457,57,l),
(366,20,l),
(366,0,l),
(621,0,l),
(621,20,l),
(513,56,l),
(530,32,l),
(530,366,ls),
(530,453,o),
(462,515,o),
(365,515,cs),
(311,515,o),
(242,469,o),
(195,423,c),
(204,413,l),
(204,434,l),
(197,510,l),
(187,516,l),
(10,461,l),
(10,445,l),
(114,433,l),
(114,32,l),
(131,55,l),
(20,20,l),
(20,0,l)
);
}
);
width = 631;
},
{
anchors = (
{
name = top;
pos = (333,500);
}
);
layerId = m002;
shapes = (
{
closed = 1;
nodes = (
(305,-2,l),
(305,15,l),
(208,53,l),
(229,23,l),
(229,432,l),
(209,392,l),
(272,452,o),
(309,462,o),
(333,462,cs),
(376,462,o),
(413,421,o),
(413,338,cs),
(413,23,l),
(434,53,l),
(339,15,l),
(339,-2,l),
(646,-2,l),
(646,16,l),
(534,53,l),
(555,24,l),
(555,366,ls),
(555,455,o),
(473,517,o),
(364,517,cs),
(311,517,o),
(256,488,o),
(214,456,c),
(228,443,l),
(222,504,l),
(211,522,l),
(3,457,l),
(3,436,l),
(109,421,l),
(87,446,l),
(87,24,l),
(108,53,l),
(-7,16,l),
(-7,-2,l)
);
}
);
width = 631;
},
{
associatedMasterId = m01;
layerId = "C9AB8D55-AC24-43D7-9F96-D292913457A9";
name = "1. Jan. 24, 11:49";
shapes = (
{
closed = 1;
nodes = (
(621,0,l),
(621,20,l),
(530,50,l),
(530,366,ls),
(530,453,o),
(462,515,o),
(365,515,cs),
(307,515,o),
(233,462,o),
(187,415,c),
(190,368,l),
(230,413,o),
(289,464,o),
(334,464,cs),
(396,464,o),
(440,415,o),
(440,338,cs),
(440,50,l),
(366,20,l),
(366,0,l)
);
},
{
closed = 1;
nodes = (
(280,0,l),
(280,20,l),
(204,50,l),
(204,434,l),
(197,510,l),
(187,516,l),
(10,461,l),
(10,445,l),
(114,433,l),
(114,50,l),
(20,20,l),
(20,0,l)
);
}
);
width = 631;
},
{
associatedMasterId = m002;
layerId = "14501143-672E-4623-83CE-B52EB2FEF7A8";
name = "1. Jan. 24, 15:24";
shapes = (
{
closed = 1;
nodes = (
(647,-2,l),
(647,16,l),
(556,46,l),
(556,366,ls),
(556,455,o),
(474,517,o),
(365,517,cs),
(285,517,o),
(198,449,o),
(161,409,c),
(167,347,l),
(257,448,o),
(305,462,o),
(334,462,cs),
(377,462,o),
(414,421,o),
(414,338,cs),
(414,45,l),
(340,15,l),
(340,-2,l)
);
},
{
closed = 1;
nodes = (
(306,-2,l),
(306,15,l),
(230,45,l),
(230,434,l),
(223,504,l),
(212,522,l),
(-16,457,l),
(-16,446,l),
(88,434,l),
(88,46,l),
(-6,16,l),
(-6,-2,l)
);
}
);
width = 631;
}
);
unicode = 110;
},
{
color = 5;
glyphname = eng;
layers = (
{
layerId = m01;
shapes = (
{
closed = 1;
nodes = (
(280,0,l),
(280,20,l),
(204,50,l),
(204,384,l),
(243,424,o),
(294,464,o),
(334,464,cs),
(396,464,o),
(440,415,o),
(440,338,cs),
(440,-64,ls),
(440,-125,o),
(415,-168,o),
(379,-168,cs),
(358,-168,o),
(330,-147,o),
(312,-117,c),
(248,-158,l),
(272,-178,o),
(319,-193,o),
(361,-193,cs),
(460,-193,o),
(530,-125,o),
(530,-28,cs),
(530,366,ls),
(530,453,o),
(462,515,o),
(365,515,cs),
(314,515,o),
(251,475,o),
(204,432,c),
(197,510,l),
(187,516,l),
(10,461,l),
(10,445,l),
(114,433,l),
(114,50,l),
(20,20,l),
(20,0,l)
);
}
);
width = 601;
},
{
layerId = m002;
shapes = (
{
closed = 1;
nodes = (
(336,-2,l),
(336,15,l),
(260,45,l),
(260,390,l),
(292,432,o),
(335,462,o),
(364,462,cs),
(407,462,o),
(444,421,o),
(444,338,cs),
(444,-64,ls),
(444,-130,o),
(423,-166,o),
(409,-166,cs),
(392,-166,o),
(373,-150,o),
(354,-98,c),
(260,-159,l),
(278,-175,o),
(340,-195,o),
(391,-195,cs),
(503,-195,o),
(586,-127,o),
(586,-28,cs),
(586,366,ls),
(586,455,o),
(504,517,o),
(395,517,cs),
(347,517,o),
(295,494,o),
(257,471,c),
(253,514,l),
(243,522,l),
(34,457,l),
(34,436,l),
(118,424,l),
(118,46,l),
(24,16,l),
(24,-2,l)
);
}
);
width = 674;
},
{
anchors = (
{
name = top;
pos = (334,500);
}
);
associatedMasterId = m01;
layerId = "158879E4-AD77-4CEC-A014-8A6182E6557D";
name = "1. Jan. 24, 21:44";
shapes = (
{
closed = 1;
nodes = (
(280,0,l),
(280,20,l),
(187,57,l),
(204,32,l),
(204,401,l),
(195,374,l),
(235,418,o),
(291,464,o),
(334,464,cs),
(396,464,o),
(440,415,o),
(440,338,cs),
(440,32,l),
(530,32,l),
(530,366,ls),
(530,453,o),
(462,515,o),
(365,515,cs),
(311,515,o),
(242,469,o),
(195,423,c),
(204,413,l),
(204,434,l),
(197,510,l),
(187,516,l),
(10,461,l),
(10,445,l),
(114,433,l),
(114,32,l),
(131,55,l),
(20,20,l),
(20,0,l)
);
},
{
closed = 1;
nodes = (
(440,32,l),
(440,-64,l),
(440,-125,o),
(415,-168,o),
(379,-168,cs),
(358,-168,o),
(330,-147,o),
(312,-117,c),
(248,-158,l),
(272,-178,o),
(319,-193,o),
(361,-193,cs),
(460,-193,o),
(530,-125,o),
(530,-28,cs),
(530,32,l)
);
}
);
width = 631;
}
);
unicode = 331;
},
{
color = 5;
glyphname = o;
layers = (
{
anchors = (
{
name = top;
pos = (279,500);
}
);
background = {
shapes = (
{
closed = 1;
nodes = (
(194,516,o),
(129,467,o),
(129,390,c),
(129,190,o),
(410,220,o),
(410,120,c),
(410,49,o),
(367,4,o),
(298,4,c),
(213,4,o),
(159,49,o),
(159,120,c),
(124,120,l),
(124,24,l),
(170,-1,o),
(237,-16,o),
(298,-16,c),
(404,-16,o),
(470,36,o),
(470,120,c),
(470,320,o),
(199,290,o),
(199,390,c),
(199,455,o),
(237,496,o),
(298,496,c),
(370,496,o),
(416,451,o),
(416,380,c),
(451,380,l),
(451,473,l),
(425,499,o),
(366,516,o),
(298,516,c)
);
}
);
};
layerId = m01;
shapes = (
{
closed = 1;
nodes = (
(423,-15,o),
(521,102,o),
(521,267,cs),
(521,413,o),
(423,517,o),
(285,517,cs),
(144,517,o),
(45,409,o),
(45,257,cs),
(45,98,o),
(144,-15,o),
(285,-15,cs)
);
},
{
closed = 1;
nodes = (
(205,20,o),
(147,121,o),
(147,285,cs),
(147,407,o),
(195,482,o),
(272,482,cs),
(362,482,o),
(419,388,o),
(419,236,cs),
(419,102,o),
(372,20,o),
(298,20,cs)
);
}
);
width = 566;
},
{
anchors = (
{
name = top;
pos = (273,500);
}
);
background = {
shapes = (
{
closed = 1;
nodes = (
(195,516,o),
(130,467,o),
(130,390,c),
(130,190,o),
(411,220,o),
(411,120,c),
(411,49,o),
(368,4,o),
(299,4,c),
(214,4,o),
(160,49,o),
(160,120,c),
(125,120,l),
(125,24,l),
(171,-1,o),
(238,-16,o),
(299,-16,c),
(405,-16,o),
(471,36,o),
(471,120,c),
(471,320,o),
(200,290,o),
(200,390,c),
(200,455,o),
(238,496,o),
(299,496,c),
(371,496,o),
(417,451,o),
(417,380,c),
(452,380,l),
(452,473,l),
(426,499,o),
(367,516,o),
(299,516,c)
);
}
);
};
layerId = m002;
shapes = (
{
closed = 1;
nodes = (
(442,-17,o),
(548,102,o),
(548,267,cs),
(548,418,o),
(435,519,o),
(286,519,cs),
(133,519,o),
(20,414,o),
(20,257,cs),
(20,93,o),
(132,-17,o),
(286,-17,cs)
);
},
{
closed = 1;
nodes = (
(228,22,o),
(174,116,o),
(174,285,cs),
(174,412,o),
(217,480,o),
(273,480,cs),
(341,480,o),
(394,393,o),
(394,236,cs),
(394,97,o),
(351,22,o),
(299,22,cs)
);
}
);
width = 568;
}
);
unicode = 111;
},
{
glyphname = oslash;
layers = (
{
layerId = m01;
shapes = (
{
closed = 1;
nodes = (
(423,-15,o),
(521,102,o),
(521,267,cs),
(521,413,o),
(423,517,o),
(285,517,cs),
(144,517,o),
(45,409,o),
(45,257,cs),
(45,98,o),
(144,-15,o),
(285,-15,cs)
);
},
{
closed = 1;
nodes = (
(205,20,o),
(147,121,o),
(147,285,cs),
(147,407,o),
(195,482,o),
(272,482,cs),
(362,482,o),
(419,388,o),
(419,236,cs),
(419,102,o),
(372,20,o),
(298,20,cs)
);
},
{
closed = 1;
nodes = (
(107,-64,l),
(504,540,l),
(467,566,l),
(70,-39,l)
);
}
);
width = 566;
},
{
layerId = m002;
shapes = (
{
closed = 1;
nodes = (
(441,-17,o),
(547,102,o),
(547,267,cs),
(547,418,o),
(434,519,o),
(285,519,cs),
(132,519,o),
(19,414,o),
(19,257,cs),
(19,93,o),
(131,-17,o),
(285,-17,cs)
);
},
{
closed = 1;
nodes = (
(227,22,o),
(173,116,o),
(173,285,cs),
(173,412,o),
(216,480,o),
(272,480,cs),
(340,480,o),
(393,393,o),
(393,236,cs),
(393,97,o),
(350,22,o),
(298,22,cs)
);
},
{
closed = 1;
nodes = (
(113,-75,l),
(517,542,l),
(460,576,l),
(56,-41,l)
);
}
);
width = 566;
}
);
unicode = 248;
},
{
color = 5;
glyphname = oe;
layers = (
{
layerId = m01;
shapes = (
{
closed = 1;
nodes = (
(366,-15,o),
(433,25,o),
(475,92,c),
(461,92,l),
(501,27,o),
(567,-13,o),
(648,-13,cs),
(721,-13,o),
(799,26,o),
(838,80,c),
(816,108,l),
(778,72,o),
(721,47,o),
(678,47,cs),
(582,47,o),
(516,147,o),
(521,288,c),
(503,272,l),
(845,272,l),
(846,282,o),
(846,291,o),
(846,301,cs),
(846,428,o),
(771,517,o),
(656,517,cs),
(581,517,o),
(518,480,o),
(477,419,c),
(435,480,o),
(367,517,o),
(285,517,cs),
(144,517,o),
(45,409,o),
(45,257,cs),
(45,98,o),
(144,-15,o),
(285,-15,cs)
);
},
{
closed = 1;
nodes = (
(147,407,o),
(195,482,o),
(272,482,cs),
(362,482,o),
(419,388,o),
(419,236,cs),
(419,102,o),
(372,20,o),
(298,20,cs),
(205,20,o),
(147,121,o),
(147,285,cs)
);
},
{
closed = 1;
nodes = (
(514,404,o),
(560,478,o),
(624,478,cs),
(695,478,o),
(746,406,o),
(749,297,c),
(766,313,l),
(501,308,l),
(519,291,l)
);
}
);
width = 891;
},
{
layerId = m002;
shapes = (
{
closed = 1;
nodes = (
(364,-17,o),
(431,14,o),
(478,67,c),
(458,67,l),
(504,15,o),
(571,-15,o),
(648,-15,cs),
(733,-15,o),
(826,32,o),
(860,80,c),
(819,131,l),
(769,75,o),
(716,49,o),
(678,49,cs),
(603,49,o),
(542,143,o),
(547,292,c),
(525,270,l),
(871,270,l),
(872,280,o),
(872,290,o),
(872,299,cs),
(872,442,o),
(775,519,o),
(656,519,cs),
(582,519,o),
(521,491,o),
(476,445,c),
(429,492,o),
(362,519,o),
(285,519,cs),
(132,519,o),
(19,414,o),
(19,257,cs),
(19,93,o),
(131,-17,o),
(285,-17,cs)
);
},
{
closed = 1;
nodes = (
(173,412,o),
(216,480,o),
(272,480,cs),
(340,480,o),
(393,393,o),
(393,236,cs),
(393,97,o),
(350,22,o),
(298,22,cs),
(227,22,o),
(173,116,o),
(173,285,cs)
);
},
{
closed = 1;
nodes = (
(540,408,o),
(581,476,o),
(624,476,cs),
(672,476,o),
(717,438,o),
(724,286,c),
(744,316,l),
(523,310,l),
(545,286,l)
);
}
);
width = 891;
},
{
associatedMasterId = m01;
layerId = "8891401E-2A78-49C5-9FDC-8FEE2301BEB5";
name = "1. Jan. 24, 12:13";
shapes = (
{
closed = 1;
nodes = (
(423,-15,o),
(521,102,o),
(521,267,cs),
(521,413,o),
(423,517,o),
(285,517,cs),
(144,517,o),
(45,409,o),
(45,257,cs),
(45,98,o),
(144,-15,o),
(285,-15,cs)
);
},
{
closed = 1;
nodes = (
(205,20,o),
(147,121,o),
(147,285,cs),
(147,407,o),
(195,482,o),
(272,482,cs),
(362,482,o),
(419,388,o),
(419,236,cs),
(419,102,o),
(372,20,o),
(298,20,cs)
);
},
{
closed = 1;
nodes = (
(721,-13,o),
(799,26,o),
(838,80,c),
(816,108,l),
(778,72,o),
(721,47,o),
(678,47,cs),
(586,47,o),
(521,140,o),
(521,272,c),
(845,272,l),
(857,415,o),
(779,517,o),
(656,517,cs),
(522,517,o),
(427,401,o),
(426,237,cs),
(425,91,o),
(517,-13,o),
(648,-13,cs)
);
},
{
closed = 1;
nodes = (
(519,411,o),
(563,478,o),
(624,478,cs),
(692,478,o),
(743,411,o),
(748,308,c),
(752,312,ls),
(754,314,o),
(702,314,o),
(644,312,cs),
(519,308,l)
);
}
);
width = 891;
},
{
associatedMasterId = m002;
layerId = "1CC89BF2-733E-4A71-896C-EC9197B1B0FA";
name = "1. Jan. 24, 15:06";
shapes = (
{
closed = 1;
nodes = (
(441,-17,o),
(547,102,o),
(547,267,cs),
(547,418,o),
(434,519,o),
(285,519,cs),
(132,519,o),
(19,414,o),
(19,257,cs),
(19,93,o),
(131,-17,o),
(285,-17,cs)
);
},
{
closed = 1;
nodes = (
(227,22,o),
(173,116,o),
(173,285,cs),
(173,412,o),
(216,480,o),
(272,480,cs),
(340,480,o),
(393,393,o),
(393,236,cs),
(393,97,o),
(350,22,o),
(298,22,cs)
);
},
{
closed = 1;
nodes = (
(733,-15,o),
(826,32,o),
(860,80,c),
(819,131,l),
(769,75,o),
(716,49,o),
(678,49,cs),
(607,49,o),
(548,134,o),
(547,270,c),
(871,270,l),
(885,432,o),
(783,519,o),
(656,519,cs),
(501,519,o),
(401,398,o),
(400,237,cs),
(399,85,o),
(506,-15,o),
(648,-15,cs)
);
},
{
closed = 1;
nodes = (
(546,417,o),
(584,476,o),
(624,476,cs),
(672,476,o),
(717,438,o),
(724,285,c),
(770,311,ls),
(778,316,o),
(704,316,o),
(643,314,cs),
(545,311,l)
);
}
);
width = 891;
}
);
unicode = 339;
},
{
color = 5;
glyphname = p;
layers = (
{
layerId = m01;
name = Regular;
shapes = (
{
closed = 1;
nodes = (
(443,-15,o),
(545,102,o),
(545,268,cs),
(545,414,o),
(464,517,o),
(350,517,cs),
(305,517,o),
(241,485,o),
(187,438,c),
(200,429,l),
(192,502,l),
(182,508,l),
(5,463,l),
(5,447,l),
(127,433,l),
(109,453,l),
(109,-168,l),
(126,-144,l),
(18,-180,l),
(18,-200,l),
(293,-200,l),
(293,-180,l),
(182,-145,l),
(199,-168,l),
(199,36,l),
(185,27,l),
(231,-4,o),
(276,-15,o),
(300,-15,cs)
);
},
{
closed = 1;
nodes = (
(199,417,l),
(190,388,l),
(225,431,o),
(274,461,o),
(310,461,cs),
(389,461,o),
(445,372,o),
(445,245,cs),
(445,113,o),
(391,20,o),
(315,20,cs),
(287,20,o),
(235,34,o),
(186,78,c),
(199,49,l)
);
}
);
width = 600;
},
{
layerId = m002;
name = Regular;
shapes = (
{
closed = 1;
nodes = (
(459,-17,o),
(571,100,o),
(571,268,cs),
(571,411,o),
(486,519,o),
(350,519,cs),
(306,519,o),
(254,496,o),
(207,465,c),
(223,452,l),
(219,496,l),
(206,513,l),
(-1,460,l),
(-1,438,l),
(105,423,l),
(83,448,l),
(83,-174,l),
(104,-145,l),
(-8,-184,l),
(-8,-202,l),
(319,-202,l),
(319,-184,l),
(204,-145,l),
(225,-174,l),
(225,16,l),
(208,-1,l),
(243,-13,o),
(278,-17,o),
(300,-17,cs)
);
},
{
closed = 1;
nodes = (
(225,444,l),
(209,404,l),
(249,455,o),
(287,459,o),
(310,459,cs),
(368,459,o),
(419,377,o),
(419,245,cs),
(419,108,o),
(369,22,o),
(315,22,cs),
(293,22,o),
(255,17,o),
(205,57,c),
(225,21,l)
);
}
);
width = 610;
},
{
associatedMasterId = m01;
layerId = "E53A7676-CD7F-45B4-B6FE-B577B2D90D84";
name = "1. Jan. 24, 11:51";
shapes = (
{
closed = 1;
nodes = (
(443,-15,o),
(545,102,o),
(545,268,cs),
(545,414,o),
(464,517,o),
(350,517,cs),
(297,517,o),
(219,474,o),
(161,413,c),
(153,399,l),
(181,378,l),
(185,380,o),
(188,386,o),
(188,386,c),
(223,430,o),
(273,461,o),
(310,461,cs),
(389,461,o),
(445,372,o),
(445,245,cs),
(445,113,o),
(391,20,o),
(315,20,cs),
(284,20,o),
(224,38,o),
(170,92,cs),
(167,95,l),
(138,60,l),
(147,56,l),
(205,3,o),
(269,-15,o),
(300,-15,cs)
);
},
{
closed = 1;
nodes = (
(293,-200,l),
(293,-180,l),
(199,-150,l),
(109,-150,l),
(18,-180,l),
(18,-200,l)
);
},
{
closed = 1;
nodes = (
(199,-150,l),
(199,436,l),
(192,502,l),
(182,508,l),
(5,463,l),
(5,447,l),
(109,435,l),
(109,-150,l)
);
}
);
width = 600;
},
{
associatedMasterId = m002;
layerId = "68890CC3-A48F-499B-A9CA-3F3D7D85F88C";
name = "1. Jan. 24, 15:55";
shapes = (
{
closed = 1;
nodes = (
(459,-17,o),
(571,100,o),
(571,268,cs),
(571,411,o),
(486,519,o),
(350,519,cs),
(278,519,o),
(188,459,o),
(133,404,cs),
(131,402,l),
(176,386,l),
(200,398,o),
(216,402,o),
(210,405,c),
(250,455,o),
(287,459,o),
(310,459,cs),
(368,459,o),
(419,377,o),
(419,245,cs),
(419,108,o),
(369,22,o),
(315,22,cs),
(291,22,o),
(246,15,o),
(188,73,cs),
(164,97,l),
(119,52,l),
(124,50,l),
(179,-4,o),
(260,-17,o),
(300,-17,cs)
);
},
{
closed = 1;
nodes = (
(319,-202,l),
(319,-184,l),
(207,-148,l),
(101,-148,l),
(-8,-184,l),
(-8,-202,l)
);
},
{
closed = 1;
nodes = (
(225,-152,l),
(225,436,l),
(219,496,l),
(206,513,l),
(-21,460,l),
(-21,448,l),
(83,436,l),
(83,-152,l)
);
}
);
width = 600;
}
);
unicode = 112;
},
{
color = 5;
glyphname = thorn;
layers = (
{
layerId = m01;
shapes = (
{
closed = 1;
nodes = (
(293,-200,l),
(293,-180,l),
(182,-145,l),
(199,-168,l),
(199,16,l),
(188,2,l),
(210,-6,o),
(237,-12,o),
(260,-12,cs),
(424,-12,o),
(542,111,o),
(542,286,cs),
(542,420,o),
(453,515,o),
(330,515,cs),
(287,515,o),
(233,493,o),
(189,458,c),
(199,448,l),
(199,718,l),
(201,794,l),
(191,800,l),
(5,745,l),
(5,729,l),
(127,715,l),
(109,735,l),
(109,-168,l),
(126,-144,l),
(18,-180,l),
(18,-200,l)
);
},
{
closed = 1;
nodes = (
(265,28,o),
(224,54,o),
(189,86,c),
(199,59,l),
(199,438,l),
(188,410,l),
(223,443,o),
(261,469,o),
(289,469,cs),
(383,469,o),
(450,382,o),
(450,258,cs),
(450,126,o),
(388,28,o),
(301,28,cs)
);
}
);
width = 600;
},
{
layerId = m002;
shapes = (
{
closed = 1;
nodes = (
(319,-202,l),
(319,-184,l),
(204,-145,l),
(225,-174,l),
(225,11,l),
(210,-8,l),
(227,-12,o),
(244,-14,o),
(260,-14,cs),
(436,-14,o),
(568,107,o),
(568,286,cs),
(568,425,o),
(465,517,o),
(330,517,cs),
(292,517,o),
(248,504,o),
(211,484,c),
(225,469,l),
(225,718,l),
(227,788,l),
(197,806,l),
(-1,741,l),
(-1,720,l),
(105,705,l),
(83,740,l),
(83,-174,l),
(104,-145,l),
(-8,-184,l),
(-8,-202,l)
);
},
{
closed = 1;
nodes = (
(278,30,o),
(236,31,o),
(209,74,c),
(225,28,l),
(225,456,l),
(204,413,l),
(240,461,o),
(275,467,o),
(289,467,cs),
(363,467,o),
(424,389,o),
(424,260,cs),
(424,122,o),
(367,30,o),
(301,30,cs)
);
}
);
width = 600;
},
{
associatedMasterId = m01;
layerId = "687E002A-BF2C-46A0-BB2A-B75EDC1D587C";
name = "1. Jan. 24, 12:12";
shapes = (
{
closed = 1;
nodes = (
(199,-150,l),
(199,718,l),
(201,794,l),
(191,800,l),
(5,745,l),
(5,729,l),
(109,717,l),
(109,-150,l)
);
},
{
closed = 1;
nodes = (
(293,-200,l),
(293,-180,l),
(199,-150,l),
(109,-150,l),
(18,-180,l),
(18,-200,l)
);
},
{
closed = 1;
nodes = (
(424,-12,o),
(542,111,o),
(542,286,c),
(450,258,l),
(450,126,o),
(388,28,o),
(301,28,cs),
(258,28,o),
(208,65,o),
(169,104,cs),
(168,105,l),
(110,44,l),
(157,18,l),
(182,0,o),
(225,-12,o),
(260,-12,cs)
);
},
{
closed = 1;
nodes = (
(542,286,l),
(542,420,o),
(453,515,o),
(330,515,cs),
(277,515,o),
(208,482,o),
(162,435,c),
(165,385,l),
(204,430,o),
(255,469,o),
(289,469,cs),
(383,469,o),
(450,382,o),
(450,258,c)
);
}
);
width = 600;
},
{
associatedMasterId = m002;
layerId = "4B55650C-6305-4DC6-A40B-E9AD89010648";
name = "1. Jan. 24, 15:57";
shapes = (
{
closed = 1;
nodes = (
(225,-152,l),
(225,718,l),
(227,788,l),
(197,806,l),
(-21,741,l),
(-21,730,l),
(83,718,l),
(83,-152,l)
);
},
{
closed = 1;
nodes = (
(319,-202,l),
(319,-184,l),
(207,-148,l),
(101,-148,l),
(-8,-184,l),
(-8,-202,l)
);
},
{
closed = 1;
nodes = (
(440,-14,o),
(574,112,o),
(568,298,c),
(424,254,l),
(423,119,o),
(366,30,o),
(301,30,cs),
(273,30,o),
(234,59,o),
(187,105,cs),
(167,125,l),
(91,46,l),
(137,20,l),
(153,4,o),
(215,-14,o),
(260,-14,cs)
);
},
{
closed = 1;
nodes = (
(568,290,l),
(566,426,o),
(464,517,o),
(330,517,cs),
(261,517,o),
(175,473,o),
(136,429,c),
(142,335,l),
(231,437,o),
(270,467,o),
(289,467,cs),
(365,467,o),
(428,383,o),
(424,246,c)
);
}
);
width = 600;
}
);
unicode = 254;
},
{
color = 5;
glyphname = q;
layers = (
{
layerId = m01;
shapes = (
{
closed = 1;
nodes = (
(585,-200,l),
(585,-180,l),
(474,-145,l),
(491,-168,l),
(491,460,l),
(443,486,l),
(420,504,o),
(377,516,o),
(340,516,cs),
(173,516,o),
(55,409,o),
(55,258,cs),
(55,100,o),
(144,-11,o),
(270,-11,cs),
(313,-11,o),
(367,11,o),
(411,46,c),
(401,56,l),
(401,-168,l),
(418,-144,l),
(310,-180,l),
(310,-200,l)
);
},
{
closed = 1;
nodes = (
(217,34,o),
(150,138,o),
(150,286,cs),
(150,394,o),
(212,471,o),
(299,471,cs),
(334,471,o),
(377,451,o),
(411,420,c),
(401,447,l),
(401,59,l),
(412,87,l),
(377,54,o),
(339,34,o),
(311,34,cs)
);
}
);
width = 585;
},
{
layerId = m002;
shapes = (
{
closed = 1;
nodes = (
(611,-202,l),
(611,-184,l),
(496,-145,l),
(517,-174,l),
(517,462,l),
(467,487,ls),
(445,497,o),
(388,518,o),
(340,518,cs),
(157,518,o),
(22,406,o),
(29,246,cs),
(33,97,o),
(127,-13,o),
(270,-13,cs),
(308,-13,o),
(352,0,o),
(389,20,c),
(375,35,l),
(375,-174,l),
(396,-145,l),
(284,-184,l),
(284,-202,l)
);
},
{
closed = 1;
nodes = (
(237,36,o),
(175,135,o),
(176,290,cs),
(177,401,o),
(232,469,o),
(299,469,cs),
(325,469,o),
(359,454,o),
(389,423,c),
(375,458,l),
(375,32,l),
(398,72,l),
(352,32,o),
(327,36,o),
(311,36,cs)
);
}
);
width = 585;
},
{
associatedMasterId = m01;
layerId = "26E9DDFE-E1DA-49A8-A371-9EAED660B458";
name = "1. Jan. 24, 11:52";
shapes = (
{
closed = 1;
nodes = (
(323,-11,o),
(392,22,o),
(438,69,c),
(435,110,l),
(396,65,o),
(345,34,o),
(311,34,cs),
(217,34,o),
(150,138,o),
(150,286,c),
(55,258,l),
(55,100,o),
(144,-11,o),
(270,-11,cs)
);
},
{
closed = 1;
nodes = (
(585,-200,l),
(585,-180,l),
(491,-150,l),
(401,-150,l),
(310,-180,l),
(310,-200,l)
);
},
{
closed = 1;
nodes = (
(491,-150,l),
(491,460,l),
(401,460,l),
(401,-150,l)
);
},
{
closed = 1;
nodes = (
(150,286,l),
(150,394,o),
(212,471,o),
(299,471,cs),
(342,471,o),
(396,442,o),
(431,400,cs),
(432,399,l),
(490,460,l),
(443,486,l),
(420,504,o),
(377,516,o),
(340,516,cs),
(173,516,o),
(55,409,o),
(55,258,c)
);
}
);
width = 585;
},
{
associatedMasterId = m002;
layerId = "386BC006-9045-4335-9260-8A10C9A56014";
name = "1. Jan. 24, 16:01";
shapes = (
{
closed = 1;
nodes = (
(339,-13,o),
(425,31,o),
(463,75,c),
(457,130,l),
(370,29,o),
(332,36,o),
(311,36,cs),
(236,36,o),
(173,138,o),
(176,298,c),
(29,254,l),
(30,101,o),
(124,-13,o),
(270,-13,cs)
);
},
{
closed = 1;
nodes = (
(611,-202,l),
(611,-184,l),
(499,-148,l),
(393,-148,l),
(284,-184,l),
(284,-202,l)
);
},
{
closed = 1;
nodes = (
(517,-152,l),
(517,462,l),
(375,462,l),
(375,-152,l)
);
},
{
closed = 1;
nodes = (
(176,290,l),
(177,401,o),
(232,469,o),
(299,469,cs),
(330,469,o),
(371,447,o),
(404,407,c),
(433,379,l),
(517,462,l),
(467,487,l),
(445,497,o),
(388,518,o),
(340,518,cs),
(157,518,o),
(22,406,o),
(29,246,c)
);
}
);
width = 585;
}
);
unicode = 113;
},
{
color = 5;
glyphname = r;
layers = (
{
anchors = (
{
name = com;
pos = (160,0);
},
{
name = top;
pos = (198,500);
}
);
background = {
shapes = (
{
closed = 1;
nodes = (
(187,516,l),
(192,513,ls),
(195,511,o),
(199,496,o),
(202,460,cs),
(204,434,l),
(204,108,ls),
(204,69,o),
(223,45,o),
(261,35,cs),
(274,32,o),
(280,25,o),
(280,15,cs),
(280,6,o),
(257,0,o),
(214,0,cs),
(20,0,l),
(20,10,ls),
(20,16,o),
(35,25,o),
(67,35,cs),
(99,45,o),
(114,69,o),
(114,107,cs),
(114,370,ls),
(114,411,o),
(92,435,o),
(52,440,cs),
(10,445,l),
(10,453,ls),
(10,458,o),
(28,466,o),
(65,478,cs)
);
},
{
closed = 1;
nodes = (
(244,464,o),
(270,517,o),
(302,517,cs),
(316,517,o),
(335,515,o),
(353,512,cs),
(386,506,o),
(398,481,o),
(390,447,cs),
(382,415,o),
(371,398,o),
(363,403,cs),
(336,416,o),
(307,419,o),
(283,419,cs),
(257,419,o),
(240,404,o),
(221,378,cs),
(192,338,o),
(173,316,o),
(168,323,cs),
(162,332,o),
(170,350,o),
(191,384,cs)
);
}
);
};
layerId = m01;
shapes = (
{
closed = 1;
nodes = (
(308,0,l),
(308,20,l),
(185,55,l),
(202,32,l),
(202,355,l),
(191,319,l),
(235,393,o),
(252,429,o),
(283,429,cs),
(307,429,o),
(336,420,o),
(363,403,c),
(404,485,l),
(370,507,o),
(325,520,o),
(273,517,c),
(193,385,l),
(202,382,l),
(198,509,l),
(187,516,l),
(10,461,l),
(10,445,l),
(132,431,l),
(114,451,l),
(114,32,l),
(131,55,l),
(20,20,l),
(20,0,l)
);
}
);
width = 424;
},
{
anchors = (
{
name = com;
pos = (159,0);
},
{
name = top;
pos = (197,500);
}
);
background = {
shapes = (
{
closed = 1;
nodes = (
(187,516,l),
(192,513,ls),
(195,511,o),
(199,496,o),
(202,460,cs),
(204,434,l),
(204,108,ls),
(204,69,o),
(223,45,o),
(261,35,cs),
(274,32,o),
(280,25,o),
(280,15,cs),
(280,6,o),
(257,0,o),
(214,0,cs),
(20,0,l),
(20,10,ls),
(20,16,o),
(35,25,o),
(67,35,cs),
(99,45,o),
(114,69,o),
(114,107,cs),
(114,370,ls),
(114,411,o),
(92,435,o),
(52,440,cs),
(10,445,l),
(10,453,ls),
(10,458,o),
(28,466,o),
(65,478,cs)
);
},
{
closed = 1;
nodes = (
(244,464,o),
(270,517,o),
(302,517,cs),
(316,517,o),
(335,515,o),
(353,512,cs),
(386,506,o),
(398,481,o),
(390,447,cs),
(382,415,o),
(371,398,o),
(363,403,cs),
(336,416,o),
(307,419,o),
(283,419,cs),
(257,419,o),
(240,404,o),
(221,378,cs),
(192,338,o),
(173,316,o),
(168,323,cs),
(162,332,o),
(170,350,o),
(191,384,cs)
);
}
);
};
layerId = m002;
shapes = (
{
closed = 1;
nodes = (
(334,-2,l),
(334,17,l),
(206,54,l),
(228,26,l),
(228,407,l),
(207,360,l),
(252,415,o),
(270,427,o),
(283,427,cs),
(309,427,o),
(316,423,o),
(377,384,c),
(426,481,l),
(378,521,o),
(314,523,o),
(280,517,c),
(212,428,l),
(231,424,l),
(214,503,l),
(194,522,l),
(4,457,l),
(4,436,l),
(110,421,l),
(88,456,l),
(88,26,l),
(109,55,l),
(-6,16,l),
(-6,-2,l)
);
}
);
width = 424;
},
{
associatedMasterId = m01;
background = {
shapes = (
{
closed = 1;
nodes = (
(187,516,l),
(192,513,ls),
(195,511,o),
(199,496,o),
(202,460,cs),
(204,434,l),
(204,108,ls),
(204,69,o),
(223,45,o),
(261,35,cs),
(274,32,o),
(280,25,o),
(280,15,cs),
(280,6,o),
(257,0,o),
(214,0,cs),
(20,0,l),
(20,10,ls),
(20,16,o),
(35,25,o),
(67,35,cs),
(99,45,o),
(114,69,o),
(114,107,cs),
(114,370,ls),
(114,411,o),
(92,435,o),
(52,440,cs),
(10,445,l),
(10,453,ls),
(10,458,o),
(28,466,o),
(65,478,cs)
);
},
{
closed = 1;
nodes = (
(244,464,o),
(270,517,o),
(302,517,cs),
(316,517,o),
(335,515,o),
(353,512,cs),
(386,506,o),
(398,481,o),
(390,447,cs),
(382,415,o),
(371,398,o),
(363,403,cs),
(336,416,o),
(307,419,o),
(283,419,cs),
(257,419,o),
(240,404,o),
(221,378,cs),
(192,338,o),
(173,316,o),
(168,323,cs),
(162,332,o),
(170,350,o),
(191,384,cs)
);
}
);
};
layerId = "66529081-EDE8-422A-B9FF-C7E6FD61FFB3";
name = "1. Jan. 24, 11:55";
shapes = (
{
closed = 1;
nodes = (
(202,50,l),
(202,434,l),
(198,509,l),
(187,516,l),
(10,461,l),
(10,445,l),
(114,433,l),
(114,50,l)
);
},
{
closed = 1;
nodes = (
(308,0,l),
(308,20,l),
(202,50,l),
(114,50,l),
(20,20,l),
(20,0,l)
);
},
{
closed = 1;
nodes = (
(223,361,o),
(241,429,o),
(283,429,cs),
(307,429,o),
(336,420,o),
(363,403,c),
(404,485,l),
(370,507,o),
(325,520,o),
(273,517,c),
(157,326,l),
(174,294,l)
);
}
);
width = 424;
},
{
associatedMasterId = m002;
background = {
shapes = (
{
closed = 1;
nodes = (
(187,516,l),
(192,513,ls),
(195,511,o),
(199,496,o),
(202,460,cs),
(204,434,l),
(204,108,ls),
(204,69,o),
(223,45,o),
(261,35,cs),
(274,32,o),
(280,25,o),
(280,15,cs),
(280,6,o),
(257,0,o),
(214,0,cs),
(20,0,l),
(20,10,ls),
(20,16,o),
(35,25,o),
(67,35,cs),
(99,45,o),
(114,69,o),
(114,107,cs),
(114,370,ls),
(114,411,o),
(92,435,o),
(52,440,cs),
(10,445,l),
(10,453,ls),
(10,458,o),
(28,466,o),
(65,478,cs)
);
},
{
closed = 1;
nodes = (
(244,464,o),
(270,517,o),
(302,517,cs),
(316,517,o),
(335,515,o),
(353,512,cs),
(386,506,o),
(398,481,o),
(390,447,cs),
(382,415,o),
(371,398,o),
(363,403,cs),
(336,416,o),
(307,419,o),
(283,419,cs),
(257,419,o),
(240,404,o),
(221,378,cs),
(192,338,o),
(173,316,o),
(168,323,cs),
(162,332,o),
(170,350,o),
(191,384,cs)
);
}
);
};
layerId = "B8DC3603-6B0C-4E3A-ADE8-55F01E701EA5";
name = "1. Jan. 24, 16:05";
shapes = (
{
closed = 1;
nodes = (
(228,48,l),
(228,434,l),
(214,503,l),
(194,522,l),
(-16,457,l),
(-16,446,l),
(88,434,l),
(88,48,l)
);
},
{
closed = 1;
nodes = (
(334,-2,l),
(334,17,l),
(209,52,l),
(106,52,l),
(-6,16,l),
(-6,-2,l)
);
},
{
closed = 1;
nodes = (
(240,407,o),
(266,427,o),
(283,427,cs),
(309,427,o),
(316,423,o),
(377,384,c),
(426,481,l),
(398,504,o),
(352,527,o),
(280,517,c),
(134,325,l),
(160,297,l)
);
}
);
width = 424;
}
);
unicode = 114;
},
{
glyphname = s;
layers = (
{
anchors = (
{
name = ced;
pos = (224,-1);
},
{
name = com;
pos = (224,0);
},
{
name = top;
pos = (224,500);
}
);
background = {
shapes = (
{
closed = 1;
nodes = (
(125,516,o),
(55,460,o),
(55,380,cs),
(55,180,o),
(336,210,o),
(336,110,cs),
(336,54,o),
(290,14,o),
(224,14,cs),
(179,14,o),
(139,45,o),
(116,94,cs),
(78,182,o),
(67,165,o),
(62,34,c),
(98,4,o),
(166,-16,o),
(224,-16,cs),
(325,-16,o),
(396,44,o),
(396,130,cs),
(396,330,o),
(125,300,o),
(125,400,cs),
(125,450,o),
(166,486,o),
(224,486,cs),
(264,486,o),
(299,459,o),
(320,416,cs),
(337,379,o),
(342,360,o),
(352,360,cs),
(365,360,o),
(371,403,o),
(367,481,c),
(337,499,o),
(280,516,o),
(224,516,cs)
);
}
);
};
layerId = m01;
shapes = (
{
closed = 1;
nodes = (
(325,-16,o),
(396,44,o),
(396,130,cs),
(396,244,o),
(304,283,o),
(227,315,cs),
(172,338,o),
(125,358,o),
(125,400,cs),
(125,450,o),
(166,486,o),
(224,486,cs),
(264,486,o),
(300,460,o),
(320,416,cs),
(345,360,l),
(368,360,l),
(368,481,l),
(336,499,o),
(280,516,o),
(224,516,cs),
(125,516,o),
(55,460,o),
(55,380,cs),
(55,266,o),
(150,227,o),
(230,195,cs),
(287,172,o),
(336,152,o),
(336,110,cs),
(336,54,o),
(290,14,o),
(224,14,cs),
(179,14,o),
(138,44,o),
(116,94,cs),
(92,149,l),
(70,149,l),
(62,34,l),
(98,4,o),
(166,-16,o),
(224,-16,cs)
);
}
);
width = 441;
},
{
anchors = (
{
name = ced;
pos = (224,-1);
},
{
name = com;
pos = (224,0);
},
{
name = top;
pos = (224,500);
}
);
layerId = m002;
shapes = (
{
closed = 1;
nodes = (
(337,-18,o),
(422,43,o),
(422,130,cs),
(422,248,o),
(327,288,o),
(250,320,cs),
(196,342,o),
(151,361,o),
(151,400,cs),
(151,456,o),
(183,484,o),
(224,484,cs),
(249,484,o),
(301,469,o),
(316,415,cs),
(332,358,l),
(384,358,l),
(384,475,l),
(344,498,o),
(297,518,o),
(224,518,cs),
(112,518,o),
(29,459,o),
(29,380,cs),
(29,262,o),
(127,222,o),
(208,190,cs),
(263,168,o),
(310,149,o),
(310,110,cs),
(310,48,o),
(274,16,o),
(224,16,cs),
(194,16,o),
(136,34,o),
(120,95,cs),
(105,151,l),
(54,151,l),
(47,42,l),
(68,12,o),
(152,-18,o),
(224,-18,cs)
);
}
);
width = 451;
},
{
associatedMasterId = m01;
background = {
shapes = (
{
closed = 1;
nodes = (
(125,516,o),
(55,460,o),
(55,380,cs),
(55,180,o),
(336,210,o),
(336,110,cs),
(336,54,o),
(290,14,o),
(224,14,cs),
(179,14,o),
(139,45,o),
(116,94,cs),
(78,182,o),
(67,165,o),
(62,34,c),
(98,4,o),
(166,-16,o),
(224,-16,cs),
(325,-16,o),
(396,44,o),
(396,130,cs),
(396,330,o),
(125,300,o),
(125,400,cs),
(125,450,o),
(166,486,o),
(224,486,cs),
(264,486,o),
(299,459,o),
(320,416,cs),
(337,379,o),
(342,360,o),
(352,360,cs),
(365,360,o),
(371,403,o),
(367,481,c),
(337,499,o),
(280,516,o),
(224,516,cs)
);
}
);
};
layerId = "DBBBEA9A-309E-401A-8CD2-D99DFACDCE64";
name = "1. Jan. 24, 11:59";
shapes = (
{
closed = 1;
nodes = (
(325,-16,o),
(396,44,o),
(396,130,cs),
(396,325,o),
(125,300,o),
(125,400,cs),
(125,450,o),
(166,486,o),
(224,486,cs),
(264,486,o),
(299,459,o),
(320,416,cs),
(345,360,l),
(368,360,l),
(368,481,l),
(336,499,o),
(280,516,o),
(224,516,cs),
(125,516,o),
(55,460,o),
(55,380,cs),
(55,185,o),
(336,210,o),
(336,110,cs),
(336,54,o),
(290,14,o),
(224,14,cs),
(179,14,o),
(139,45,o),
(116,94,cs),
(92,149,l),
(70,149,l),
(62,34,l),
(98,4,o),
(166,-16,o),
(224,-16,cs)
);
}
);
width = 441;
},
{
associatedMasterId = m002;
background = {
shapes = (
{
closed = 1;
nodes = (
(125,516,o),
(55,460,o),
(55,380,cs),
(55,180,o),
(336,210,o),
(336,110,cs),
(336,54,o),
(290,14,o),
(224,14,cs),
(179,14,o),
(139,45,o),
(116,94,cs),
(78,182,o),
(67,165,o),
(62,34,c),
(98,4,o),
(166,-16,o),
(224,-16,cs),
(325,-16,o),
(396,44,o),
(396,130,cs),
(396,330,o),
(125,300,o),
(125,400,cs),
(125,450,o),
(166,486,o),
(224,486,cs),
(264,486,o),
(299,459,o),
(320,416,cs),
(337,379,o),
(342,360,o),
(352,360,cs),
(365,360,o),
(371,403,o),
(367,481,c),
(337,499,o),
(280,516,o),
(224,516,cs)
);
}
);
};
layerId = "95827E29-0AD6-4A3C-8915-E763CB1D5BA6";
name = "1. Jan. 24, 16:08";
shapes = (
{
closed = 1;
nodes = (
(337,-18,o),
(422,43,o),
(422,130,cs),
(422,330,o),
(151,305,o),
(151,400,cs),
(151,456,o),
(183,484,o),
(224,484,cs),
(249,484,o),
(291,469,o),
(306,415,cs),
(322,358,l),
(374,358,l),
(374,475,l),
(334,498,o),
(287,518,o),
(224,518,cs),
(112,518,o),
(29,459,o),
(29,380,cs),
(29,180,o),
(310,205,o),
(310,110,cs),
(310,48,o),
(274,16,o),
(224,16,cs),
(194,16,o),
(146,34,o),
(130,95,cs),
(115,151,l),
(64,151,l),
(57,42,l),
(78,12,o),
(152,-18,o),
(224,-18,cs)
);
}
);
width = 441;
}
);
unicode = 115;
},
{
glyphname = saltillo;
layers = (
{
layerId = m01;
shapes = (
{
closed = 1;
nodes = (
(96,515,l),
(116,700,l),
(44,700,l),
(54,515,l)
);
}
);
width = 160;
},
{
layerId = m002;
shapes = (
{
closed = 1;
nodes = (
(64,500,l),
(117,500,l),
(137,700,l),
(44,700,l)
);
}
);
width = 181;
}
);
unicode = 42892;
},
{
color = 5;
glyphname = germandbls;
layers = (
{
layerId = m01;
shapes = (
{
closed = 1;
nodes = (
(507,-16,o),
(565,44,o),
(565,130,cs),
(565,246,o),
(486,288,o),
(423,321,cs),
(379,344,o),
(343,364,o),
(343,400,cs),
(343,443,o),
(378,476,o),
(414,510,cs),
(452,546,o),
(491,583,o),
(491,634,cs),
(491,750,o),
(433,814,o),
(328,814,cs),
(203,814,o),
(109,711,o),
(109,566,cs),
(109,484,l),
(127,502,l),
(2,502,l),
(0,462,l),
(127,462,l),
(109,480,l),
(109,32,l),
(126,56,l),
(18,20,l),
(18,0,l),
(199,0,l),
(199,598,ls),
(199,709,o),
(244,787,o),
(299,787,cs),
(343,787,o),
(419,687,o),
(419,611,cs),
(419,576,o),
(390,545,o),
(359,512,cs),
(323,474,o),
(285,433,o),
(285,380,cs),
(285,264,o),
(367,222,o),
(433,189,cs),
(478,166,o),
(516,146,o),
(516,110,cs),
(516,54,o),
(478,19,o),
(424,19,cs),
(387,19,o),
(350,45,o),
(332,94,cs),
(315,139,l),
(297,139,l),
(291,34,l),
(320,4,o),
(376,-16,o),
(424,-16,cs)
);
}
);
width = 590;
},
{
layerId = m002;
shapes = (
{
closed = 1;
nodes = (
(518,-18,o),
(591,39,o),
(591,130,cs),
(591,251,o),
(514,288,o),
(451,319,cs),
(407,341,o),
(379,359,o),
(379,400,cs),
(379,448,o),
(411,481,o),
(448,515,cs),
(485,549,o),
(517,584,o),
(517,634,cs),
(517,754,o),
(448,816,o),
(328,816,cs),
(184,816,o),
(83,708,o),
(83,552,cs),
(83,482,l),
(105,504,l),
(-4,504,l),
(-6,460,l),
(105,460,l),
(83,482,l),
(83,26,l),
(104,55,l),
(-8,16,l),
(-8,-2,l),
(225,-2,l),
(225,602,ls),
(225,716,o),
(266,785,o),
(299,785,cs),
(348,785,o),
(393,693,o),
(393,611,cs),
(393,571,o),
(368,538,o),
(336,505,cs),
(301,469,o),
(269,431,o),
(269,380,cs),
(269,259,o),
(339,222,o),
(405,191,cs),
(451,169,o),
(490,151,o),
(490,110,cs),
(490,48,o),
(461,21,o),
(424,21,cs),
(401,21,o),
(355,35,o),
(346,95,cs),
(339,141,l),
(288,141,l),
(288,42,l),
(299,14,o),
(361,-18,o),
(424,-18,cs)
);
}
);
width = 590;
},
{
associatedMasterId = m01;
layerId = "F985E475-2F89-4C60-B7AF-543DFCCDA5B4";
name = "1. Jan. 24, 12:14";
shapes = (
{
closed = 1;
nodes = (
(507,-16,o),
(565,44,o),
(565,130,cs),
(565,325,o),
(343,310,o),
(343,400,cs),
(343,489,o),
(491,534,o),
(491,634,cs),
(491,750,o),
(433,814,o),
(328,814,cs),
(203,814,o),
(109,711,o),
(109,566,c),
(199,598,l),
(199,709,o),
(244,787,o),
(299,787,cs),
(343,787,o),
(419,687,o),
(419,611,cs),
(419,536,o),
(285,479,o),
(285,380,cs),
(285,185,o),
(516,200,o),
(516,110,cs),
(516,54,o),
(478,19,o),
(424,19,cs),
(387,19,o),
(350,45,o),
(332,94,cs),
(315,139,l),
(297,139,l),
(291,34,l),
(320,4,o),
(376,-16,o),
(424,-16,cs)
);
},
{
closed = 1;
nodes = (
(199,0,l),
(199,50,l),
(109,50,l),
(18,20,l),
(18,0,l)
);
},
{
closed = 1;
nodes = (
(199,50,l),
(199,598,l),
(109,566,l),
(109,50,l)
);
},
{
closed = 1;
nodes = (
(161,462,l),
(161,502,l),
(2,502,l),
(0,462,l)
);
}
);
width = 590;
},
{
associatedMasterId = m002;
layerId = "CC10F7C5-D9DF-4CA6-86EC-AD7FD5C0E7DE";
name = "1. Jan. 24, 16:14";
shapes = (
{
closed = 1;
nodes = (
(518,-18,o),
(591,39,o),
(591,130,cs),
(591,335,o),
(369,300,o),
(369,400,cs),
(369,497,o),
(517,534,o),
(517,634,cs),
(517,754,o),
(448,816,o),
(328,816,cs),
(184,816,o),
(76,708,o),
(83,552,c),
(225,602,l),
(226,716,o),
(266,785,o),
(299,785,cs),
(323,785,o),
(393,693,o),
(393,611,cs),
(393,527,o),
(259,478,o),
(259,380,cs),
(259,175,o),
(490,210,o),
(490,110,cs),
(490,48,o),
(461,21,o),
(424,21,cs),
(401,21,o),
(355,35,o),
(346,95,cs),
(339,141,l),
(291,141,l),
(285,42,l),
(299,14,o),
(361,-18,o),
(424,-18,cs)
);
},
{
closed = 1;
nodes = (
(225,-2,l),
(225,52,l),
(101,52,l),
(-8,16,l),
(-8,-2,l)
);
},
{
closed = 1;
nodes = (
(225,48,l),
(225,612,l),
(83,562,l),
(83,48,l)
);
},
{
closed = 1;
nodes = (
(187,460,l),
(187,504,l),
(-4,504,l),
(-6,460,l)
);
}
);
width = 590;
}
);
unicode = 223;
},
{
glyphname = t;
layers = (
{
anchors = (
{
name = cara;
pos = (155,701);
},
{
name = ced;
pos = (224,3);
},
{
name = com;
pos = (224,0);
}
);
layerId = m01;
shapes = (
{
closed = 1;
nodes = (
(268,-15,o),
(343,13,o),
(386,53,c),
(367,81,l),
(334,53,o),
(295,34,o),
(259,34,cs),
(228,34,o),
(198,70,o),
(198,134,cs),
(198,480,l),
(180,462,l),
(342,462,l),
(342,502,l),
(180,502,l),
(198,484,l),
(198,660,l),
(111,597,l),
(111,484,l),
(129,502,l),
(22,502,l),
(22,462,l),
(129,462,l),
(111,480,l),
(111,99,ls),
(111,32,o),
(150,-15,o),
(204,-15,cs)
);
}
);
width = 392;
},
{
anchors = (
{
name = cara;
pos = (150,701);
},
{
name = ced;
pos = (199,-7);
},
{
name = com;
pos = (199,0);
}
);
layerId = m002;
shapes = (
{
closed = 1;
nodes = (
(274,-17,o),
(356,38,o),
(392,75,c),
(369,104,l),
(315,54,o),
(294,36,o),
(272,36,cs),
(252,36,o),
(219,64,o),
(219,134,cs),
(219,482,l),
(197,460,l),
(363,460,l),
(363,504,l),
(197,504,l),
(219,482,l),
(219,671,l),
(80,611,l),
(80,482,l),
(102,504,l),
(-8,504,l),
(-10,460,l),
(102,460,l),
(80,482,l),
(80,99,ls),
(80,27,o),
(131,-17,o),
(199,-17,cs)
);
}
);
width = 392;
},
{
associatedMasterId = m01;
layerId = "40F5704F-EE71-40ED-A15A-121B75F7EAE7";
name = "1. Jan. 24, 12:01";
shapes = (
{
closed = 1;
nodes = (
(268,-15,o),
(343,13,o),
(386,53,c),
(367,81,l),
(334,53,o),
(295,34,o),
(259,34,cs),
(228,34,o),
(198,70,o),
(198,134,cs),
(198,660,l),
(111,597,l),
(111,99,ls),
(111,32,o),
(150,-15,o),
(204,-15,cs)
);
},
{
closed = 1;
nodes = (
(342,462,l),
(342,502,l),
(23,502,l),
(21,462,l)
);
}
);
width = 392;
},
{
associatedMasterId = m002;
layerId = "2ADF73DB-F4F2-4850-A779-39ADEA4DE714";
name = "1. Jan. 24, 16:16";
shapes = (
{
closed = 1;
nodes = (
(279,-17,o),
(361,38,o),
(397,75,c),
(374,104,l),
(320,54,o),
(289,36,o),
(267,36,cs),
(247,36,o),
(224,64,o),
(224,134,cs),
(224,691,l),
(85,591,l),
(85,99,ls),
(85,27,o),
(136,-17,o),
(204,-17,cs)
);
},
{
closed = 1;
nodes = (
(368,460,l),
(368,504,l),
(-3,504,l),
(-5,460,l)
);
}
);
width = 392;
}
);
unicode = 116;
},
{
color = 5;
glyphname = u;
layers = (
{
anchors = (
{
name = ogo;
pos = (408,1);
},
{
name = top;
pos = (293,500);
}
);
layerId = m01;
shapes = (
{
closed = 1;
nodes = (
(301,-15,o),
(366,33,o),
(412,78,c),
(402,88,l),
(409,-10,l),
(419,-16,l),
(596,19,l),
(596,35,l),
(474,49,l),
(492,29,l),
(492,500,l),
(326,500,l),
(326,470,l),
(419,445,l),
(402,468,l),
(402,100,l),
(411,128,l),
(371,84,o),
(320,37,o),
(277,37,cs),
(215,37,o),
(176,85,o),
(176,162,cs),
(176,500,l),
(-5,500,l),
(-5,480,l),
(103,444,l),
(86,468,l),
(86,134,ls),
(86,47,o),
(154,-15,o),
(246,-15,cs)
);
}
);
width = 591;
},
{
anchors = (
{
name = ogo;
pos = (383,0);
},
{
name = top;
pos = (290,499);
}
);
layerId = m002;
shapes = (
{
closed = 1;
nodes = (
(298,-17,o),
(369,24,o),
(390,64,c),
(377,75,l),
(383,-4,l),
(396,-21,l),
(602,21,l),
(602,44,l),
(496,59,l),
(518,24,l),
(518,502,l),
(300,502,l),
(300,464,l),
(398,438,l),
(376,465,l),
(376,91,l),
(394,132,l),
(354,68,o),
(299,39,o),
(277,39,cs),
(235,39,o),
(202,79,o),
(202,162,cs),
(202,502,l),
(-11,502,l),
(-11,474,l),
(81,435,l),
(60,466,l),
(60,134,ls),
(60,46,o),
(141,-17,o),
(246,-17,cs)
);
}
);
width = 591;
},
{
associatedMasterId = m01;
layerId = "9564286C-1ECF-49B7-A1AE-8460CA4B2C0C";
name = "1. Jan. 24, 12:01";
shapes = (
{
closed = 1;
nodes = (
(304,-15,o),
(373,38,o),
(419,85,c),
(416,133,l),
(376,88,o),
(322,37,o),
(277,37,cs),
(215,37,o),
(176,85,o),
(176,162,cs),
(176,500,l),
(-5,500,l),
(-5,480,l),
(86,450,l),
(86,134,ls),
(86,47,o),
(154,-15,o),
(246,-15,cs)
);
},
{
closed = 1;
nodes = (
(596,19,l),
(596,35,l),
(492,47,l),
(492,500,l),
(326,500,l),
(326,470,l),
(402,450,l),
(402,86,l),
(409,-10,l),
(419,-16,l)
);
}
);
width = 591;
},
{
associatedMasterId = m002;
layerId = "5F6EA170-A3E5-47AF-BBA9-2515CFA8DE2D";
name = "1. Jan. 24, 16:19";
shapes = (
{
closed = 1;
nodes = (
(327,-17,o),
(408,83,o),
(445,123,c),
(439,182,l),
(349,81,o),
(305,39,o),
(277,39,cs),
(235,39,o),
(202,79,o),
(202,162,cs),
(202,502,l),
(-31,502,l),
(-31,484,l),
(60,454,l),
(60,134,ls),
(60,46,o),
(141,-17,o),
(246,-17,cs)
);
},
{
closed = 1;
nodes = (
(622,21,l),
(622,34,l),
(518,46,l),
(518,502,l),
(300,502,l),
(300,473,l),
(376,453,l),
(376,86,l),
(383,-4,l),
(396,-21,l)
);
}
);
width = 591;
}
);
unicode = 117;
},
{
color = 5;
glyphname = v;
layers = (
{
layerId = m01;
shapes = (
{
closed = 1;
nodes = (
(451,463,l),
(427,439,l),
(522,480,l),
(522,500,l),
(318,500,l),
(318,480,l),
(403,440,l),
(393,465,l),
(265,127,l),
(277,127,l),
(137,500,l),
(-18,500,l),
(-18,480,l),
(75,442,l),
(52,466,l),
(240,-26,l)
);
}
);
width = 500;
},
{
layerId = m002;
shapes = (
{
closed = 1;
nodes = (
(469,471,l),
(439,442,l),
(538,485,l),
(538,502,l),
(282,502,l),
(282,485,l),
(374,443,l),
(362,473,l),
(253,188,l),
(269,188,l),
(151,502,l),
(-54,502,l),
(-54,481,l),
(43,442,l),
(13,475,l),
(233,-37,l)
);
}
);
width = 500;
},
{
associatedMasterId = m01;
layerId = "1F750C69-5B90-4595-AD0D-BA127445C31E";
name = "1. Jan. 24, 12:02";
shapes = (
{
closed = 1;
nodes = (
(282,115,l),
(137,500,l),
(-18,500,l),
(-18,480,l),
(58,449,l),
(240,-26,l)
);
},
{
closed = 1;
nodes = (
(444,446,l),
(522,480,l),
(522,500,l),
(318,500,l),
(318,480,l),
(387,448,l),
(240,62,l),
(240,-26,l)
);
}
);
width = 500;
},
{
associatedMasterId = m002;
layerId = "07CD58A8-5850-4645-83BA-3BC37B1D42C1";
name = "1. Jan. 24, 16:23";
shapes = (
{
closed = 1;
nodes = (
(307,114,l),
(161,502,l),
(-44,502,l),
(-44,485,l),
(32,454,l),
(243,-37,l)
);
},
{
closed = 1;
nodes = (
(470,451,l),
(548,485,l),
(548,502,l),
(292,502,l),
(292,485,l),
(364,452,l),
(214,58,l),
(243,-37,l)
);
}
);
width = 500;
}
);
unicode = 118;
},
{
color = 5;
glyphname = w;
layers = (
{
anchors = (
{
name = top;
pos = (372,501);
}
);
layerId = m01;
shapes = (
{
closed = 1;
nodes = (
(372,417,l),
(361,417,l),
(496,-26,l),
(666,465,l),
(647,441,l),
(738,480,l),
(738,500,l),
(534,500,l),
(534,480,l),
(631,442,l),
(626,463,l),
(523,158,l),
(528,161,l),
(415,500,l),
(288,500,l),
(288,480,l),
(363,459,l),
(352,481,l),
(240,145,l),
(248,145,l),
(140,500,l),
(-8,500,l),
(-8,480,l),
(86,441,l),
(64,465,l),
(220,-26,l)
);
}
);
width = 726;
},
{
anchors = (
{
name = top;
pos = (357,501);
}
);
layerId = m002;
shapes = (
{
closed = 1;
nodes = (
(359,360,l),
(343,360,l),
(485,-34,l),
(680,474,l),
(655,444,l),
(749,485,l),
(749,502,l),
(493,502,l),
(493,485,l),
(631,425,l),
(621,449,l),
(511,162,l),
(532,165,l),
(409,502,l),
(247,502,l),
(247,478,l),
(362,443,l),
(350,467,l),
(231,157,l),
(258,155,l),
(127,502,l),
(-49,502,l),
(-49,481,l),
(48,440,l),
(19,474,l),
(208,-26,l)
);
}
);
width = 726;
},
{
associatedMasterId = m01;
layerId = "CCC204F1-CDC0-4B95-B559-48905217D45F";
name = "1. Jan. 24, 12:03";
shapes = (
{
closed = 1;
nodes = (
(259,129,l),
(143,500,l),
(-8,500,l),
(-8,480,l),
(69,448,l),
(220,-26,l)
);
},
{
closed = 1;
nodes = (
(370,413,l),
(398,500,l),
(288,500,l),
(288,480,l),
(351,480,l),
(220,72,l),
(220,-26,l)
);
},
{
closed = 1;
nodes = (
(535,151,l),
(418,500,l),
(288,500,l),
(288,480,l),
(346,464,l),
(496,-26,l)
);
},
{
closed = 1;
nodes = (
(664,448,l),
(738,480,l),
(738,500,l),
(534,500,l),
(534,480,l),
(614,449,l),
(496,72,l),
(496,-26,l)
);
}
);
width = 726;
},
{
associatedMasterId = m002;
layerId = "C188F69A-7BB1-4D0B-BE98-3097CF05CC98";
name = "1. Jan. 24, 16:23";
shapes = (
{
closed = 1;
nodes = (
(284,128,l),
(167,502,l),
(-34,502,l),
(-34,485,l),
(42,453,l),
(223,-26,l)
);
},
{
closed = 1;
nodes = (
(395,412,l),
(424,502,l),
(262,502,l),
(262,478,l),
(325,478,l),
(194,69,l),
(223,-26,l)
);
},
{
closed = 1;
nodes = (
(560,150,l),
(442,502,l),
(262,502,l),
(262,483,l),
(320,467,l),
(500,-34,l)
);
},
{
closed = 1;
nodes = (
(691,453,l),
(764,485,l),
(764,502,l),
(508,502,l),
(508,485,l),
(590,453,l),
(470,69,l),
(500,-34,l)
);
}
);
width = 726;
}
);
unicode = 119;
},
{
color = 5;
glyphname = x;
layers = (
{
layerId = m01;
shapes = (
{
closed = 1;
nodes = (
(554,0,l),
(554,17,l),
(464,49,l),
(491,28,l),
(316,294,l),
(314,265,l),
(489,472,l),
(460,452,l),
(533,478,l),
(533,500,l),
(350,500,l),
(350,478,l),
(431,453,l),
(425,472,l),
(293,298,l),
(314,297,l),
(180,500,l),
(25,500,l),
(25,483,l),
(121,443,l),
(94,465,l),
(248,229,l),
(249,258,l),
(74,33,l),
(102,54,l),
(25,22,l),
(25,0,l),
(207,0,l),
(207,22,l),
(131,54,l),
(138,32,l),
(271,225,l),
(251,225,l),
(398,0,l)
);
}
);
width = 563;
},
{
layerId = m002;
shapes = (
{
closed = 1;
nodes = (
(570,-2,l),
(570,13,l),
(475,46,l),
(508,20,l),
(326,298,l),
(324,262,l),
(505,479,l),
(470,455,l),
(549,482,l),
(549,502,l),
(314,502,l),
(314,482,l),
(405,453,l),
(398,478,l),
(282,325,l),
(308,324,l),
(191,502,l),
(-11,502,l),
(-11,478,l),
(90,436,l),
(57,474,l),
(218,225,l),
(220,262,l),
(36,25,l),
(71,52,l),
(-11,17,l),
(-11,-2,l),
(223,-2,l),
(223,17,l),
(137,53,l),
(145,25,l),
(263,196,l),
(238,196,l),
(367,-2,l)
);
}
);
width = 563;
},
{
associatedMasterId = m01;
layerId = "95ED4FDC-FAA1-4815-8E04-9314630187CE";
name = "1. Jan. 24, 12:04";
shapes = (
{
closed = 1;
nodes = (
(554,0,l),
(554,17,l),
(481,43,l),
(180,500,l),
(25,500,l),
(25,483,l),
(104,450,l),
(398,0,l)
);
},
{
closed = 1;
nodes = (
(207,0,l),
(207,22,l),
(148,47,l),
(297,262,l),
(274,290,l),
(85,47,l),
(25,22,l),
(25,0,l)
);
},
{
closed = 1;
nodes = (
(477,458,l),
(533,478,l),
(533,500,l),
(350,500,l),
(350,478,l),
(414,458,l),
(274,272,l),
(296,243,l)
);
}
);
width = 563;
},
{
associatedMasterId = m002;
layerId = "90766E18-6CD0-42FA-98B9-C1575E7F1F9C";
name = "1. Jan. 24, 16:26";
shapes = (
{
closed = 1;
nodes = (
(580,-2,l),
(580,13,l),
(506,39,l),
(201,502,l),
(-1,502,l),
(-1,488,l),
(79,455,l),
(377,-2,l)
);
},
{
closed = 1;
nodes = (
(233,-2,l),
(233,17,l),
(168,44,l),
(319,261,l),
(273,317,l),
(60,43,l),
(-1,17,l),
(-1,-2,l)
);
},
{
closed = 1;
nodes = (
(501,462,l),
(559,482,l),
(559,502,l),
(324,502,l),
(324,482,l),
(394,460,l),
(252,272,l),
(295,216,l)
);
}
);
width = 563;
}
);
unicode = 120;
},
{
color = 5;
glyphname = y;
layers = (
{
anchors = (
{
name = top;
pos = (313,500);
}
);
background = {
shapes = (
{
closed = 1;
nodes = (
(496,462,l),
(571,480,l),
(571,500,l),
(362,500,l),
(362,481,l),
(443,463,l),
(316,145,l),
(165,500,l),
(11,500,l),
(11,479,l),
(85,450,l),
(263,23,l),
(230,-59,o),
(208,-125,o),
(183,-160,cs),
(161,-189,o),
(142,-193,o),
(145,-205,cs),
(148,-217,o),
(181,-223,o),
(208,-189,cs),
(238,-150,o),
(265,-83,o),
(300,0,cs)
);
},
{
closed = 1;
nodes = (
(141,-192,o),
(121,-190,o),
(102,-164,cs),
(93,-152,o),
(85,-136,o),
(79,-117,cs),
(67,-77,o),
(61,-57,o),
(51,-57,cs),
(42,-57,o),
(36,-80,o),
(36,-122,cs),
(36,-157,o),
(48,-183,o),
(79,-201,cs),
(82,-203,o),
(86,-205,o),
(90,-207,cs),
(121,-222,o),
(148,-215,o),
(145,-205,cs)
);
}
);
};
layerId = m01;
shapes = (
{
closed = 1;
nodes = (
(209,-216,l),
(300,0,l),
(498,467,l),
(474,444,l),
(571,480,l),
(571,500,l),
(362,500,l),
(362,481,l),
(452,444,l),
(442,468,l),
(309,128,l),
(323,128,l),
(165,500,l),
(11,500,l),
(11,479,l),
(102,443,l),
(78,467,l),
(270,6,l),
(272,39,l),
(144,-183,l),
(170,-162,l),
(66,-194,l),
(66,-216,l)
);
}
);
width = 580;
},
{
anchors = (
{
name = top;
pos = (293,500);
}
);
background = {
shapes = (
{
closed = 1;
nodes = (
(476,462,l),
(551,480,l),
(551,500,l),
(342,500,l),
(342,481,l),
(423,463,l),
(296,145,l),
(145,500,l),
(-9,500,l),
(-9,479,l),
(65,450,l),
(243,23,l),
(210,-59,o),
(188,-125,o),
(163,-160,cs),
(141,-189,o),
(122,-193,o),
(125,-205,cs),
(128,-217,o),
(161,-223,o),
(188,-189,cs),
(218,-150,o),
(245,-83,o),
(280,0,cs)
);
},
{
closed = 1;
nodes = (
(121,-192,o),
(101,-190,o),
(82,-164,cs),
(73,-152,o),
(65,-136,o),
(59,-117,cs),
(47,-77,o),
(41,-57,o),
(31,-57,cs),
(22,-57,o),
(16,-80,o),
(16,-122,cs),
(16,-157,o),
(28,-183,o),
(59,-201,cs),
(62,-203,o),
(66,-205,o),
(70,-207,cs),
(101,-222,o),
(128,-215,o),
(125,-205,cs)
);
}
);
};
layerId = m002;
shapes = (
{
closed = 1;
nodes = (
(212,-218,l),
(303,-4,l),
(506,476,l),
(476,447,l),
(577,484,l),
(577,502,l),
(316,502,l),
(316,486,l),
(413,447,l),
(400,476,l),
(287,184,l),
(304,184,l),
(168,502,l),
(-35,502,l),
(-35,481,l),
(60,444,l),
(30,476,l),
(225,9,l),
(227,50,l),
(97,-190,l),
(129,-163,l),
(20,-198,l),
(20,-218,l)
);
}
);
width = 580;
},
{
associatedMasterId = m01;
background = {
shapes = (
{
closed = 1;
nodes = (
(496,462,l),
(571,480,l),
(571,500,l),
(362,500,l),
(362,481,l),
(443,463,l),
(316,145,l),
(165,500,l),
(11,500,l),
(11,479,l),
(85,450,l),
(263,23,l),
(230,-59,o),
(208,-125,o),
(183,-160,cs),
(161,-189,o),
(142,-193,o),
(145,-205,cs),
(148,-217,o),
(181,-223,o),
(208,-189,cs),
(238,-150,o),
(265,-83,o),
(300,0,cs)
);
},
{
closed = 1;
nodes = (
(141,-192,o),
(121,-190,o),
(102,-164,cs),
(93,-152,o),
(85,-136,o),
(79,-117,cs),
(67,-77,o),
(61,-57,o),
(51,-57,cs),
(42,-57,o),
(36,-80,o),
(36,-122,cs),
(36,-157,o),
(48,-183,o),
(79,-201,cs),
(82,-203,o),
(86,-205,o),
(90,-207,cs),
(121,-222,o),
(148,-215,o),
(145,-205,cs)
);
}
);
};
layerId = "5DA92128-E1CB-424F-BC18-F79CDDA4066B";
name = "1. Jan. 24, 12:05";
shapes = (
{
closed = 1;
nodes = (
(491,450,l),
(571,480,l),
(571,500,l),
(362,500,l),
(362,481,l),
(435,451,l),
(316,145,l),
(165,500,l),
(11,500,l),
(11,479,l),
(85,450,l),
(263,23,l),
(300,0,l)
);
},
{
closed = 1;
nodes = (
(209,-216,l),
(300,0,l),
(263,23,l),
(153,-167,l),
(66,-194,l),
(66,-216,l)
);
}
);
width = 580;
},
{
associatedMasterId = m002;
background = {
shapes = (
{
closed = 1;
nodes = (
(496,462,l),
(571,480,l),
(571,500,l),
(362,500,l),
(362,481,l),
(443,463,l),
(316,145,l),
(165,500,l),
(11,500,l),
(11,479,l),
(85,450,l),
(263,23,l),
(230,-59,o),
(208,-125,o),
(183,-160,cs),
(161,-189,o),
(142,-193,o),
(145,-205,cs),
(148,-217,o),
(181,-223,o),
(208,-189,cs),
(238,-150,o),
(265,-83,o),
(300,0,cs)
);
},
{
closed = 1;
nodes = (
(141,-192,o),
(121,-190,o),
(102,-164,cs),
(93,-152,o),
(85,-136,o),
(79,-117,cs),
(67,-77,o),
(61,-57,o),
(51,-57,cs),
(42,-57,o),
(36,-80,o),
(36,-122,cs),
(36,-157,o),
(48,-183,o),
(79,-201,cs),
(82,-203,o),
(86,-205,o),
(90,-207,cs),
(121,-222,o),
(148,-215,o),
(145,-205,cs)
);
}
);
};
layerId = "4F4FD3AC-0B0B-489F-8048-71AFD6546AF5";
name = "1. Jan. 24, 16:30";
shapes = (
{
closed = 1;
nodes = (
(517,455,l),
(597,484,l),
(597,502,l),
(336,502,l),
(336,486,l),
(412,455,l),
(315,205,l),
(188,502,l),
(-15,502,l),
(-15,484,l),
(59,455,l),
(236,30,l),
(316,-20,l)
);
},
{
closed = 1;
nodes = (
(232,-218,l),
(323,-4,l),
(236,30,l),
(128,-170,l),
(40,-198,l),
(40,-218,l)
);
}
);
width = 580;
}
);
unicode = 121;
},
{
color = 5;
glyphname = z;
layers = (
{
anchors = (
{
name = top;
pos = (251,499);
}
);
layerId = m01;
shapes = (
{
closed = 1;
nodes = (
(455,1,l),
(455,169,l),
(430,169,l),
(391,24,l),
(414,41,l),
(128,41,l),
(136,26,l),
(451,470,l),
(442,500,l),
(62,500,l),
(62,322,l),
(87,322,l),
(131,477,l),
(108,460,l),
(356,460,l),
(348,475,l),
(40,40,l),
(40,1,l)
);
}
);
width = 495;
},
{
anchors = (
{
name = top;
pos = (251,499);
}
);
layerId = m002;
shapes = (
{
closed = 1;
nodes = (
(471,0,l),
(471,172,l),
(425,172,l),
(385,22,l),
(413,44,l),
(147,44,l),
(156,26,l),
(475,474,l),
(466,503,l),
(36,503,l),
(36,321,l),
(82,321,l),
(127,481,l),
(109,459,l),
(337,459,l),
(328,477,l),
(14,35,l),
(14,0,l)
);
}
);
width = 505;
},
{
associatedMasterId = m002;
layerId = "0D2FD591-B923-403E-80D5-451D317F4AFE";
name = "1. Jan. 24, 16:31";
shapes = (
{
closed = 1;
nodes = (
(481,0,l),
(481,172,l),
(425,172,l),
(391,44,l),
(169,44,l),
(475,474,l),
(466,503,l),
(36,503,l),
(36,321,l),
(92,321,l),
(131,459,l),
(315,459,l),
(14,35,l),
(14,0,l)
);
}
);
width = 495;
}
);
unicode = 122;
},
{
color = 3;
glyphname = pi;
layers = (
{
layerId = m01;
shapes = (
{
closed = 1;
nodes = (
(33,500,l),
(567,500,l),
(567,440,l),
(464,440,l),
(464,332,o),
(464,117,o),
(464,96,cs),
(464,74,o),
(480,60,o),
(505,60,cs),
(567,60,l),
(567,0,l),
(527,0,o),
(532,0,o),
(505,0,cs),
(431,0,o),
(384,37,o),
(384,96,cs),
(384,440,l),
(216,440,l),
(216,0,l),
(136,0,l),
(136,440,l),
(35,440,l),
(35,499,l)
);
}
);
width = 600;
},
{
layerId = m002;
shapes = (
{
closed = 1;
nodes = (
(33,500,l),
(567,500,l),
(567,440,l),
(464,440,l),
(464,332,o),
(464,117,o),
(464,96,cs),
(464,74,o),
(480,60,o),
(505,60,cs),
(567,60,l),
(567,0,l),
(527,0,o),
(532,0,o),
(505,0,cs),
(431,0,o),
(384,37,o),
(384,96,cs),
(384,440,l),
(216,440,l),
(216,0,l),
(136,0,l),
(136,440,l),
(35,440,l),
(35,499,l)
);
}
);
width = 600;
}
);
unicode = 960;
},
{
glyphname = zero;
layers = (
{
layerId = m01;
shapes = (
{
closed = 1;
nodes = (
(448,-15,o),
(523,132,o),
(523,367,cs),
(523,582,o),
(448,717,o),
(297,717,cs),
(143,717,o),
(57,578,o),
(57,357,cs),
(57,128,o),
(143,-15,o),
(297,-15,cs)
);
},
{
closed = 1;
nodes = (
(203,18,o),
(161,139,o),
(161,385,cs),
(161,585,o),
(195,683,o),
(284,683,cs),
(388,683,o),
(419,569,o),
(419,336,cs),
(419,122,o),
(397,18,o),
(310,18,cs)
);
}
);
width = 580;
},
{
layerId = m002;
shapes = (
{
closed = 1;
nodes = (
(472,-17,o),
(549,132,o),
(549,367,cs),
(549,580,o),
(473,719,o),
(297,719,cs),
(121,719,o),
(31,578,o),
(31,357,cs),
(31,128,o),
(120,-17,o),
(297,-17,cs)
);
},
{
closed = 1;
nodes = (
(227,20,o),
(187,136,o),
(187,385,cs),
(187,588,o),
(219,681,o),
(284,681,cs),
(363,681,o),
(393,572,o),
(393,336,cs),
(393,120,o),
(372,20,o),
(310,20,cs)
);
}
);
width = 600;
}
);
unicode = 48;
},
{
glyphname = one;
layers = (
{
layerId = m01;
shapes = (
{
closed = 1;
nodes = (
(472,0,l),
(472,50,l),
(334,50,l),
(352,32,l),
(352,700,l),
(334,716,l),
(103,571,l),
(128,528,l),
(277,622,l),
(262,630,l),
(262,32,l),
(280,50,l),
(141,50,l),
(141,0,l)
);
}
);
width = 580;
},
{
layerId = m002;
shapes = (
{
closed = 1;
nodes = (
(488,-2,l),
(488,52,l),
(346,52,l),
(368,30,l),
(368,694,l),
(328,729,l),
(72,568,l),
(106,510,l),
(245,597,l),
(226,607,l),
(226,30,l),
(248,52,l),
(105,52,l),
(105,-2,l)
);
}
);
width = 600;
},
{
associatedMasterId = m01;
layerId = "360EFFB6-4E8B-4C79-A491-3A1B2B1C2A03";
name = "1. Jan. 24, 17:20";
shapes = (
{
closed = 1;
nodes = (
(352,0,l),
(352,700,l),
(334,716,l),
(103,571,l),
(128,528,l),
(262,612,l),
(262,0,l)
);
},
{
closed = 1;
nodes = (
(472,0,l),
(472,50,l),
(141,50,l),
(141,0,l)
);
}
);
width = 580;
},
{
associatedMasterId = m002;
layerId = "138A6896-797D-4FFF-BA12-2743FAE1B23D";
name = "1. Jan. 24, 17:20";
shapes = (
{
closed = 1;
nodes = (
(378,-2,l),
(378,694,l),
(338,729,l),
(82,568,l),
(116,510,l),
(236,585,l),
(236,-2,l)
);
},
{
closed = 1;
nodes = (
(498,-2,l),
(498,52,l),
(115,52,l),
(115,-2,l)
);
}
);
width = 600;
}
);
unicode = 49;
},
{
glyphname = two;
layers = (
{
layerId = m01;
shapes = (
{
closed = 1;
nodes = (
(511,0,l),
(536,167,l),
(507,174,l),
(437,65,l),
(465,80,l),
(149,80,l),
(159,70,l),
(295,237,o),
(504,310,o),
(504,539,cs),
(504,641,o),
(407,714,o),
(269,715,cs),
(211,715,o),
(133,679,o),
(79,627,c),
(79,456,l),
(131,456,l),
(131,579,o),
(188,666,o),
(269,666,cs),
(346,666,o),
(400,603,o),
(400,515,cs),
(400,337,o),
(206,200,o),
(70,40,c),
(70,0,l)
);
}
);
width = 580;
},
{
layerId = m002;
shapes = (
{
closed = 1;
nodes = (
(526,-2,l),
(551,164,l),
(499,182,l),
(424,63,l),
(458,82,l),
(158,82,l),
(174,74,l),
(255,178,o),
(520,329,o),
(520,539,cs),
(520,644,o),
(426,716,o),
(261,716,cs),
(186,716,o),
(95,677,o),
(43,620,c),
(43,454,l),
(127,454,l),
(146,602,o),
(191,663,o),
(261,663,cs),
(332,663,o),
(364,623,o),
(364,515,cs),
(364,325,o),
(112,130,o),
(34,34,c),
(34,-2,l)
);
}
);
width = 600;
},
{
associatedMasterId = m01;
layerId = "0DE6C439-2438-4EA0-86E4-AE4E41974AE0";
name = "1. Jan. 24, 17:21";
shapes = (
{
closed = 1;
nodes = (
(511,0,l),
(536,167,l),
(507,174,l),
(447,80,l),
(167,80,l),
(303,240,o),
(504,315,o),
(504,539,cs),
(504,641,o),
(407,714,o),
(269,715,c),
(269,666,l),
(346,666,o),
(400,603,o),
(400,515,cs),
(400,337,o),
(206,200,o),
(70,40,c),
(70,0,l)
);
},
{
closed = 1;
nodes = (
(131,456,l),
(131,579,o),
(188,666,o),
(269,666,c),
(269,715,l),
(211,715,o),
(133,679,o),
(79,627,c),
(79,456,l)
);
}
);
width = 580;
},
{
associatedMasterId = m002;
layerId = "3EA1C9C3-4834-4B5E-82C5-FA9CC1C63715";
name = "1. Jan. 24, 17:21";
shapes = (
{
closed = 1;
nodes = (
(536,-2,l),
(561,164,l),
(509,182,l),
(446,82,l),
(190,82,l),
(278,186,o),
(530,334,o),
(530,539,cs),
(530,644,o),
(436,716,o),
(271,716,c),
(271,663,l),
(342,663,o),
(374,623,o),
(374,515,cs),
(374,325,o),
(122,130,o),
(44,34,c),
(44,-2,l)
);
},
{
closed = 1;
nodes = (
(137,454,l),
(156,602,o),
(201,663,o),
(271,663,c),
(271,716,l),
(196,716,o),
(105,677,o),
(53,620,c),
(53,454,l)
);
}
);
width = 600;
}
);
unicode = 50;
},
{
glyphname = three;
layers = (
{
layerId = m01;
shapes = (
{
closed = 1;
nodes = (
(413,-14,o),
(527,89,o),
(527,234,cs),
(527,360,o),
(463,427,o),
(363,419,c),
(363,411,l),
(434,462,o),
(479,522,o),
(479,572,cs),
(479,657,o),
(398,717,o),
(283,717,cs),
(214,717,o),
(127,680,o),
(72,627,c),
(99,580,l),
(139,630,o),
(207,666,o),
(263,666,cs),
(332,666,o),
(380,615,o),
(380,544,cs),
(380,475,o),
(312,406,o),
(216,377,c),
(229,338,l),
(242,344,ls),
(266,354,o),
(289,358,o),
(310,358,cs),
(382,358,o),
(428,302,o),
(428,202,cs),
(428,99,o),
(364,26,o),
(273,26,cs),
(180,26,o),
(115,100,o),
(115,205,c),
(73,205,l),
(73,54,l),
(112,14,o),
(186,-14,o),
(253,-14,cs)
);
}
);
width = 580;
},
{
layerId = m002;
shapes = (
{
closed = 1;
nodes = (
(424,-16,o),
(553,87,o),
(553,234,cs),
(553,350,o),
(483,420,o),
(380,423,c),
(379,410,l),
(458,464,o),
(505,523,o),
(505,572,cs),
(505,655,o),
(411,719,o),
(283,719,cs),
(202,719,o),
(99,674,o),
(50,625,c),
(96,545,l),
(145,624,o),
(211,664,o),
(263,664,cs),
(314,664,o),
(354,621,o),
(354,544,cs),
(354,464,o),
(281,395,o),
(192,375,c),
(209,324,l),
(245,338,l),
(271,347,o),
(293,352,o),
(313,352,cs),
(372,352,o),
(402,308,o),
(402,202,cs),
(402,93,o),
(345,28,o),
(273,28,cs),
(192,28,o),
(129,102,o),
(121,207,c),
(57,207,l),
(57,61,l),
(84,23,o),
(171,-16,o),
(253,-16,cs)
);
}
);
width = 600;
},
{
associatedMasterId = m01;
layerId = "8F331F5D-2938-46F6-989C-2C6BBF10FD3A";
name = "1. Jan. 24, 17:22";
shapes = (
{
closed = 1;
nodes = (
(413,-14,o),
(527,89,o),
(527,234,cs),
(527,408,o),
(405,468,o),
(233,380,c),
(229,338,l),
(346,391,o),
(428,335,o),
(428,202,cs),
(428,99,o),
(364,26,o),
(273,26,cs),
(180,26,o),
(115,100,o),
(115,205,c),
(73,205,l),
(73,54,l),
(112,14,o),
(186,-14,o),
(253,-14,cs)
);
},
{
closed = 1;
nodes = (
(375,398,o),
(479,495,o),
(479,572,cs),
(479,657,o),
(398,717,o),
(283,717,cs),
(214,717,o),
(127,680,o),
(72,627,c),
(99,580,l),
(139,630,o),
(207,666,o),
(263,666,cs),
(332,666,o),
(380,615,o),
(380,544,cs),
(380,475,o),
(312,406,o),
(216,377,c),
(229,338,l)
);
}
);
width = 580;
},
{
associatedMasterId = m002;
layerId = "D862F12D-1E6C-4858-AAD5-AFA561D8362F";
name = "1. Jan. 24, 17:22";
shapes = (
{
closed = 1;
nodes = (
(424,-16,o),
(553,87,o),
(553,234,cs),
(553,407,o),
(397,479,o),
(207,374,c),
(209,324,l),
(336,380,o),
(402,358,o),
(402,202,cs),
(402,93,o),
(345,28,o),
(273,28,cs),
(192,28,o),
(129,102,o),
(121,207,c),
(57,207,l),
(57,61,l),
(84,23,o),
(171,-16,o),
(253,-16,cs)
);
},
{
closed = 1;
nodes = (
(388,391,o),
(505,495,o),
(505,572,cs),
(505,655,o),
(411,719,o),
(283,719,cs),
(202,719,o),
(99,674,o),
(50,625,c),
(96,545,l),
(145,624,o),
(211,664,o),
(263,664,cs),
(314,664,o),
(354,621,o),
(354,544,cs),
(354,464,o),
(281,395,o),
(192,375,c),
(209,324,l)
);
}
);
width = 600;
}
);
unicode = 51;
},
{
glyphname = four;
layers = (
{
layerId = m01;
shapes = (
{
closed = 1;
nodes = (
(434,0,l),
(434,203,l),
(416,185,l),
(537,185,l),
(537,256,l),
(416,256,l),
(434,238,l),
(434,698,l),
(405,722,l),
(37,230,l),
(37,185,l),
(362,185,l),
(344,203,l),
(344,0,l)
);
},
{
closed = 1;
nodes = (
(355,576,l),
(344,579,l),
(344,238,l),
(362,256,l),
(102,256,l),
(109,241,l)
);
}
);
width = 580;
},
{
background = {
shapes = (
{
closed = 1;
nodes = (
(452,0,l),
(452,692,l),
(388,741,l),
(1,224,l),
(1,183,l),
(542,183,l),
(542,258,l),
(133,258,l),
(318,496,l),
(318,0,l)
);
}
);
};
layerId = m002;
shapes = (
{
closed = 1;
nodes = (
(463,0,l),
(463,189,l),
(441,167,l),
(562,167,l),
(562,258,l),
(441,258,l),
(463,236,l),
(463,698,l),
(408,741,l),
(21,224,l),
(21,167,l),
(360,167,l),
(338,189,l),
(338,0,l)
);
},
{
closed = 1;
nodes = (
(352,545,l),
(338,549,l),
(338,236,l),
(360,258,l),
(111,258,l),
(119,240,l)
);
}
);
width = 600;
},
{
associatedMasterId = m01;
layerId = "8D90DA5D-419B-4F96-B085-6315BED35AA5";
name = "2. Jan. 24, 19:58";
shapes = (
{
closed = 1;
nodes = (
(434,0,l),
(434,698,l),
(405,722,l),
(37,230,l),
(37,185,l),
(537,185,l),
(537,256,l),
(120,256,l),
(344,561,l),
(344,0,l)
);
}
);
width = 580;
},
{
associatedMasterId = m002;
background = {
shapes = (
{
closed = 1;
nodes = (
(452,0,l),
(452,692,l),
(388,741,l),
(1,224,l),
(1,183,l),
(542,183,l),
(542,258,l),
(133,258,l),
(318,496,l),
(318,0,l)
);
}
);
};
layerId = "B80E9124-7070-42E5-946F-80B040C4DB40";
name = "2. Jan. 24, 19:58";
shapes = (
{
closed = 1;
nodes = (
(472,0,l),
(472,698,l),
(408,741,l),
(21,224,l),
(21,163,l),
(562,163,l),
(562,258,l),
(133,258,l),
(338,527,l),
(338,0,l)
);
}
);
width = 600;
}
);
unicode = 52;
},
{
glyphname = five;
layers = (
{
layerId = m01;
shapes = (
{
closed = 1;
nodes = (
(410,-14,o),
(512,96,o),
(512,251,cs),
(512,375,o),
(418,462,o),
(286,462,cs),
(228,462,o),
(171,449,o),
(156,430,c),
(159,417,l),
(183,638,l),
(163,620,l),
(434,620,l),
(410,637,l),
(444,542,l),
(482,542,l),
(462,700,l),
(135,700,l),
(99,349,l),
(109,341,l),
(151,374,o),
(208,397,o),
(246,397,cs),
(344,397,o),
(413,323,o),
(413,219,cs),
(413,103,o),
(360,21,o),
(286,21,cs),
(212,21,o),
(136,106,o),
(126,184,c),
(104,184,l),
(80,74,l),
(130,22,o),
(207,-14,o),
(266,-14,cs)
);
}
);
width = 580;
},
{
layerId = m002;
shapes = (
{
closed = 1;
nodes = (
(422,-16,o),
(538,91,o),
(538,251,cs),
(538,375,o),
(432,464,o),
(286,464,cs),
(248,464,o),
(206,457,o),
(177,450,c),
(187,431,l),
(209,640,l),
(185,618,l),
(423,618,l),
(393,639,l),
(429,540,l),
(498,540,l),
(478,702,l),
(109,702,l),
(74,355,l),
(109,326,l),
(163,373,o),
(214,395,o),
(246,395,cs),
(326,395,o),
(387,329,o),
(387,219,cs),
(387,98,o),
(339,23,o),
(286,23,cs),
(208,23,o),
(144,90,o),
(132,184,c),
(79,186,l),
(56,79,l),
(98,30,o),
(192,-16,o),
(266,-16,cs)
);
}
);
width = 600;
},
{
associatedMasterId = m002;
layerId = "88A56C6A-85AD-45F9-B51E-E5F1F33BFF98";
name = "1. Jan. 24, 17:28";
shapes = (
{
closed = 1;
nodes = (
(422,-16,o),
(538,91,o),
(538,251,cs),
(538,375,o),
(432,464,o),
(286,464,cs),
(253,464,o),
(217,459,o),
(189,453,c),
(207,618,l),
(401,618,l),
(429,540,l),
(498,540,l),
(478,702,l),
(109,702,l),
(74,355,l),
(109,326,l),
(163,373,o),
(214,395,o),
(246,395,cs),
(326,395,o),
(387,329,o),
(387,219,cs),
(387,98,o),
(339,23,o),
(286,23,cs),
(208,23,o),
(144,90,o),
(132,184,c),
(79,186,l),
(56,79,l),
(98,30,o),
(192,-16,o),
(266,-16,cs)
);
}
);
width = 600;
},
{
associatedMasterId = m01;
layerId = "1A4747A4-C5D2-483C-AC0C-E6C9B6BD64D5";
name = "1. Jan. 24, 17:28";
shapes = (
{
closed = 1;
nodes = (
(410,-14,o),
(512,96,o),
(512,251,cs),
(512,375,o),
(418,462,o),
(286,462,cs),
(233,462,o),
(181,451,o),
(161,435,c),
(181,620,l),
(416,620,l),
(444,542,l),
(482,542,l),
(462,700,l),
(135,700,l),
(99,349,l),
(109,341,l),
(151,374,o),
(208,397,o),
(246,397,cs),
(344,397,o),
(413,323,o),
(413,219,cs),
(413,103,o),
(360,21,o),
(286,21,cs),
(212,21,o),
(136,106,o),
(126,184,c),
(104,184,l),
(80,74,l),
(130,22,o),
(207,-14,o),
(266,-14,cs)
);
}
);
width = 580;
}
);
unicode = 53;
},
{
glyphname = six;
layers = (
{
layerId = m01;
shapes = (
{
closed = 1;
nodes = (
(434,-13,o),
(526,87,o),
(526,228,cs),
(526,342,o),
(439,422,o),
(315,422,cs),
(258,422,o),
(200,392,o),
(160,345,c),
(167,343,l),
(178,483,o),
(298,620,o),
(461,673,c),
(455,715,l),
(230,661,o),
(70,485,o),
(70,290,cs),
(70,113,o),
(167,-13,o),
(305,-13,cs)
);
},
{
closed = 1;
nodes = (
(230,18,o),
(166,149,o),
(166,333,c),
(159,307,l),
(189,346,o),
(241,372,o),
(295,372,cs),
(378,372,o),
(437,297,o),
(437,190,cs),
(437,89,o),
(390,18,o),
(324,18,cs)
);
}
);
width = 580;
},
{
layerId = m002;
shapes = (
{
closed = 1;
nodes = (
(446,-15,o),
(552,82,o),
(552,228,cs),
(552,345,o),
(450,424,o),
(315,424,cs),
(270,424,o),
(225,409,o),
(187,386,c),
(197,379,l),
(224,517,o),
(343,636,o),
(486,676,c),
(480,724,l),
(219,673,o),
(44,488,o),
(44,290,cs),
(44,116,o),
(145,-15,o),
(305,-15,cs)
);
},
{
closed = 1;
nodes = (
(252,20,o),
(189,148,o),
(192,345,c),
(183,308,l),
(208,350,o),
(251,370,o),
(295,370,cs),
(358,370,o),
(411,303,o),
(411,190,cs),
(411,84,o),
(369,20,o),
(324,20,cs)
);
}
);
width = 600;
},
{
associatedMasterId = m002;
layerId = "579E116E-0580-4B33-9E7F-BBDF86D76216";
name = "1. Jan. 24, 17:29";
shapes = (
{
closed = 1;
nodes = (
(446,-15,o),
(552,82,o),
(552,228,cs),
(552,345,o),
(450,424,o),
(315,424,cs),
(221,424,o),
(131,359,o),
(97,286,c),
(164,267,l),
(186,336,o),
(238,370,o),
(295,370,cs),
(358,370,o),
(411,303,o),
(411,190,cs),
(411,84,o),
(369,20,o),
(324,20,cs),
(254,20,o),
(192,143,o),
(192,332,c),
(198,489,o),
(327,631,o),
(486,676,c),
(480,724,l),
(219,673,o),
(44,488,o),
(44,290,cs),
(44,116,o),
(145,-15,o),
(305,-15,cs)
);
}
);
width = 600;
},
{
associatedMasterId = m01;
layerId = "3277B660-BE81-4AB4-86EE-2677D2A8F419";
name = "1. Jan. 24, 17:29";
shapes = (
{
closed = 1;
nodes = (
(434,-13,o),
(526,87,o),
(526,228,cs),
(526,342,o),
(439,422,o),
(315,422,cs),
(237,422,o),
(156,364,o),
(119,282,c),
(139,268,l),
(159,329,o),
(224,372,o),
(295,372,cs),
(378,372,o),
(437,297,o),
(437,190,cs),
(437,89,o),
(390,18,o),
(324,18,cs),
(231,18,o),
(166,148,o),
(166,332,c),
(172,477,o),
(294,618,o),
(461,673,c),
(455,715,l),
(230,661,o),
(70,485,o),
(70,290,cs),
(70,113,o),
(167,-13,o),
(305,-13,cs)
);
}
);
width = 580;
}
);
unicode = 54;
},
{
glyphname = seven;
layers = (
{
layerId = m01;
shapes = (
{
closed = 1;
nodes = (
(234,0,l),
(545,683,l),
(528,700,l),
(98,700,l),
(78,507,l),
(126,507,l),
(159,627,l),
(136,610,l),
(467,610,l),
(457,626,l),
(125,0,l)
);
}
);
width = 580;
},
{
layerId = m002;
shapes = (
{
closed = 1;
nodes = (
(257,-2,l),
(568,680,l),
(546,702,l),
(72,702,l),
(52,505,l),
(121,505,l),
(155,630,l),
(127,608,l),
(446,608,l),
(435,628,l),
(100,-2,l)
);
}
);
width = 600;
}
);
unicode = 55;
},
